<?xml version="1.0" encoding="iso-8859-1"?>
<!-- Generator: Adobe Illustrator 19.0.0, SVG Export Plug-In . SVG Version: 6.00 Build 0)  -->
<svg version="1.1" id="Capa_1" xmlns="http://www.w3.org/2000/svg" xmlns:xlink="http://www.w3.org/1999/xlink" x="0px" y="0px"
	 viewBox="0 0 512 512" style="enable-background:new 0 0 512 512;" xml:space="preserve">
<g>
	<g>
		<path d="M483.312,132.688l-128-128C352.32,1.68,348.256,0,344,0H88c-8.848,0-16,7.168-16,16v144h32V32h224v112
			c0,8.832,7.152,16,16,16h112v320H104V320H72v176c0,8.832,7.152,16,16,16h384c8.848,0,16-7.168,16-16V144
			C488,139.76,486.32,135.68,483.312,132.688z M360,128V54.624L433.376,128H360z"/>
	</g>
</g>
<g>
	<g>
		<path d="M367.152,225.68l-64-32c-2.208-1.104-4.672-1.68-7.152-1.68H40c-8.848,0-16,7.168-16,16v64c0,8.832,7.152,16,16,16h256
			c2.48,0,4.944-0.576,7.152-1.68l64-32C372.576,251.6,376,246.064,376,240C376,233.936,372.576,228.4,367.152,225.68z M88,256H56
			v-32h32V256z M292.224,256H120v-32h172.224l32,16L292.224,256z"/>
	</g>
</g>
<g>
	<g>
		<rect x="136" y="320" width="288" height="32"/>
	</g>
</g>
<g>
	<g>
		<rect x="200" y="384" width="224" height="32"/>
	</g>
</g>
<g>
	<g>
		<rect x="136" y="384" width="32" height="32"/>
	</g>
</g>
<g>
</g>
<g>
</g>
<g>
</g>
<g>
</g>
<g>
</g>
<g>
</g>
<g>
</g>
<g>
</g>
<g>
</g>
<g>
</g>
<g>
</g>
<g>
</g>
<g>
</g>
<g>
</g>
<g>
</g>
</svg>
