<?xml version="1.0" standalone="no"?>
<!DOCTYPE svg PUBLIC "-//W3C//DTD SVG 1.1//EN" "http://www.w3.org/Graphics/SVG/1.1/DTD/svg11.dtd" >
<svg xmlns="http://www.w3.org/2000/svg">
<metadata>Generated by IcoMoon</metadata>
<defs>
<font id="icomoon" horiz-adv-x="1024">
<font-face units-per-em="1024" ascent="960" descent="-64" />
<missing-glyph horiz-adv-x="1024" />
<glyph unicode="&#x20;" horiz-adv-x="512" d="" />
<glyph unicode="&#xe900;" glyph-name="add-video-or-picture2" d="M591.872 65.024c1.536-2.56 3.072-5.12 5.12-7.168v0c-2.048 2.048-3.584 4.608-5.12 7.168zM960 351.744v486.912c0 45.056-36.864 81.92-81.92 81.92h-795.136c-45.056 0-81.92-36.864-81.92-81.92v-739.84c0-45.056 36.864-81.92 81.92-81.92h549.888c43.008-38.4 97.792-59.904 156.16-59.904 129.024 0 234.496 104.96 234.496 233.984 0 60.416-22.528 117.248-63.488 160.768zM786.944 879.616h91.136c22.528 0 40.96-18.432 40.96-40.96v-47.616h-132.096v88.576zM786.944 750.080h132.096v-91.648h-132.096v91.648zM786.944 617.984h132.096v-91.648h-132.096v91.648zM786.944 485.376h132.096v-98.816c0 0-0.512 0.512-0.512 0.512-2.048 1.536-4.096 2.56-6.656 4.096s-5.12 3.072-8.192 4.608c-4.608 2.56-9.728 5.12-14.336 7.68-2.56 1.024-5.12 2.56-7.68 3.584s-5.12 2.048-8.192 3.072c-2.56 1.024-5.12 2.048-8.192 3.072-2.56 1.024-5.632 1.536-8.192 2.56s-5.632 1.536-8.192 2.56c-2.56 0.512-5.632 1.536-8.192 2.048s-5.632 1.024-8.192 1.536c-2.56 0.512-5.632 1.024-8.704 1.536 0 0 0 0 0 0-2.56 0.512-5.12 0.512-7.68 1.024-3.584 0.512-6.656 0.512-10.24 1.024-2.56 0-5.12 0.512-8.192 0.512 0 0 0 0 0 0-3.072 0-5.632 0-8.704 0h-2.56v59.392zM41.984 838.656c0 22.528 18.432 40.96 40.96 40.96h107.008c0-1.024-0.512-2.048-0.512-3.584v-115.712h-147.456v78.336zM41.984 719.36h147.968v-91.648h-147.968v91.648zM41.984 586.752h147.968v-91.648h-147.968v91.648zM41.984 454.144h147.968v-91.648h-147.968v91.648zM41.984 322.048h147.968v-91.648h-147.968v91.648zM82.944 57.856c-22.528 0-40.96 18.432-40.96 40.96v91.136h147.968v-129.024c0-1.024 0-2.048 0-2.56h-107.008zM230.4 57.856c0 1.024 0 1.536 0 2.56v815.616c0 1.024 0 2.56-0.512 3.584h515.072v-458.24c-108.544-20.48-190.976-115.712-190.976-230.4 0-2.56 0-5.12 0-8.192 0-3.584 0.512-7.168 0.512-10.752 0-2.56 0.512-5.632 1.024-8.192 0.512-3.072 0.512-5.632 1.024-8.704 0.512-2.56 0.512-4.608 1.024-7.168 0-1.024 0.512-2.56 0.512-3.584 0-1.536 0.512-3.072 1.024-4.608 0-1.024 0.512-1.536 0.512-2.56 0.512-1.536 0.512-3.072 1.024-4.096 0.512-2.048 1.024-3.584 1.536-5.632 0.512-2.56 1.536-4.608 2.048-7.168 0 0 0-0.512 0-0.512 1.024-3.072 2.048-5.632 3.072-8.192s2.048-5.632 3.072-8.192c1.024-2.56 2.048-5.632 3.584-8.192 1.024-2.56 2.048-5.12 3.584-7.168 0-0.512 0-0.512 0.512-0.512 1.536-2.56 2.56-5.12 4.096-7.68 0 0 0-0.512 0-0.512 1.536-2.56 2.56-5.12 4.096-7.68s3.072-5.12 4.608-7.68c1.536-2.56 3.072-5.12 5.12-7.168h-365.568zM788.992-2.048c-50.176 0-97.792 18.944-133.632 53.76-38.4 36.864-59.392 86.016-59.392 139.264 0 106.496 86.528 193.024 193.024 193.024 51.2 0 99.328-19.968 135.68-55.808 36.864-36.864 57.344-85.504 57.344-137.216 0.512-106.496-86.016-193.024-193.024-193.024zM535.040 406.528c0 0-0.512 0-0.512 0-5.632 0-10.752 2.56-14.336 6.656l-109.056 116.224-85.504-86.016c-8.192-8.192-20.992-8.192-29.184 0s-8.192 20.992 0 29.184l100.352 100.864c4.096 4.096 9.216 6.144 14.848 6.144s10.752-2.56 14.848-6.656l109.056-117.248 47.616 44.544c7.168 6.656 18.944 7.168 26.624 1.024l55.808-44.032c8.704-7.168 10.24-19.968 3.584-28.672-7.168-8.704-19.968-10.24-28.672-3.584l-41.984 33.28-49.664-46.080c-4.096-4.096-8.704-5.632-13.824-5.632zM562.688 531.968c-27.648 0-49.664 22.528-49.664 49.664s22.528 49.664 49.664 49.664 49.664-22.528 49.664-49.664-22.016-49.664-49.664-49.664zM562.688 590.848c-5.12 0-8.704-4.096-8.704-8.704s4.096-8.704 8.704-8.704 8.704 4.096 8.704 8.704-3.584 8.704-8.704 8.704zM901.632 190.976c0-11.264-9.216-20.48-20.48-20.48h-71.168v-71.168c0-11.264-9.216-20.48-20.48-20.48s-20.48 9.216-20.48 20.48v71.168h-71.168c-11.264 0-20.48 9.216-20.48 20.48s9.216 20.48 20.48 20.48h71.168v71.168c0 11.264 9.216 20.48 20.48 20.48s20.48-9.216 20.48-20.48v-71.168h71.168c11.264 0 20.48-8.704 20.48-20.48z" />
<glyph unicode="&#xe901;" glyph-name="adjust" d="M999.936 224.768h-5.12c-9.728 60.416-62.464 106.496-125.44 106.496s-115.712-46.080-125.44-106.496h-719.36c-11.264 0-20.48-9.216-20.48-20.48s9.216-20.48 20.48-20.48h719.36c9.728-60.416 62.464-106.496 125.44-106.496s115.712 46.080 125.44 106.496h5.12c11.264 0 20.48 9.216 20.48 20.48s-9.216 20.48-20.48 20.48zM868.864 118.272c-47.616 0-86.016 38.4-86.016 86.016s38.4 86.016 86.016 86.016c47.616 0 86.016-38.4 86.016-86.016 0.512-47.616-38.4-86.016-86.016-86.016zM999.936 468.48h-362.496c-9.728 60.416-62.464 106.496-125.44 106.496s-115.712-46.080-125.44-106.496h-361.984c-11.264 0-20.48-9.216-20.48-20.48s9.216-20.48 20.48-20.48h362.496c9.728-60.416 62.464-106.496 125.44-106.496s115.712 46.080 125.44 106.496h362.496c11.264 0 20.48 9.216 20.48 20.48-0.512 11.264-9.728 20.48-20.992 20.48zM512 361.984c-47.616 0-86.016 38.4-86.016 86.016s38.4 86.016 86.016 86.016 86.016-38.4 86.016-86.016c0-47.616-38.4-86.016-86.016-86.016zM999.936 712.192h-721.408c-9.728 60.416-62.464 106.496-125.44 106.496s-115.712-46.080-125.44-106.496h-3.072c-11.264 0-20.48-9.216-20.48-20.48s9.216-20.48 20.48-20.48h3.072c9.728-60.416 62.464-106.496 125.44-106.496s115.712 46.080 125.44 106.496h721.408c11.264 0 20.48 9.216 20.48 20.48s-9.216 20.48-20.48 20.48zM153.088 605.696c-47.616 0-86.016 38.4-86.016 86.016s38.4 86.016 86.016 86.016c47.616 0 86.016-38.4 86.016-86.016 0-47.104-38.4-86.016-86.016-86.016z" />
<glyph unicode="&#xe902;" glyph-name="agency" d="M943.616 773.12c-8.192 0-15.872 5.12-18.944 13.312-4.096 10.752 1.024 22.528 11.776 26.624l57.856 22.528c10.752 4.096 22.528-1.024 26.624-11.776s-1.024-22.528-11.776-26.624l-57.856-22.528c-2.56-1.024-5.12-1.536-7.68-1.536zM1003.52 434.176h-62.464c-11.264 0-20.48 9.216-20.48 20.48s9.216 20.48 20.48 20.48h62.464c11.264 0 20.48-9.216 20.48-20.48s-9.216-20.48-20.48-20.48zM999.424 99.84c-2.048 0-4.096 0.512-6.144 1.024l-54.272 17.408c-10.752 3.584-16.896 14.848-13.312 25.6s14.848 16.896 25.6 13.312l54.272-17.408c10.752-3.584 16.896-14.848 13.312-25.6-2.56-8.704-10.752-14.336-19.456-14.336zM882.688 825.344c-18.432 13.312-40.96 16.384-61.952 9.216l-498.688-170.496c-10.24-3.584-18.944-9.216-26.624-16.384-7.68 7.168-16.896 12.8-27.648 15.872l-78.336 24.064c-20.992 6.656-43.008 2.56-60.416-10.24-10.752-7.68-18.432-18.432-23.040-29.696-8.704 4.608-18.944 7.168-29.696 7.168h-5.12c-36.352-1.024-66.048-30.208-66.048-66.56v-199.168c0-36.352 29.696-66.048 65.536-66.048h5.12c9.728 0 19.456 2.048 27.648 6.144 4.096-13.312 12.288-25.088 23.552-34.304 10.752-8.704 24.064-13.312 37.376-14.336l58.368-217.088c7.168-27.136 31.744-44.544 58.368-44.544 5.12 0 10.752 0.512 15.872 2.048l4.608 1.024c15.36 4.096 28.672 14.336 36.864 28.16s10.24 30.208 6.144 46.080l-57.856 217.6c2.56 1.536 5.12 3.584 7.68 6.144 6.656-7.168 15.36-13.312 25.088-16.896l498.688-199.168c8.192-3.072 16.896-5.12 25.6-5.12 13.312 0 27.136 4.096 38.4 11.776 18.944 12.8 30.208 33.792 30.208 56.832v602.112c-1.024 22.528-11.264 42.496-29.696 55.808zM100.864 389.12c0-13.824-11.264-25.088-24.576-25.088h-5.12c-13.824 0-24.576 11.264-24.576 25.088v199.168c0 13.824 11.264 24.576 24.576 24.576h5.12c13.824 0 24.576-11.264 24.576-24.576v-199.168zM152.576 328.192c-6.656 5.12-10.752 13.312-10.752 22.016v271.872c0 8.704 4.096 16.896 11.264 22.016 4.608 3.584 10.752 5.632 16.384 5.632 2.56 0 5.632-0.512 8.192-1.024l78.848-24.064c11.776-3.584 19.456-14.336 19.456-26.112v-227.328c0-12.288-8.192-23.552-20.48-26.624l-78.848-20.992c-8.192-2.56-16.896-1.024-24.064 4.608zM305.664 86.528c1.536-5.12 0.512-10.24-2.048-14.848s-6.656-7.68-11.776-9.216l-4.608-1.024c-10.24-2.56-20.992 3.584-24.064 13.824l-57.344 212.48 42.496 11.264 57.344-212.48zM870.4 167.424c0-9.216-4.608-17.408-12.288-22.528s-16.896-6.144-25.6-2.56l-498.176 198.144c-10.24 4.096-17.408 14.336-17.408 25.6v232.96c0 11.776 7.68 22.016 18.432 26.112l498.688 170.496c3.072 1.024 6.144 1.536 9.216 1.536 5.632 0 11.264-1.536 15.872-5.12 7.168-5.12 11.776-13.312 11.776-22.528v-602.112zM834.56 449.536c0-30.208-22.528-60.928-72.192-60.928-18.432 0-39.936 5.12-51.2 13.312l-4.608 3.072 10.752 34.816 8.704-5.12c11.264-6.656 25.6-10.752 38.912-10.752 19.456 0 30.72 8.704 30.72 23.552 0 11.776-4.608 19.968-29.696 29.696-35.84 12.8-53.76 32.256-53.76 59.392 0 33.28 28.16 57.856 67.584 57.856 23.552 0 37.888-6.144 44.544-10.24l5.632-3.072-11.776-34.304-8.192 4.608c-6.656 3.584-17.408 7.68-31.232 7.68-19.968 0-27.136-10.752-27.136-19.968 0-10.752 4.608-17.92 31.744-28.16 24.576-10.24 51.2-25.088 51.2-61.44zM672.768 567.808c-17.92 16.896-44.032 25.088-79.872 25.088-16.896 0-34.816-1.536-51.712-4.096l-6.656-1.024v-195.072l6.656-1.024c12.8-1.536 28.16-2.048 44.032-2.048 37.888 0 68.096 9.728 87.040 28.672 18.944 18.432 28.672 45.568 28.672 77.312 0 30.72-9.216 54.784-28.16 72.192zM589.824 424.448c-4.608 0-11.264 0-16.384 0.512v132.096c5.12 0.512 11.776 1.024 20.48 1.024 22.528 0 39.936-5.632 51.2-17.408 10.752-10.752 15.872-26.112 15.872-46.080 0-46.080-24.576-70.144-71.168-70.144zM457.216 591.36h-39.936l-68.096-200.192h40.96l19.456 58.368h54.272l19.456-57.856h41.984l-68.096 199.68zM419.84 483.328l14.848 43.52c1.024 2.56 1.536 5.12 2.56 7.68 1.024-2.56 1.536-5.12 2.56-7.68l14.336-43.008h-34.304z" />
<glyph unicode="&#xe903;" glyph-name="album2" d="M692.224 422.4c-60.416 0-110.080 49.152-110.080 110.080s49.664 110.080 110.080 110.080 110.080-49.152 110.080-110.080-49.152-110.080-110.080-110.080zM692.224 595.968c-35.328 0-63.488-28.672-63.488-63.488s28.672-63.488 63.488-63.488 63.488 28.672 63.488 63.488-28.16 63.488-63.488 63.488zM912.896 808.96h-45.568v38.4c0 60.928-49.152 110.080-110.080 110.080h-646.144c-60.416 0-110.080-49.152-110.080-110.080v-652.8c0-60.928 49.152-110.080 110.080-110.080h45.568v-38.4c0-60.416 49.152-110.080 110.080-110.080h646.144c60.416 0 110.080 49.664 110.080 110.080v652.8c0 60.928-49.152 110.080-110.080 110.080zM912.896 762.88c35.328 0 64-28.672 64-64v-467.456l-136.192 96.768c-19.968 14.336-47.104 14.336-66.56-0.512l-118.784-87.552c-9.216-6.656-21.504-5.632-29.696 2.56l-178.176 181.76c-21.504 22.016-55.296 25.088-80.384 7.168l-163.84-114.176v381.44c0 35.328 28.672 64 64 64h645.632zM157.184 698.88v-568.32h-45.568c-35.328 0-64 28.672-64 64v652.8c0 35.328 28.672 64 64 64h646.144c35.328 0 64-28.672 64-64v-38.4h-554.496c-60.928 0-110.080-49.152-110.080-110.080zM976.896 46.080c0-35.328-28.672-64-64-64h-645.632c-35.328 0-64 28.672-64 64v220.672l186.88 131.072c8.704 6.144 20.48 5.12 27.648-2.56l178.176-181.76c22.016-22.528 57.856-25.088 82.944-6.656l118.784 87.552c5.632 4.096 13.312 4.096 18.944 0l159.744-113.664v-134.656z" />
<glyph unicode="&#xe904;" glyph-name="amar-o-argham" d="M941.056 829.44h-858.112c-45.056 0-81.92-36.864-81.92-81.92v-504.832c0-45.056 36.864-81.92 81.92-81.92h292.352v-74.24h-43.008c-11.264 0-20.48-9.216-20.48-20.48s9.216-20.48 20.48-20.48h359.424c11.264 0 20.48 9.216 20.48 20.48s-9.216 20.48-20.48 20.48h-43.008v74.24h292.352c45.056 0 81.92 36.864 81.92 81.92v504.832c0 45.056-36.352 81.92-81.92 81.92zM607.744 86.016h-191.488v74.24h191.488v-74.24zM982.016 242.176c0-22.528-18.432-40.96-40.96-40.96h-858.112c-22.528 0-40.96 18.432-40.96 40.96v505.344c0 22.528 18.432 40.96 40.96 40.96h858.624c22.528 0 40.96-18.432 40.96-40.96v-505.344zM875.52 648.192c0-26.112-21.504-47.616-47.616-47.616-5.632 0-11.264 1.024-16.384 2.56l-165.376-206.336c4.096-6.656 6.144-14.336 6.144-22.528 0-24.064-19.456-44.032-44.032-44.032-24.064 0-44.032 19.456-44.032 44.032 0 3.584 0.512 7.168 1.536 10.752l-192 133.632c-7.68-4.608-16.384-7.68-26.112-7.68-5.632 0-10.752 1.024-15.36 2.56l-105.984-128.512c1.024-3.072 1.536-6.656 1.536-9.728 0-19.456-15.872-35.328-35.328-35.328s-35.328 15.872-35.328 35.328c0 19.456 15.872 35.328 35.328 35.328 4.608 0 8.704-1.024 12.8-2.56l102.4 124.416c-5.12 7.68-8.192 16.896-8.192 27.136 0 26.624 21.504 48.128 48.128 48.128s48.128-21.504 48.128-48.128c0-5.632-1.024-11.264-3.072-16.384l189.952-132.096c7.168 5.12 15.872 7.68 25.088 7.68 4.608 0 9.728-0.512 13.824-2.048l165.888 206.336c-4.608 7.168-7.68 15.872-7.68 25.6 0 26.112 21.504 47.616 47.616 47.616 27.136-1.024 48.128-22.016 48.128-48.128z" />
<glyph unicode="&#xe905;" glyph-name="analyze" d="M903.68 906.24c-57.856 0-104.96-47.104-104.96-104.96 0-17.408 4.608-34.304 12.288-48.64l-125.952-104.96c-13.312 10.24-30.208 16.896-48.64 16.896-20.48 0-39.424-7.68-53.76-20.48l-155.136 63.488c1.024 4.608 1.536 9.216 1.536 13.824 0 36.352-29.184 65.536-65.536 65.536s-65.536-29.184-65.536-65.536c0-5.12 0.512-10.752 2.048-15.872l-129.536-119.296c-16.384 16.384-38.4 26.112-61.952 26.112-48.128 0-87.040-38.912-87.040-87.040s39.424-87.040 87.040-87.040c48.128 0 87.040 38.912 87.040 87.040 0 8.704-1.536 16.896-3.584 25.088l130.56 120.32c11.264-9.216 25.6-14.848 41.472-14.848 16.384 0 31.744 6.144 43.008 16.384l152.576-64c-2.56-7.68-3.584-15.36-3.584-24.064 0-44.032 35.84-79.872 79.872-79.872s79.872 35.84 79.872 79.872c0 10.752-2.048 20.992-6.144 30.72l126.976 105.472c18.432-15.36 41.984-24.576 67.584-24.576 57.856 0 104.96 47.104 104.96 105.472-0.512 57.344-47.616 104.96-105.472 104.96zM108.544 478.72c-25.6 0-46.080 20.992-46.080 46.080 0 25.6 20.992 46.080 46.080 46.080 17.408 0 33.28-9.728 40.96-25.088 3.584-6.656 5.12-13.824 5.12-21.504 0-25.088-20.48-45.568-46.080-45.568zM363.52 696.32c-13.824 0-24.576 10.752-24.576 24.576 0 13.312 11.264 24.576 24.576 24.576s24.576-11.264 24.576-24.576c0-13.312-10.752-24.576-24.576-24.576zM635.392 545.28c-21.504 0-38.912 17.408-38.912 38.912s17.408 38.912 38.912 38.912c21.504 0 38.912-17.408 38.912-38.912s-17.408-38.912-38.912-38.912zM903.68 736.256c-35.328 0-64 28.672-64 64.512 0 35.328 28.672 64 64 64s64-28.672 64-64c0-35.328-28.672-64.512-64-64.512zM96.768-9.728c-45.056 0-81.408 36.352-81.408 81.408v160.768c0 45.056 36.352 81.408 81.408 81.408s81.408-36.352 81.408-81.408v-160.768c0-45.056-36.352-81.408-81.408-81.408zM96.768 272.896c-22.528 0-40.448-18.432-40.448-40.448v-160.768c0-22.528 18.432-40.448 40.448-40.448 22.528 0 40.448 18.432 40.448 40.448v160.768c0 22.016-17.92 40.448-40.448 40.448zM373.76-9.728c-45.056 0-81.408 36.352-81.408 81.408v308.224c0 45.056 36.352 81.408 81.408 81.408s81.408-36.352 81.408-81.408v-308.224c0-45.056-36.352-81.408-81.408-81.408zM373.76 420.352c-22.528 0-40.448-18.432-40.448-40.448v-308.224c0-22.528 18.432-40.448 40.448-40.448s40.448 18.432 40.448 40.448v308.224c0 22.016-18.432 40.448-40.448 40.448zM650.24-9.728c-45.056 0-81.408 36.352-81.408 81.408v232.448c0 45.056 36.352 81.408 81.408 81.408s81.408-36.352 81.408-81.408v-232.448c0-45.056-36.352-81.408-81.408-81.408zM650.24 344.576c-22.528 0-40.448-18.432-40.448-40.448v-232.448c0-22.528 18.432-40.448 40.448-40.448s40.448 18.432 40.448 40.448v232.448c0 22.016-17.92 40.448-40.448 40.448zM927.232-9.728c-45.056 0-81.408 36.352-81.408 81.408v366.080c0 45.056 36.352 81.408 81.408 81.408s81.408-36.352 81.408-81.408v-366.080c0-45.056-36.352-81.408-81.408-81.408zM927.232 478.208c-22.528 0-40.448-18.432-40.448-40.448v-366.080c0-22.528 18.432-40.448 40.448-40.448s40.448 18.432 40.448 40.448v366.080c0 22.528-18.432 40.448-40.448 40.448z" />
<glyph unicode="&#xe906;" glyph-name="archive" d="M825.856 637.44c-47.104 0-85.504 38.4-85.504 85.504s38.4 85.504 85.504 85.504 85.504-38.912 85.504-86.016-38.4-84.992-85.504-84.992zM825.856 766.976c-24.576 0-44.544-19.968-44.544-44.544s19.968-44.544 44.544-44.544 44.544 19.968 44.544 44.544-19.968 44.544-44.544 44.544zM510.464 637.44c-47.104 0-85.504 37.888-85.504 84.992s38.4 85.504 85.504 85.504c47.104 0 85.504-38.4 85.504-85.504s-38.4-84.992-85.504-84.992zM510.464 766.976c-24.576 0-44.544-19.968-44.544-44.544s19.968-44.544 44.544-44.544c24.576 0 44.544 19.968 44.544 44.544s-20.48 44.544-44.544 44.544zM215.040 637.44c-47.104 0-85.504 38.4-85.504 85.504s38.4 84.992 85.504 84.992 85.504-38.4 85.504-85.504-38.4-84.992-85.504-84.992zM215.040 766.976c-24.576 0-44.544-19.968-44.544-44.544s20.48-44.032 44.544-44.032 44.544 19.968 44.544 44.544-19.968 44.032-44.544 44.032zM271.872 27.136h-120.32c-45.056 0-81.92 36.864-81.92 81.92v50.688c0 45.056 36.864 81.92 81.92 81.92h120.32c45.056 0 81.92-36.864 81.92-81.92v-50.688c0-45.056-36.864-81.92-81.92-81.92zM151.552 200.704c-22.528 0-40.96-18.432-40.96-40.96v-50.688c0-22.528 18.432-40.96 40.96-40.96h120.32c22.528 0 40.96 18.432 40.96 40.96v50.688c0 22.528-18.432 40.96-40.96 40.96h-120.32zM999.936 161.28l-6.656 2.048v714.24c0 45.056-36.864 81.92-81.92 81.92h-181.76c-25.088 0-47.616-11.264-62.464-29.184-14.848 17.92-37.376 29.184-61.952 29.184h-180.224c-24.064 0-46.080-10.752-60.928-27.648-14.848 16.896-36.864 27.648-61.44 27.648h-181.76c-45.056 0-81.92-36.864-81.92-81.92v-327.68h-2.56c-19.456 0-35.328-16.384-35.328-36.352v-540.16c0-19.968 15.872-36.352 35.84-36.352h952.32c19.968 0 35.84 16.384 35.84 36.352v153.6c-0.512 15.36-10.24 29.696-25.088 34.304zM688.64 877.568c0 1.024 0 1.536 0 2.56 1.536 21.504 19.456 38.4 40.96 38.4h181.76c22.528 0 40.96-18.432 40.96-40.96v-695.808l-263.68 86.528v609.28zM419.84 349.184l-35.328 11.776v516.608c0 22.528 17.92 40.96 40.448 40.96h180.224c21.504 0 38.912-16.896 40.448-38.4 0-1.024 0-1.536 0-2.56v-598.528l-69.12 24.576-156.672 45.568zM273.408 548.352l-195.072-1.536 1.536 330.24c0 22.528 18.432 40.96 40.96 40.96h181.76c22.528 0 40.96-18.432 40.96-40.96l1.024-328.704h-71.168zM983.552-22.528h-941.568v531.456l301.568 2.048v-153.088c0-6.656 1.536-12.8 5.12-18.432 0 0 0 0 0 0 4.608-7.68 11.264-13.312 19.968-16.384l615.424-199.68v-145.92z" />
<glyph unicode="&#xe907;" glyph-name="Calendar" d="M921.6 778.24h-34.816v56.32c0 14.336-11.264 25.6-25.6 25.6s-25.6-11.264-25.6-25.6v-56.32h-120.32v56.32c0 14.336-11.264 25.6-25.6 25.6s-25.6-11.264-25.6-25.6v-56.32h-119.808v56.32c0 14.336-11.264 25.6-25.6 25.6s-25.6-11.264-25.6-25.6v-56.32h-119.808v56.32c0 14.336-11.264 25.6-25.6 25.6s-25.6-11.264-25.6-25.6v-56.32h-120.32v56.32c0 14.336-11.264 25.6-25.6 25.6s-25.6-11.264-25.6-25.6v-56.32h-48.128c-56.32 0-102.4-46.080-102.4-102.4v-537.6c0-56.32 46.080-102.4 102.4-102.4h819.2c56.32 0 102.4 46.080 102.4 102.4v537.6c0 56.32-46.080 102.4-102.4 102.4zM51.2 675.84c0 28.16 23.040 51.2 51.2 51.2h48.128v-29.184c0-14.336 11.264-25.6 25.6-25.6s25.6 11.264 25.6 25.6v29.184h120.32v-29.184c0-14.336 11.264-25.6 25.6-25.6s25.6 11.264 25.6 25.6v29.184h120.32v-29.184c0-14.336 11.264-25.6 25.6-25.6s25.6 11.264 25.6 25.6v29.184h119.808v-29.184c0-14.336 11.264-25.6 25.6-25.6s25.6 11.264 25.6 25.6v29.184h120.32v-29.184c0-14.336 11.264-25.6 25.6-25.6s25.6 11.264 25.6 25.6v29.184h34.816c28.16 0 51.2-23.040 51.2-51.2v-67.072h-922.112v67.072zM972.8 138.24c0-28.16-23.040-51.2-51.2-51.2h-819.2c-28.16 0-51.2 23.040-51.2 51.2v419.328h921.6v-419.328zM251.904 369.664c-2.56 0-5.12 0-7.168 0.512-19.968 3.072-36.352 19.456-39.424 39.424-2.56 14.848 2.56 29.696 13.312 40.448s25.6 15.36 40.448 13.312c19.968-3.072 36.352-18.944 39.424-39.424 0 0 0 0 0 0 2.56-14.848-2.56-29.696-13.312-40.448-9.216-8.704-20.992-13.824-33.28-13.824zM255.488 417.792l-8.192-1.024c0.512-2.048 1.536-3.584 3.584-3.584 1.024 0 2.56 0 3.584 1.024 1.024 0.512 1.536 2.048 1.024 3.584 0.512-0.512 0.512 0 0 0zM251.904 420.864c-1.024 0-2.048-0.512-3.072-1.024-1.024-1.024-1.536-2.56-1.024-3.584l8.192 1.024c-0.512 2.048-2.048 3.584-4.096 3.584 0 0 0 0 0 0zM428.544 369.664c-2.56 0-5.12 0-7.168 0.512-19.968 3.072-36.352 19.456-39.424 39.424-2.56 14.848 2.56 29.696 13.312 40.448s25.6 15.36 40.448 13.312c19.968-3.072 36.352-18.944 39.424-39.424v0c2.56-14.848-2.56-29.696-13.312-40.448-8.704-8.704-20.48-13.824-33.28-13.824zM424.448 416.256c0.512-2.048 1.536-3.584 3.584-3.584 1.024 0 2.56 0 3.584 1.024s1.536 2.56 1.024 3.584c-0.512 2.048-1.536 3.584-3.584 3.584-1.024 0-2.56 0-3.584-1.024-0.512-1.024-1.024-2.56-1.024-3.584zM424.448 416.256v0 0zM605.696 369.664c-2.56 0-5.12 0-7.168 0.512-19.968 3.072-36.352 19.456-39.424 39.424-2.56 14.848 2.56 29.696 13.312 40.448s25.6 15.36 40.448 13.312c19.968-3.072 36.352-18.944 39.424-39.424v0c0 0 0 0 0 0s0 0 0 0c2.56-14.848-2.56-29.696-13.312-40.448-9.216-8.704-20.992-13.824-33.28-13.824zM601.6 416.256c0.512-2.048 1.536-3.584 3.584-3.584 1.024 0 2.56 0 3.584 1.024s1.536 2.56 1.024 3.584c-0.512 2.048-1.536 3.584-3.584 3.584-1.024 0-2.56 0-3.584-1.024s-1.024-2.56-1.024-3.584zM601.6 416.256v0 0zM782.848 369.664c-2.56 0-5.12 0-7.168 0.512-19.968 3.072-36.352 19.456-39.424 39.424-2.56 14.848 2.56 29.696 13.312 40.448s25.6 15.36 40.448 13.312c19.968-3.072 36.352-18.944 39.424-39.424v0c2.56-14.848-2.56-29.696-13.312-40.448-9.216-8.704-20.992-13.824-33.28-13.824zM786.944 417.792l-8.192-1.024c0.512-2.048 1.536-3.584 3.584-3.584 1.024 0 2.56 0 3.584 1.024 0.512 0.512 1.024 2.048 1.024 3.584 0-0.512 0 0 0 0zM782.848 420.864c-1.024 0-2.048-0.512-3.072-1.024-1.024-1.024-1.536-2.56-1.024-3.584l8.192 1.024c-0.512 2.048-2.048 3.584-4.096 3.584 0 0 0 0 0 0zM251.904 203.776c-2.56 0-5.12 0-7.168 0.512-19.968 3.072-36.352 18.944-39.424 39.424-2.56 14.848 2.56 29.696 13.312 40.448s25.6 15.36 40.448 13.312c19.968-3.072 36.352-19.456 39.424-39.424 0 0 0 0 0 0 2.56-14.848-2.56-29.696-13.312-40.448-9.216-8.704-20.992-13.824-33.28-13.824zM255.488 251.392l-8.192-1.024c0.512-2.048 1.536-3.584 3.584-3.584 1.024 0 2.56 0 3.584 1.024s1.536 2.56 1.024 3.584c0.512 0 0.512 0 0 0zM251.904 254.976c-1.024 0-2.048-0.512-3.072-1.024-1.024-1.024-1.536-2.56-1.024-3.584l8.192 1.024c-0.512 2.048-2.048 3.072-4.096 3.584 0 0 0 0 0 0zM428.544 203.776c-2.56 0-5.12 0-7.168 0.512-19.968 3.072-36.352 18.944-39.424 39.424-2.56 14.848 2.56 29.696 13.312 40.448s25.6 15.36 40.448 13.312c19.968-3.072 36.352-19.456 39.424-39.424 2.56-14.848-2.56-29.696-13.312-40.448-8.704-8.704-20.48-13.824-33.28-13.824zM424.448 250.368c0.512-2.048 1.536-3.584 3.584-3.584 1.024 0 2.56 0 3.584 1.024s1.536 2.56 1.024 3.584c-0.512 2.048-1.536 3.584-3.584 3.584-1.024 0-2.56 0-3.584-1.024-0.512-1.024-1.024-2.56-1.024-3.584v0zM605.696 203.776c-2.56 0-5.12 0-7.168 0.512-19.968 3.072-36.352 18.944-39.424 39.424-2.56 14.848 2.56 29.696 13.312 40.448s25.6 15.36 40.448 13.312c19.968-3.072 36.352-19.456 39.424-39.424 2.56-14.848-2.56-29.696-13.312-40.448-9.216-8.704-20.992-13.824-33.28-13.824zM601.6 250.368c0.512-2.048 1.536-3.584 3.584-3.584 1.024 0 2.56 0 3.584 1.024s1.536 2.56 1.024 3.584c-0.512 2.048-1.536 3.584-3.584 3.584-1.024 0-2.56 0-3.584-1.024s-1.024-2.56-1.024-3.584zM601.6 250.368v0 0zM601.6 250.368c0 0 0 0 0 0s0 0 0 0zM782.848 203.776c-2.56 0-5.12 0-7.168 0.512-19.968 3.072-36.352 18.944-39.424 39.424-2.56 14.848 2.56 29.696 13.312 40.448s25.6 15.36 40.448 13.312c19.968-3.072 36.352-19.456 39.424-39.424 0 0 0 0 0 0 2.56-14.848-2.56-29.696-13.312-40.448-9.216-8.704-20.992-13.824-33.28-13.824zM786.944 251.392l-8.192-1.024c0.512-2.048 1.536-3.584 3.584-3.584 1.024 0 2.56 0 3.584 1.024 0.512 1.024 1.024 2.56 1.024 3.584 0 0 0 0 0 0zM782.848 254.976c-1.024 0-2.048-0.512-3.072-1.024-1.024-1.024-1.536-2.56-1.024-3.584l8.192 1.024c-0.512 2.048-2.048 3.072-4.096 3.584 0 0 0 0 0 0z" />
<glyph unicode="&#xe908;" glyph-name="comment" d="M57.856-24.064c-5.632 0-10.752 2.048-14.848 6.656-6.144 6.656-7.168 16.384-3.072 24.064l100.864 181.76c-90.624 80.896-140.288 186.368-140.288 298.496 0 238.592 229.376 433.152 511.488 433.152s511.488-194.56 511.488-433.152c0-239.104-229.376-433.664-511.488-433.664-73.216 0-143.36 12.8-208.896 37.888l-236.544-113.152c-2.56-1.024-5.632-2.048-8.704-2.048zM512 879.104c-259.584 0-470.528-176.128-470.528-392.192 0-104.96 49.152-203.264 138.24-278.016 7.68-6.144 9.728-16.896 4.608-25.6l-77.824-140.288 186.368 89.088c5.12 2.56 11.264 2.56 16.384 0.512 63.488-25.6 131.584-38.4 202.24-38.4 259.584 0 470.528 176.128 470.528 392.704 0.512 216.064-210.432 392.192-470.016 392.192z" />
<glyph unicode="&#xe909;" glyph-name="company" d="M647.168 792.576c-1.536-1.024-3.072-2.048-4.608-2.56l5.12 2.56h-0.512zM647.168 792.576c-1.536-1.024-3.072-2.048-4.608-2.56l5.12 2.56h-0.512zM647.168 792.576c-1.536-1.024-3.072-2.048-4.608-2.56l5.12 2.56h-0.512zM647.168 792.576c-1.536-1.024-3.072-2.048-4.608-2.56l5.12 2.56h-0.512zM647.168 792.576c-1.536-1.024-3.072-2.048-4.608-2.56l5.12 2.56h-0.512zM647.168 792.576c-1.536-1.024-3.072-2.048-4.608-2.56l5.12 2.56h-0.512zM494.592 501.248h-28.16c-9.728 0-17.408 7.68-17.408 17.408v29.696c0 9.728 7.68 17.408 17.408 17.408h28.16c9.728 0 17.408-7.68 17.408-17.408v-29.696c0-9.728-7.68-17.408-17.408-17.408zM657.92 501.248h-28.16c-9.728 0-17.408 7.68-17.408 17.408v29.696c0 9.728 7.68 17.408 17.408 17.408h28.16c9.728 0 17.408-7.68 17.408-17.408v-29.696c0-9.728-7.68-17.408-17.408-17.408zM821.248 501.248h-28.16c-9.728 0-17.408 7.68-17.408 17.408v29.696c0 9.728 7.68 17.408 17.408 17.408h28.16c9.728 0 17.408-7.68 17.408-17.408v-29.696c0-9.728-7.68-17.408-17.408-17.408zM275.968 837.12v0c-12.8 0-23.040 10.24-23.040 23.040v0c0 12.8 10.24 23.040 23.040 23.040v0c12.8 0 23.040-10.24 23.040-23.040v0c0-12.8-10.24-23.040-23.040-23.040zM275.968 740.864v0c-12.8 0-23.040 10.24-23.040 23.040v0c0 12.8 10.24 23.040 23.040 23.040v0c12.8 0 23.040-10.24 23.040-23.040v0c0-12.288-10.24-23.040-23.040-23.040zM411.648 837.12v0c-12.8 0-23.040 10.24-23.040 23.040v0c0 12.8 10.24 23.040 23.040 23.040v0c12.8 0 23.040-10.24 23.040-23.040v0c0-12.8-10.24-23.040-23.040-23.040zM542.208 837.12v0c-12.8 0-23.040 10.24-23.040 23.040v0c0 12.8 10.24 23.040 23.040 23.040v0c12.8 0 23.040-10.24 23.040-23.040v0c0-12.8-10.24-23.040-23.040-23.040zM411.648 740.864v0c-12.8 0-23.040 10.24-23.040 23.040v0c0 12.8 10.24 23.040 23.040 23.040v0c12.8 0 23.040-10.24 23.040-23.040v0c0-12.288-10.24-23.040-23.040-23.040zM275.968 645.12v0c-12.8 0-23.040 10.24-23.040 23.040v0c0 12.8 10.24 23.040 23.040 23.040v0c12.8 0 23.040-10.24 23.040-23.040v0c0-12.8-10.24-23.040-23.040-23.040zM895.488 952.832c-11.776 7.168-26.624 7.168-38.4 0.512l-193.536-105.984v66.048c0 21.504-17.408 38.912-38.912 38.912h-408.064c-21.504 0-38.912-17.408-38.912-38.912v-306.176l-14.848 7.168c-12.288 5.632-26.112 5.12-37.376-2.048s-17.92-19.456-17.92-32.768v-604.16c0-21.504 17.408-38.912 38.912-38.912h531.456c6.656 0 13.312 1.536 18.432 4.608 5.632-3.072 11.776-4.608 18.432-4.608h160.768c21.504 0 38.912 17.408 38.912 38.912v944.128c0 13.824-7.168 26.112-18.944 33.28zM218.624 911.872h403.456v-86.528l-148.48-80.896-1.536-0.512c0 0 0 0 0 0l-80.896-45.056c-12.288-6.656-20.48-19.968-20.48-34.304v-148.992l-152.064 72.192v324.096zM299.008-23.040v130.048h192v-130.048h-192zM675.328-23.040h-143.36v139.776c0 17.408-14.336 31.232-31.232 31.232h-211.456c-17.408 0-31.232-14.336-31.232-31.232v-139.776h-110.080v599.040l51.712-24.576 158.208-74.752 35.328-16.896 282.112-133.632v-349.184zM873.472-23.040h-157.184v351.232c0 14.848-8.704 28.672-22.528 35.328l-282.112 133.12v121.344h461.824v-641.024zM873.472 658.944h-461.824v4.608l76.8 41.984h385.024v-46.592zM873.472 746.496h-310.272l79.36 43.52c1.536 1.024 3.072 1.536 4.608 2.56h226.304v-46.080zM873.472 833.536h-150.528l150.528 82.432v-82.432zM313.344 415.232h-128c-11.264 0-20.48 9.216-20.48 20.48s9.216 20.48 20.48 20.48h128c11.264 0 20.48-9.216 20.48-20.48s-9.216-20.48-20.48-20.48zM444.928 347.136h-260.096c-11.264 0-20.48 9.216-20.48 20.48s9.216 20.48 20.48 20.48h260.096c11.264 0 20.48-9.216 20.48-20.48s-9.216-20.48-20.48-20.48zM603.136 273.92h-418.304c-11.264 0-20.48 9.216-20.48 20.48s9.216 20.48 20.48 20.48h417.792c11.264 0 20.48-9.216 20.48-20.48s-8.704-20.48-19.968-20.48z" />
<glyph unicode="&#xe90a;" glyph-name="content" d="M861.184-47.104c0 0-0.512 0-0.512 0l-735.232 3.584c-28.672 0-55.808 11.264-75.776 31.744-20.48 20.48-31.232 47.616-31.232 76.288l3.584 735.232c0 28.672 11.264 55.808 31.744 75.776s47.104 31.232 75.776 31.232c0 0 0.512 0 0.512 0l367.616-2.048c11.264 0 20.48-9.216 20.48-20.48s-9.216-20.48-20.48-20.48c0 0 0 0 0 0l-367.616 2.048c-17.92 0-34.816-6.656-47.104-19.456s-19.456-29.184-19.968-47.104l-3.584-735.232c0-17.92 6.656-34.816 19.456-47.104 12.288-12.8 29.184-19.456 47.104-19.968l735.232-3.584c0 0 0 0 0.512 0 17.92 0 34.304 6.656 47.104 19.456 12.8 12.288 19.456 29.184 19.968 47.104l2.048 367.616c0 11.264 9.216 20.48 20.48 20.48 0 0 0 0 0 0 11.264 0 20.48-9.216 20.48-20.48l-2.048-367.616c0-28.672-11.264-55.808-31.744-75.776-21.504-20.48-48.128-31.232-76.8-31.232zM336.896 321.024v0 0zM979.968 742.912c-3.072 24.064-14.848 45.568-33.792 60.416l-122.368 95.232c-18.944 14.848-42.496 21.504-66.56 18.432s-45.568-14.848-60.416-33.792l-67.072-85.504-0.512-0.512-330.24-419.84c0 0-0.512-0.512-0.512-0.512-0.512-0.512-1.024-1.024-1.536-2.048-0.512-0.512-1.024-1.536-1.536-2.56 0 0 0 0 0 0-0.512-1.024-0.512-1.536-1.024-2.56v0c0-1.024-0.512-1.536-0.512-2.56s0-2.048 0-3.584v-0.512l4.608-216.064c0-5.632 2.56-11.264 7.168-15.36 3.584-3.072 8.192-4.608 13.312-4.608 1.024 0 2.048 0 3.072 0l227.328 34.304c0 0 0 0 0 0 0.512 0 1.024 0 1.536 0.512 0 0 0 0 0 0 0.512 0 1.536 0.512 2.048 0.512 1.024 0.512 2.56 1.024 3.584 1.536 0 0 0 0 0 0 0.512 0 1.024 0.512 1.024 0.512 0.512 0 1.024 0.512 1.024 1.024 0.512 0.512 0.512 0.512 1.024 1.024s1.024 1.024 2.048 2.048c0 0 0.512 0.512 0.512 0.512s0 0 0 0.512l330.24 420.352c0.512 0.512 1.024 1.024 1.536 1.536l66.56 84.48c15.36 19.456 22.016 43.008 19.456 67.072zM339.968 171.52l-3.072 150.016 109.056-86.016 51.2-39.936-157.184-24.064zM543.744 210.944l-22.528 17.92-176.64 138.752 305.152 388.096 199.168-156.672-305.152-388.096zM928.768 701.44l-55.296-70.144-199.168 156.672 54.784 70.144c8.192 10.24 19.968 16.896 32.768 18.432 13.312 1.536 26.112-2.048 36.352-10.24l122.368-95.744c10.24-8.192 16.896-19.968 18.432-32.768 1.536-13.312-2.048-26.112-10.24-36.352zM344.064 367.616v0 0zM159.232 670.208c-11.264 0-20.48 9.216-20.48 20.48s9.216 20.48 20.48 20.48l247.808 1.024c11.264 0.512 20.48-9.216 20.48-20.48s-9.216-20.48-20.48-20.48l-247.808-1.024c0 0 0 0 0 0zM160.256 499.712c-11.264 0-20.48 9.216-20.48 20.48s9.216 20.48 20.48 20.48l114.176 0.512c0 0 0 0 0 0 11.264 0 20.48-9.216 20.48-20.48s-9.216-20.48-20.48-20.48l-114.176-0.512c0 0 0 0 0 0z" />
<glyph unicode="&#xe90b;" glyph-name="CRM" d="M52.736-11.264c-4.096 0-8.192 1.024-11.776 3.584-7.68 5.12-10.752 14.848-7.68 23.552l33.28 98.816c-28.672 13.824-48.128 45.056-48.128 80.384v344.064c0 48.64 36.352 88.064 81.408 88.064h536.064c45.056 0 81.408-39.424 81.408-88.064v-343.552c0-48.64-36.352-88.064-81.408-88.064h-431.616l-138.24-113.664c-4.096-3.584-8.704-5.12-13.312-5.12zM99.328 586.24c-22.528 0-40.448-20.992-40.448-47.104v-343.552c0-23.552 15.872-44.032 35.84-46.592 6.144-1.024 11.264-4.096 14.848-9.216s4.096-11.776 2.048-17.408l-17.408-51.2 89.088 73.216c3.584 3.072 8.192 4.608 12.8 4.608h438.784c22.528 0 40.448 20.992 40.448 47.104v343.040c0 26.112-18.432 47.104-40.448 47.104h-535.552zM971.776 327.168c-4.096 0-8.704 1.536-12.288 4.096l-131.072 97.792h-30.72c-11.264 0-20.48 9.216-20.48 20.48s9.216 20.48 20.48 20.48h37.376c4.608 0 8.704-1.536 12.288-4.096l81.92-60.928-15.872 43.008c-2.048 5.632-1.536 12.288 2.048 17.92 3.072 5.12 8.704 8.704 14.848 9.728 19.968 2.56 34.816 19.456 34.816 40.448v309.248c0 22.528-17.92 40.448-39.424 40.448h-527.36c-22.016 0-39.424-18.432-39.424-40.448v-133.12c0-11.264-9.216-20.48-20.48-20.48s-20.48 9.216-20.48 20.48v133.12c0 45.056 36.352 81.408 80.384 81.408h526.848c44.544 0 80.384-36.352 80.384-81.408v-310.272c0-32.256-18.944-60.928-46.592-73.728l31.744-87.040c3.072-8.704 0-17.92-7.168-23.552-3.072-2.56-7.68-3.584-11.776-3.584zM845.824 733.184h-370.176c-8.704 0-15.36 6.656-15.36 15.36s6.656 15.36 15.36 15.36h370.176c8.704 0 15.36-6.656 15.36-15.36s-6.656-15.36-15.36-15.36zM233.984 311.808l7.68-30.208-5.632-2.56c-7.68-3.584-22.528-7.68-42.496-7.68-49.152 0-80.896 32.256-80.896 82.432s34.816 85.504 84.992 85.504c22.016 0 34.304-5.12 38.912-7.68l5.632-3.072-9.216-30.208-7.68 3.584c-4.096 2.048-13.312 5.632-26.624 5.632-31.232 0-50.176-19.968-50.176-53.248 0-32.768 17.92-51.712 49.152-51.712 10.24 0 20.992 2.048 27.648 5.12l8.704 4.096zM399.36 284.16c-3.072 5.12-7.168 23.552-10.752 38.4-2.56 12.288-7.68 21.504-14.336 27.648 12.8 8.704 20.48 22.528 20.48 38.912 0 13.824-5.12 25.6-14.336 33.792-10.752 9.728-25.6 13.824-48.128 13.824-13.824 0-28.16-1.024-38.4-3.072l-6.144-1.536v-159.744h34.304v64h10.24c12.288-0.512 18.432-4.096 22.528-22.528 5.12-22.528 8.192-32.768 10.752-37.376l2.048-4.096h36.864l-5.12 11.776zM360.448 387.072c0-12.8-9.728-20.48-25.6-20.48h-11.776v39.936c2.56 0 6.656 0.512 11.264 0.512 26.112 0 26.112-14.848 26.112-19.968zM570.368 345.088c-0.512 6.656-0.512 13.824-1.024 20.992-1.536-5.12-3.584-10.24-5.632-15.36l-28.16-76.8h-25.6l-25.6 75.776c-1.536 4.608-3.072 9.216-4.608 13.312-0.512-6.656-0.512-12.8-1.024-18.944l-4.608-70.656h-33.792l11.264 163.328h36.864l27.136-76.8c3.072-9.216 5.632-17.408 8.192-25.088 2.56 7.68 5.12 15.872 8.704 25.088l28.16 76.8h36.864l10.24-163.328h-34.304l-3.072 71.68z" />
<glyph unicode="&#xe90c;" glyph-name="crop" d="M1003.52 136.704h-160.256v630.272c0 11.264-9.216 20.48-20.48 20.48h-622.080v151.552c0 11.264-9.216 20.48-20.48 20.48s-20.48-9.216-20.48-20.48v-151.040h-137.216c-11.264 0-20.48-9.216-20.48-20.48s9.216-20.48 20.48-20.48h137.216v-630.272c0-1.536 0-3.072 0.512-4.608 0-0.512 0-1.024 0.512-1.536 0.512-1.024 1.024-2.56 1.536-3.584 0.512-0.512 0.512-1.024 1.024-1.536s1.024-1.024 1.024-1.536c0.512-0.512 1.024-1.024 1.536-1.536s1.024-1.024 1.536-1.536c0.512-0.512 1.024-1.024 1.536-1.024s1.024-0.512 1.536-1.024c1.024-0.512 2.048-1.024 3.584-1.536 0.512 0 1.024-0.512 1.536-0.512 1.536-0.512 3.072-0.512 4.608-0.512h622.080v-139.776c0-11.264 9.216-20.48 20.48-20.48s20.48 9.216 20.48 20.48v139.264h160.256c11.264 0 20.48 9.216 20.48 20.48s-9.216 20.48-20.48 20.48zM802.304 136.704h-572.416l489.472 489.472c8.192 8.192 8.192 20.992 0 29.184s-20.992 8.192-28.672 0l-489.472-489.472v580.608h601.6v-609.792zM887.808 801.28c-5.12 0-10.24 2.048-14.336 5.632-8.192 7.68-8.192 20.992-0.512 29.184l62.464 64c7.68 8.192 20.992 8.192 29.184 0.512s8.192-20.992 0.512-29.184l-62.464-64c-4.096-4.096-9.216-6.144-14.848-6.144z" />
<glyph unicode="&#xe90d;" glyph-name="del" d="M934.4 843.776h-182.272v20.992c0 52.736-43.008 95.744-95.744 95.744h-289.28c-52.736-0.512-95.232-43.52-95.232-96.256v-20.992h-182.272c-24.064 0-46.080-9.216-63.488-26.112-16.896-16.896-26.112-39.424-26.112-62.976 0-49.152 39.936-89.6 89.6-89.6h32.768v-686.592c0-23.040 18.944-41.984 41.984-41.984h692.736c23.040 0 41.984 18.944 41.984 41.984v686.592h35.84c24.064 0 46.080 9.216 63.488 26.112 16.896 16.896 26.112 39.424 26.112 63.488-0.512 49.152-40.448 89.6-90.112 89.6zM319.488 864.256c0 26.112 21.504 47.616 47.616 47.616h289.792c26.112 0 47.616-21.504 47.616-47.616v-20.992h-385.024v20.992zM850.944-16.384h-680.96v680.96h680.448v-680.96zM964.096 724.48c-8.192-8.192-18.432-12.288-29.696-12.288h-844.8c-23.040 0-41.984 18.944-41.984 41.984 0 11.264 4.608 21.504 12.288 29.696s18.432 12.288 29.696 12.288h844.8c23.040 0 41.984-18.944 41.984-41.984 0-11.264-4.608-21.504-12.288-29.696zM713.728 91.136c-13.312 0-24.064 10.752-24.064 24.064v386.048c0 13.312 10.752 24.064 24.064 24.064s24.064-10.752 24.064-24.064v-386.048c-0.512-13.312-11.264-24.064-24.064-24.064zM520.704 91.136c-13.312 0-24.064 10.752-24.064 24.064v386.048c0 13.312 10.752 24.064 24.064 24.064s24.064-10.752 24.064-24.064v-386.048c-0.512-13.312-11.264-24.064-24.064-24.064zM327.168 91.136c-13.312 0-24.064 10.752-24.064 24.064v386.048c0 13.312 10.752 24.064 24.064 24.064s24.064-10.752 24.064-24.064v-386.048c0-13.312-10.752-24.064-24.064-24.064z" />
<glyph unicode="&#xe90e;" glyph-name="down" d="M512.512 223.232c0 0 0 0 0 0-19.968 0-38.4 7.68-51.712 22.016-70.144 73.216-189.44 193.024-190.464 194.048-8.192 8.192-8.192 20.992 0 29.184s20.992 8.192 29.184 0c1.024-1.024 120.832-121.344 190.976-194.56 5.632-6.144 13.824-9.216 22.016-9.216 8.704 0 16.384 3.072 22.016 9.216l189.44 194.56c7.68 8.192 20.992 8.192 29.184 0.512s8.192-20.992 0.512-29.184l-189.44-194.56c-13.824-14.336-32.256-22.016-51.712-22.016z" />
<glyph unicode="&#xe90f;" glyph-name="edit-image" d="M984.576 958.976h-99.84c-19.968 0-35.84-15.872-35.84-35.84v-38.4h-55.296c-8.704 0-15.36-6.656-15.36-15.36s6.656-15.36 15.36-15.36h55.296v-42.496c0-19.968 15.872-35.84 35.84-35.84h42.496v-52.736c0-8.704 7.168-15.36 15.36-15.36 8.704 0 15.36 6.656 15.36 15.36v52.736h26.624c19.968 0 35.84 15.872 35.84 35.84v111.616c0 19.456-15.872 35.84-35.84 35.84zM979.456 816.64h-89.6v101.376h89.6v-101.376zM942.592 577.536c-8.704 0-15.36 6.656-15.36 15.36v65.024c0 8.704 6.656 15.36 15.36 15.36s15.36-6.656 15.36-15.36v-65.024c0-8.704-6.656-15.36-15.36-15.36zM942.592 453.12c-8.704 0-15.36 6.656-15.36 15.36v65.024c0 8.704 6.656 15.36 15.36 15.36s15.36-6.656 15.36-15.36v-65.024c0-8.704-6.656-15.36-15.36-15.36zM942.592 328.704c-8.704 0-15.36 6.656-15.36 15.36v65.024c0 8.704 6.656 15.36 15.36 15.36s15.36-6.656 15.36-15.36v-65.024c0-8.704-6.656-15.36-15.36-15.36zM942.592 204.288c-8.704 0-15.36 6.656-15.36 15.36v65.024c0 8.704 6.656 15.36 15.36 15.36s15.36-6.656 15.36-15.36v-65.024c0-8.704-6.656-15.36-15.36-15.36zM92.672 577.536c-8.704 0-15.36 6.656-15.36 15.36v65.024c0 8.704 6.656 15.36 15.36 15.36s15.36-6.656 15.36-15.36v-65.024c0-8.704-6.656-15.36-15.36-15.36zM92.672 453.12c-8.704 0-15.36 6.656-15.36 15.36v65.024c0 8.704 6.656 15.36 15.36 15.36s15.36-6.656 15.36-15.36v-65.024c0-8.704-6.656-15.36-15.36-15.36zM92.672 328.704c-8.704 0-15.36 6.656-15.36 15.36v65.024c0 8.704 6.656 15.36 15.36 15.36s15.36-6.656 15.36-15.36v-65.024c0-8.704-6.656-15.36-15.36-15.36zM92.672 204.288c-8.704 0-15.36 6.656-15.36 15.36v65.024c0 8.704 6.656 15.36 15.36 15.36s15.36-6.656 15.36-15.36v-65.024c0-8.704-6.656-15.36-15.36-15.36zM228.864 43.52h-51.2v40.448c0 19.968-15.872 35.84-35.84 35.84h-33.792v40.96c0 8.704-6.656 15.36-15.36 15.36s-15.36-6.656-15.36-15.36v-40.96h-35.84c-19.968 0-35.84-15.872-35.84-35.84v-111.616c0-19.968 15.872-35.84 35.84-35.84h99.84c19.968 0 35.84 15.872 35.84 35.84v40.448h51.2c8.704 0 15.36 6.656 15.36 15.36 0.512 8.704-6.144 15.36-14.848 15.36zM136.704-22.528h-89.6v101.376h89.6v-101.376zM984.576 119.808h-26.624v40.96c0 8.704-6.656 15.36-15.36 15.36-8.192 0-15.36-6.656-15.36-15.36v-40.96h-42.496c-19.968 0-35.84-15.872-35.84-35.84v-40.448h-55.296c-8.704 0-15.36-6.656-15.36-15.36s6.656-15.36 15.36-15.36h55.296v-40.448c0-19.968 15.872-35.84 35.84-35.84h99.84c19.968 0 35.84 15.872 35.84 35.84v111.616c0 19.456-15.872 35.84-35.84 35.84zM979.456-22.528h-89.6v101.376h89.6v-101.376zM728.064 12.8h-65.536c-8.704 0-15.36 6.656-15.36 15.36s6.656 15.36 15.36 15.36h65.536c8.704 0 15.36-6.656 15.36-15.36s-6.656-15.36-15.36-15.36zM603.648 12.8h-65.536c-8.704 0-15.36 6.656-15.36 15.36s6.656 15.36 15.36 15.36h65.536c8.704 0 15.36-6.656 15.36-15.36s-7.168-15.36-15.36-15.36zM478.72 12.8h-65.536c-8.704 0-15.36 6.656-15.36 15.36s6.656 15.36 15.36 15.36h65.536c8.704 0 15.36-6.656 15.36-15.36s-7.168-15.36-15.36-15.36zM353.792 12.8h-65.536c-8.704 0-15.36 6.656-15.36 15.36s6.656 15.36 15.36 15.36h65.536c8.704 0 15.36-6.656 15.36-15.36s-6.656-15.36-15.36-15.36zM728.064 854.016h-65.536c-8.704 0-15.36 6.656-15.36 15.36s6.656 15.36 15.36 15.36h65.536c8.704 0 15.36-6.656 15.36-15.36s-6.656-15.36-15.36-15.36zM603.648 854.016h-65.536c-8.704 0-15.36 6.656-15.36 15.36s6.656 15.36 15.36 15.36h65.536c8.704 0 15.36-6.656 15.36-15.36s-7.168-15.36-15.36-15.36zM478.72 854.016h-65.536c-8.704 0-15.36 6.656-15.36 15.36s6.656 15.36 15.36 15.36h65.536c8.704 0 15.36-6.656 15.36-15.36s-7.168-15.36-15.36-15.36zM353.792 854.016h-65.536c-8.704 0-15.36 6.656-15.36 15.36s6.656 15.36 15.36 15.36h65.536c8.704 0 15.36-6.656 15.36-15.36s-6.656-15.36-15.36-15.36zM228.864 884.736h-51.2v38.4c0 19.968-15.872 35.84-35.84 35.84h-99.84c-19.968 0-35.84-15.872-35.84-35.84v-111.616c0-19.968 15.872-35.84 35.84-35.84h35.84v-52.736c0-8.704 6.656-15.36 15.36-15.36s15.36 6.656 15.36 15.36v52.736h33.792c19.968 0 35.84 15.872 35.84 35.84v42.496h51.2c8.704 0 15.36 6.656 15.36 15.36-0.512 8.192-7.168 15.36-15.872 15.36zM136.704 816.64h-89.6v101.376h89.6v-101.376zM753.152 706.56h-460.8c-19.968 0-35.84-15.872-35.84-35.84v-434.688c0-19.968 15.872-35.84 35.84-35.84h460.8c19.968 0 35.84 15.872 35.84 35.84v434.688c0 19.456-15.872 35.84-35.84 35.84zM297.472 665.6h450.56v-238.592l-99.328 53.76c-6.144 3.072-13.312 3.072-18.944 0l-73.728-37.888-133.12 87.552c-5.632 4.096-13.312 4.608-19.456 1.536l-105.984-47.104v180.736zM748.032 240.64h-450.56v199.168l112.64 50.176 103.936-68.608-53.248-27.648c-10.24-5.12-13.824-17.408-8.704-27.648 3.584-7.168 10.752-11.264 18.432-11.264 3.072 0 6.144 0.512 9.216 2.048l83.968 43.52c0.512 0 0.512 0.512 1.024 0.512l74.24 38.4 109.568-58.88v-139.776zM570.368 510.464c-32.768 0-59.904 26.624-59.904 59.904s26.624 59.904 59.904 59.904c32.768 0 59.904-26.624 59.904-59.904s-26.624-59.904-59.904-59.904zM570.368 588.8c-10.24 0-18.944-8.192-18.944-18.944 0-10.24 8.192-18.944 18.944-18.944 10.24 0 18.944 8.192 18.944 18.944s-8.704 18.944-18.944 18.944z" />
<glyph unicode="&#xe910;" glyph-name="edit" d="M912.384 848.384c-32.768 32.768-76.8 50.688-123.392 50.688s-90.624-17.92-123.392-50.688l-597.504-596.992c-4.608-4.608-7.68-11.264-7.68-17.92v-184.832c0-28.16 23.040-51.2 51.2-51.2h185.344c6.656 0 13.312 2.56 17.92 7.68l597.504 596.48c32.768 32.768 51.2 76.8 51.2 123.392-0.512 46.592-18.432 90.624-51.2 123.392zM278.016 42.496h-147.456c-13.312 0-24.064 10.752-24.064 24.064v147.968c0 6.656 2.56 13.312 7.68 17.92l489.472 489.472 182.272-182.272-489.472-489.472c-5.12-5.12-11.264-7.68-18.432-7.68zM880.128 633.856l-61.952-61.952-182.272 182.272 61.952 61.952c24.064 24.064 56.32 37.376 91.136 37.376s67.072-13.312 91.136-37.376c24.064-24.064 37.376-56.32 37.376-91.136s-13.312-67.072-37.376-91.136z" />
<glyph unicode="&#xe911;" glyph-name="emoji" d="M512.512 919.040c259.584 0 471.040-211.456 471.040-471.040s-211.456-471.040-471.040-471.040-471.040 211.456-471.040 471.040 211.456 471.040 471.040 471.040zM512.512 960c-282.624 0-512-229.376-512-512s229.376-512 512-512 512 229.376 512 512-229.376 512-512 512v0zM330.24 619.52c29.696 0 53.76-24.064 53.76-53.76s-24.064-53.76-53.76-53.76-53.76 24.064-53.76 53.76 24.064 53.76 53.76 53.76zM330.24 660.48c-52.224 0-94.72-42.496-94.72-94.72s42.496-94.72 94.72-94.72 94.72 42.496 94.72 94.72-42.496 94.72-94.72 94.72v0zM704 619.52c29.696 0 53.76-24.064 53.76-53.76s-24.064-53.76-53.76-53.76-53.76 24.064-53.76 53.76 24.064 53.76 53.76 53.76zM704 660.48c-52.224 0-94.72-42.496-94.72-94.72s42.496-94.72 94.72-94.72 94.72 42.496 94.72 94.72-42.496 94.72-94.72 94.72v0zM512 125.952c-142.336 0-251.392 88.576-285.184 231.936-2.56 9.728 3.584 19.968 12.8 22.528s18.944-3.584 21.504-13.312c30.208-127.488 124.416-203.776 251.392-203.776 130.56 0 226.816 77.824 250.88 203.264 2.048 9.728 11.264 16.384 20.48 14.336 9.728-2.048 15.872-11.776 13.824-21.504-28.16-144.384-137.216-233.472-285.696-233.472z" />
<glyph unicode="&#xe912;" glyph-name="file" d="M939.008 704v6.144c-0.512 36.352-51.712 101.888-88.064 101.888h-398.848c-12.8 17.408-28.16 30.208-49.664 30.208h-295.936c-36.864 0-67.072-30.208-67.072-67.072l5.12-634.368c0-36.864 30.208-67.072 67.072-67.072h801.28c36.864 0 67.072 30.208 67.072 67.072v501.76c0 27.648-16.896 51.2-40.96 61.44zM850.944 771.072c14.336 0 47.104-47.104 47.104-61.44v0h-362.496c-8.192 0-16.384 4.096-20.992 10.752l-31.744 50.688h368.128zM939.008 140.8c0-14.336-11.776-26.112-26.112-26.112h-801.792c-14.336 0-26.112 11.776-26.112 26.112l-5.12 634.368c0 14.336 11.776 26.112 26.112 26.112h288.768c13.312 0.512 23.552-4.096 28.672-10.752l57.856-93.696c12.288-17.408 32.768-28.16 54.272-28.16h376.832c14.336 0 26.112-11.776 26.112-26.112v-501.76z" />
<glyph unicode="&#xe913;" glyph-name="filter" d="M793.6 556.032c4.608 20.48 7.168 41.472 7.168 63.488 0 159.744-130.048 289.792-289.792 289.792s-289.792-130.048-289.792-289.792c0-22.016 2.56-43.52 7.168-64-121.344-34.304-210.944-146.432-210.944-279.040 0-159.744 130.048-289.792 289.792-289.792 79.872 0 152.064 32.256 204.8 84.992 52.736-52.224 124.928-84.992 204.8-84.992 159.744 0 289.792 130.048 289.792 289.792 0 133.12-90.112 245.76-212.992 279.552zM510.976 868.352c137.216 0 248.832-111.616 248.832-248.832 0-18.944-2.048-37.376-6.144-55.296-12.288 1.536-24.576 2.56-36.864 2.56-79.872 0-152.064-32.256-204.8-84.992-52.224 52.224-124.928 84.48-204.8 84.48-13.312 0-26.112-1.024-38.912-2.56-4.096 17.92-6.144 36.352-6.144 55.296 0 137.728 111.616 249.344 248.832 249.344zM474.112 331.776c12.288-1.536 24.576-2.56 36.864-2.56 13.312 0 26.112 1.024 38.912 2.56 4.096-17.92 6.144-36.352 6.144-55.296 0-52.736-16.384-101.376-44.032-141.312-27.648 39.936-44.032 89.088-44.032 141.312 0 18.944 2.048 37.888 6.144 55.296zM445.44 379.392c-74.24 20.48-135.168 74.24-164.352 144.896 8.704 1.024 17.408 1.536 26.112 1.536 69.632 0 132.608-28.672 177.664-74.752-15.872-22.016-29.184-46.080-39.424-71.68zM486.912 371.712c6.656 16.384 15.36 31.744 25.088 46.080 10.24-14.336 18.432-29.696 25.088-46.080-8.704-1.024-17.408-1.536-26.112-1.536-8.192 0.512-16.384 1.024-24.064 1.536zM539.136 450.56c45.056 46.080 108.032 74.752 177.664 74.752 8.192 0 16.384-0.512 24.064-1.024-29.184-70.144-89.088-123.904-162.816-144.384-9.728 25.6-23.040 49.152-38.912 70.656zM307.2 27.648c-137.216 0-248.832 111.616-248.832 248.832 0 114.176 76.8 210.432 181.76 239.616 32.768-85.504 104.448-151.552 193.536-176.128-4.608-20.48-7.168-41.472-7.168-63.488 0-65.024 21.504-125.44 58.368-174.080-45.056-46.080-108.032-74.752-177.664-74.752zM716.8 27.648c-69.632 0-132.608 28.672-177.664 74.752 36.352 48.64 58.368 108.544 58.368 174.080 0 22.016-2.56 43.52-7.168 64 88.576 25.088 159.744 91.136 192 176.128 105.472-28.672 183.296-125.44 183.296-240.128 0-137.216-111.616-248.832-248.832-248.832z" />
<glyph unicode="&#xe914;" glyph-name="GIF" d="M1008.64 674.816c0 0.512 0 1.024 0 1.536 0 1.024-0.512 2.048-0.512 2.56 0 0 0 0.512 0 0.512 0 0.512-0.512 1.024-0.512 2.048 0 0.512-0.512 1.024-1.024 1.536-1.024 1.536-2.048 3.072-3.072 4.608l-0.512 0.512-238.080 250.368c-1.536 1.536-3.072 3.072-5.12 4.096-0.512 0.512-1.536 0.512-2.048 1.024-0.512 0-1.024 0.512-1.536 0.512s-0.512 0-1.024 0-1.024 0-1.536 0.512c-0.512 0-0.512 0-1.024 0s-1.024 0-2.048 0c0 0-0.512 0-0.512 0h-631.296c-57.344 0-103.424-46.080-103.424-103.424v-786.944c0-56.832 46.080-102.912 103.424-102.912h786.944c56.832 0 103.424 46.080 103.424 103.424v619.52c-0.512 0-0.512 0-0.512 0.512zM769.536 873.984l171.52-180.224-117.248-1.024c-31.232-1.024-56.32 39.424-57.344 61.44l3.072 119.808zM967.68 54.784c0-34.304-28.16-62.464-62.464-62.464h-786.432c-34.304 0-62.464 28.16-62.464 62.464v786.432c0 34.816 27.648 62.464 62.464 62.464h610.816l-3.584-148.48v-1.024c1.536-41.472 41.984-103.424 98.816-101.376l143.36 1.024v-599.040zM1008.64 674.816c0 0.512 0 1.024 0 1.536 0-0.512 0-1.024 0-1.536zM456.704 256c0-8.192-5.632-15.872-13.312-18.432-23.552-7.168-59.392-15.872-100.352-15.872-55.808 0-101.888 14.336-138.24 48.64-31.744 30.72-51.712 80.384-51.712 137.728 0.512 111.104 76.288 191.488 200.192 191.488 30.208 0 56.32-4.608 74.24-10.24 10.24-3.072 15.872-13.824 12.8-24.064l-0.512-2.048c-3.072-10.24-13.824-15.872-24.064-12.8-16.384 5.12-36.864 8.704-63.488 8.704-90.112 0-148.992-55.808-148.992-148.992 0-93.696 56.32-149.504 142.848-149.504 20.992 0 37.376 2.048 49.152 5.12 8.704 2.048 14.336 9.728 14.336 18.432v77.312c0 10.752-8.704 19.456-19.456 19.456h-36.864c-10.752 0-19.456 8.704-19.456 19.456v0c0 10.752 8.704 19.456 19.456 19.456h83.456c10.752 0 19.456-8.704 19.456-19.456v-144.384zM577.536 576.512v-331.776c0-10.752-8.704-19.456-19.456-19.456h-9.216c-10.752 0-19.456 8.704-19.456 19.456v331.776c0 10.752 8.704 19.456 19.456 19.456h9.216c10.752 0 19.456-8.704 19.456-19.456zM679.936 595.968h160.768c10.752 0 19.456-8.704 19.456-19.456v-1.536c0-10.752-8.704-19.456-19.456-19.456h-113.152c-10.752 0-19.456-8.704-19.456-19.456v-84.48c0-10.752 8.704-19.456 19.456-19.456h101.888c10.752 0 19.456-8.704 19.456-19.456v-1.024c0-10.752-8.704-19.456-19.456-19.456h-101.376c-10.752 0-19.456-8.704-19.456-19.456v-129.024c0-10.752-8.704-19.456-19.456-19.456h-9.216c-10.752 0-19.456 8.704-19.456 19.456v332.8c0 10.752 8.704 19.456 19.456 19.456z" />
<glyph unicode="&#xe915;" glyph-name="hidden" d="M615.424 736.768c-36.352 7.68-70.144 11.264-103.424 11.264-145.92 0-275.968-70.144-358.912-129.536-47.616-33.792-84.48-66.56-107.008-88.576-46.080-44.544-46.080-50.176-46.080-59.392 0-8.192 0-16.896 59.904-72.192 30.72-28.16 79.872-69.632 141.824-108.032l17.408-10.752 108.544 110.080 35.84 35.84 142.848 144.384 155.648 156.672-46.592 10.24zM504.832 642.048c-89.6-3.584-161.792-76.288-164.352-166.4l-49.664-49.664-79.872-80.896c-73.216 47.616-128 99.84-151.552 125.44 48.64 51.2 232.448 226.304 452.608 226.304 14.848 0 29.696-1.024 45.056-2.56l-52.224-52.224zM963.072 543.744c-31.232 28.672-81.408 71.168-144.896 109.056l-17.408 10.24-140.288-142.848-196.608-198.144-34.304-34.304-71.168-72.192 44.544-10.24c35.84-8.192 72.704-12.288 109.056-12.288 145.92 0 275.968 70.144 358.912 129.536 47.616 33.792 84.48 67.072 107.008 89.088 46.080 44.544 46.080 50.176 46.080 59.392 0 7.168 0 16.896-60.928 72.704zM512 244.224c-16.896 0-33.792 1.024-50.688 3.072l51.712 51.712c94.208 0.512 170.496 77.312 170.496 171.52v0.512l125.44 126.976c75.264-48.128 131.072-101.888 155.136-127.488-48.128-50.688-231.936-226.304-452.096-226.304zM159.744 84.992c-6.656 0-12.8 2.56-17.92 7.168-10.24 9.728-10.24 26.112 0 36.352l220.672 223.232 161.28 162.304 161.792 163.328 138.752 140.8c9.728 10.24 26.112 10.24 36.352 0 10.24-9.728 10.24-26.112 0-36.352l-300.544-303.616-161.28-162.304-220.672-223.232c-5.12-5.12-11.776-7.68-18.432-7.68z" />
<glyph unicode="&#xe916;" glyph-name="image" d="M941.056 959.488h-858.624c-45.056 0-81.92-36.864-81.92-81.92v-859.136c0-45.056 36.864-81.92 81.92-81.92h859.136c45.056 0 81.92 36.864 81.92 81.92v859.136c-0.512 45.056-36.864 81.92-82.432 81.92zM41.472 877.568c0 22.528 18.432 40.96 40.96 40.96h859.136c22.528 0 40.96-18.432 40.96-40.96v-538.112l-213.504 222.208c-3.584 4.096-9.216 6.144-14.336 6.144-5.632 0-10.752-2.048-14.848-6.144l-303.104-305.664-170.496 173.056c-7.68 8.192-20.992 8.192-28.672 0l-196.096-191.488v640zM982.016 18.432c0-22.528-18.432-40.96-40.96-40.96h-858.624c-22.528 0-40.96 18.432-40.96 40.96v162.816c1.024 0.512 2.048 1.536 2.56 2.56l206.848 202.24 170.496-172.544c4.096-4.096 9.216-6.144 14.336-6.144 0 0 0 0 0 0 5.632 0 10.752 2.048 14.336 6.144l303.104 305.152 228.352-237.568v-262.656zM325.632 553.984c-70.144 0-127.488 57.344-127.488 127.488s57.344 127.488 127.488 127.488 127.488-57.344 127.488-127.488-57.344-127.488-127.488-127.488zM325.632 768.512c-47.616 0-86.528-38.912-86.528-86.528s38.912-86.528 86.528-86.528 86.528 38.912 86.528 86.528-38.912 86.528-86.528 86.528z" />
<glyph unicode="&#xe917;" glyph-name="instagram-full" d="M686.080 445.44c0-91.9-74.5-166.4-166.4-166.4s-166.4 74.5-166.4 166.4c0 91.9 74.5 166.4 166.4 166.4s166.4-74.5 166.4-166.4zM798.72 878.080h-563.2c-84.48 0-153.6-69.12-153.6-153.6v-563.2c0-84.48 69.12-153.6 153.6-153.6h563.2c84.48 0 153.6 69.12 153.6 153.6v563.2c0 84.48-69.12 153.6-153.6 153.6zM517.12 192c-138.752 0-250.88 112.128-250.88 250.88s112.128 250.88 250.88 250.88 250.88-112.128 250.88-250.88-112.128-250.88-250.88-250.88zM813.056 663.552c-47.104-6.144-87.040 33.792-80.896 80.896 4.096 32.256 30.208 57.856 61.952 61.952 47.104 6.144 87.040-33.792 80.896-80.896-4.096-31.744-30.208-57.856-61.952-61.952z" />
<glyph unicode="&#xe918;" glyph-name="instagram" d="M788.48-2.56h-552.96c-95.744 0-174.080 78.336-174.080 174.080v552.96c0 95.744 78.336 174.080 174.080 174.080h552.96c95.744 0 174.080-78.336 174.080-174.080v-552.96c0-95.744-78.336-174.080-174.080-174.080zM235.52 857.6c-73.216 0-133.12-59.904-133.12-133.12v-552.96c0-73.216 59.904-133.12 133.12-133.12h552.96c73.216 0 133.12 59.904 133.12 133.12v552.96c0 73.216-59.904 133.12-133.12 133.12h-552.96zM865.28 734.72c0-39.588-32.092-71.68-71.68-71.68s-71.68 32.092-71.68 71.68c0 39.588 32.092 71.68 71.68 71.68s71.68-32.092 71.68-71.68zM517.12 192c-138.24 0-250.88 112.64-250.88 250.88s112.64 250.88 250.88 250.88 250.88-112.64 250.88-250.88-112.64-250.88-250.88-250.88zM517.12 652.8c-115.712 0-209.92-94.208-209.92-209.92s94.208-209.92 209.92-209.92 209.92 94.208 209.92 209.92-94.208 209.92-209.92 209.92z" />
<glyph unicode="&#xe919;" glyph-name="left" d="M517.12 200.704c-5.12 0-10.24 2.048-14.336 5.632l-194.56 189.44c-13.824 13.824-21.504 32.256-21.504 51.712s7.68 37.888 22.016 51.2c73.216 70.144 193.024 189.44 194.048 190.464 8.192 8.192 20.992 8.192 29.184 0s8.192-20.992 0-29.184c-1.024-1.024-121.344-120.832-194.56-190.976-6.144-5.632-9.216-13.824-9.216-22.016s3.072-16.384 9.216-22.016l194.56-189.44c8.192-7.68 8.192-20.992 0.512-29.184-4.608-3.584-9.728-5.632-15.36-5.632z" />
<glyph unicode="&#xe91a;" glyph-name="like" d="M1025.024 588.8c0-76.8-29.696-148.48-83.456-202.24l-38.4-38.912c-0.512-0.512-1.536-1.024-2.048-2.048l-365.568-315.904c-6.656-5.632-14.848-8.704-23.552-8.704s-16.896 3.072-23.552 8.704l-365.056 315.904c-0.512 0.512-1.024 1.024-1.536 1.536l-38.912 38.912c-54.272 54.272-83.968 125.952-83.968 202.752s29.696 148.48 83.456 202.24c53.76 53.76 125.44 83.456 202.24 83.456s148.48-29.696 202.24-83.456l24.576-24.576 24.576 24.576c53.76 53.76 125.44 83.456 202.24 83.456s148.48-29.696 202.24-83.456c54.784-53.76 84.48-125.44 84.48-202.24z" />
<glyph unicode="&#xe91b;" glyph-name="linkedin-full" d="M192-28.16h-105.472c-28.16 0-51.2 23.040-51.2 51.2v520.704c0 28.16 23.040 51.2 51.2 51.2h105.472c28.16 0 51.2-23.040 51.2-51.2v-520.704c0-28.16-23.040-51.2-51.2-51.2zM993.28 346.112v-306.688c0-37.376-30.208-67.584-67.584-67.584h-73.216c-37.376 0-67.584 30.208-67.584 67.584v292.864c0 64-49.152 115.712-110.080 115.712-57.344 0-104.448-46.080-109.568-104.96v-303.616c0-37.376-30.208-67.584-67.584-67.584h-72.704c-37.376 0-67.584 30.208-67.584 67.584v487.936c0 37.376 30.208 67.584 67.584 67.584h73.216c37.376 0 67.584-30.208 67.584-67.584v0c0-7.168 8.704-9.728 12.8-4.608 39.936 50.688 100.352 82.944 179.712 82.944 27.648 0 52.736-3.584 75.776-10.752 103.424-32.256 159.232-131.584 159.232-248.832zM243.2 813.056c0-57.119-46.075-103.424-102.912-103.424s-102.912 46.305-102.912 103.424c0 57.119 46.075 103.424 102.912 103.424s102.912-46.305 102.912-103.424z" />
<glyph unicode="&#xe91c;" glyph-name="linkedin" d="M192-48.64h-105.472c-39.424 0-71.68 32.256-71.68 71.68v520.704c0 39.424 32.256 71.68 71.68 71.68h105.472c39.424 0 71.68-32.256 71.68-71.68v-520.704c0-39.424-32.256-71.68-71.68-71.68zM86.528 574.464c-16.896 0-30.72-13.824-30.72-30.72v-520.704c0-16.896 13.824-30.72 30.72-30.72h105.472c16.896 0 30.72 13.824 30.72 30.72v520.704c0 16.896-13.824 30.72-30.72 30.72h-105.472zM925.696-48.64h-73.216c-48.64 0-88.064 39.424-88.064 88.064v292.864c0 52.736-40.448 95.232-89.6 95.232-46.080 0-84.48-36.864-89.088-85.504v-303.104c0-48.64-39.424-88.064-88.064-88.064h-72.704c-48.64 0-88.064 39.424-88.064 88.064v488.448c0 48.64 39.424 88.064 88.064 88.064h73.216c38.4 0 70.656-24.576 82.944-58.368 45.056 45.568 105.984 69.632 177.152 69.632 28.672 0 56.32-4.096 81.92-11.776 107.008-33.792 173.568-136.704 173.568-268.8v-306.688c0-48.64-39.424-88.064-88.064-88.064zM675.328 468.48c72.192 0 130.56-60.928 130.56-136.192v-292.864c0-25.6 20.992-47.104 47.104-47.104h73.216c25.6 0 47.104 20.992 47.104 47.104v306.688c0 113.664-55.296 201.216-144.896 229.376-21.504 6.656-44.544 10.24-69.632 10.24-68.608 0-125.44-26.112-163.84-74.752-7.168-9.216-19.456-13.312-30.72-9.216s-18.944 14.336-18.944 26.112c0 25.6-20.992 47.104-47.104 47.104h-73.216c-25.6 0-47.104-20.992-47.104-47.104v-488.448c0-25.6 20.992-47.104 47.104-47.104h73.216c25.6 0 47.104 20.992 47.104 47.104v305.664c6.144 70.144 61.952 123.392 130.048 123.392zM140.288 689.152c-68.096 0-123.392 55.808-123.392 123.904s55.296 123.392 123.392 123.392 123.392-55.296 123.392-123.904-55.296-123.392-123.392-123.392zM140.288 895.488c-45.568 0-82.432-36.864-82.432-82.944s36.864-82.944 82.432-82.944 82.432 36.864 82.432 82.944-36.864 82.944-82.432 82.944z" />
<glyph unicode="&#xe91d;" glyph-name="location" d="M512 391.168c-116.224 0-210.944 94.72-210.944 210.944s94.72 210.944 210.944 210.944 210.944-94.72 210.944-210.944-94.72-210.944-210.944-210.944zM512 772.096c-93.696 0-169.984-76.288-169.984-169.984s76.288-169.984 169.984-169.984 169.984 76.288 169.984 169.984c0 93.696-76.288 169.984-169.984 169.984zM512-48.128c-13.312 0-25.6 6.144-33.792 16.384-77.312 100.864-329.216 442.368-329.216 610.816 0 200.192 162.816 363.008 363.008 363.008s363.008-162.816 363.008-363.008c0-168.448-251.904-509.952-329.216-610.304-8.192-10.752-20.48-16.896-33.792-16.896zM512 901.12c-177.664 0-322.048-144.384-322.048-322.048 0-123.392 165.888-383.488 321.024-585.728 0 0 0.512-0.512 1.024-0.512s1.024 0.512 1.024 0.512c155.136 202.24 321.024 461.824 321.024 585.728 0 177.664-144.384 322.048-322.048 322.048z" />
<glyph unicode="&#xe91e;" glyph-name="menu-close" d="M1003.52 823.296h-983.040c-11.264 0-20.48 9.216-20.48 20.48s9.216 20.48 20.48 20.48h983.040c11.264 0 20.48-9.216 20.48-20.48s-9.216-20.48-20.48-20.48zM1003.52 559.616h-563.2c-11.264 0-20.48 9.216-20.48 20.48s9.216 20.48 20.48 20.48h563.2c11.264 0 20.48-9.216 20.48-20.48s-9.216-20.48-20.48-20.48zM1003.52 295.424h-983.040c-11.264 0-20.48 9.216-20.48 20.48s9.216 20.48 20.48 20.48h983.040c11.264 0 20.48-9.216 20.48-20.48s-9.216-20.48-20.48-20.48zM1003.52 31.744h-563.2c-11.264 0-20.48 9.216-20.48 20.48s9.216 20.48 20.48 20.48h563.2c11.264 0 20.48-9.216 20.48-20.48s-9.216-20.48-20.48-20.48z" />
<glyph unicode="&#xe91f;" glyph-name="menu" d="M998.4 814.080h-972.8c-14.336 0-25.6 11.264-25.6 25.6s11.264 25.6 25.6 25.6h972.8c14.336 0 25.6-11.264 25.6-25.6s-11.264-25.6-25.6-25.6zM998.4 552.96h-972.8c-14.336 0-25.6 11.264-25.6 25.6s11.264 25.6 25.6 25.6h972.8c14.336 0 25.6-11.264 25.6-25.6s-11.264-25.6-25.6-25.6zM998.4 291.84h-972.8c-14.336 0-25.6 11.264-25.6 25.6s11.264 25.6 25.6 25.6h972.8c14.336 0 25.6-11.264 25.6-25.6s-11.264-25.6-25.6-25.6zM998.4 30.72h-972.8c-14.336 0-25.6 11.264-25.6 25.6s11.264 25.6 25.6 25.6h972.8c14.336 0 25.6-11.264 25.6-25.6s-11.264-25.6-25.6-25.6z" />
<glyph unicode="&#xe920;" glyph-name="notification" d="M1016.832 197.632c-102.4 87.040-160.768 199.68-156.16 301.056 11.264 261.632-114.176 373.76-189.952 417.792-97.28 56.32-218.624 56.32-316.928 0.512-75.776-43.52-201.216-155.136-189.952-418.304 4.096-101.376-54.272-214.016-156.16-301.056-6.656-5.632-8.704-14.848-5.632-22.528 3.072-8.192 10.752-13.312 19.456-13.312h321.536c-4.096-14.336-5.632-29.696-5.632-45.056 0-97.792 79.872-177.664 177.664-177.664s177.664 79.36 177.664 177.664c0 15.36-2.048 30.208-5.632 45.056h316.416c8.704 0 16.384 5.12 19.456 13.312 2.56 7.68 0.512 16.896-6.144 22.528zM651.776 116.736c0-75.264-61.44-136.704-136.704-136.704s-136.704 61.44-136.704 136.704c0 15.36 2.56 30.208 7.68 45.056h258.048c5.12-14.848 7.68-29.696 7.68-45.056zM72.704 202.24c87.552 89.6 136.192 198.144 132.096 297.984-10.24 241.664 101.376 342.528 169.472 380.928 85.504 48.64 191.488 48.64 275.968-0.512 67.584-38.912 179.712-140.8 169.472-380.416-4.096-99.84 44.544-208.384 132.096-297.984h-879.104z" />
<glyph unicode="&#xe921;" glyph-name="plus" d="M738.816 456.192c0-11.264-9.216-20.48-20.48-20.48h-185.856v-185.856c0-11.264-9.216-20.48-20.48-20.48s-20.48 9.216-20.48 20.48v185.856h-185.856c-11.264 0-20.48 9.216-20.48 20.48s9.216 20.48 20.48 20.48h185.856v185.856c0 11.264 9.216 20.48 20.48 20.48s20.48-9.216 20.48-20.48v-185.856h185.856c11.264 0 20.48-9.216 20.48-20.48z" />
<glyph unicode="&#xe922;" glyph-name="Pre-saved-text" d="M781.312 893.44c-6.144-2.048-11.776-4.608-17.92-8.704 5.632 3.072 11.776 6.144 18.432 7.68 5.12 1.536 10.24 2.56 14.848 3.072-5.632 0.512-10.752-0.512-15.36-2.048zM719.36 808.96c0 31.232 20.48 60.928 44.032 76.288-26.624-15.872-44.032-44.544-44.032-76.288zM874.496 937.472l-63.488-0.512c-1.536 0-2.56 0.512-4.096 0.512h-651.264c-60.928 0-110.592-49.664-110.592-110.592v-861.184c0-7.68 4.608-14.848 11.264-18.432 3.072-1.536 6.144-2.048 9.216-2.048 4.608 0 8.704 1.536 12.288 4.096l297.984 227.328 310.784-227.328c6.144-4.608 14.336-5.12 21.504-1.536 6.656 3.584 11.264 10.752 11.264 18.432v711.68h239.616c11.264 0 20.48 9.216 20.48 20.48v110.592c-0.512 70.656-47.104 128.512-104.96 128.512zM678.4 6.144l-290.304 212.48c-3.584 2.56-7.68 4.096-12.288 4.096-4.096 0-8.704-1.536-12.288-4.096l-277.504-210.944v819.2c0 38.4 31.232 69.632 69.632 69.632h557.568c-19.456-20.48-31.744-47.616-34.304-76.288 0-0.512 0-0.512 0-1.024 0-1.536 0-3.072-0.512-4.608 0-2.048 0-3.584 0-5.632v-802.816zM937.984 718.336h-219.136v90.624c0 31.744 17.408 60.928 44.032 76.288 5.632 3.584 11.776 6.656 17.92 8.704 4.608 1.536 9.728 2.56 15.36 2.56 1.024 0 1.536 0 2.56 0l75.264 0.512c34.304 0 63.488-39.936 63.488-87.552v-91.136zM554.496 654.336h-335.872c-11.264 0-20.48 9.216-20.48 20.48s9.216 20.48 20.48 20.48h335.872c11.264 0 20.48-9.216 20.48-20.48s-9.216-20.48-20.48-20.48zM554.496 420.864h-335.872c-11.264 0-20.48 9.216-20.48 20.48s9.216 20.48 20.48 20.48h335.872c11.264 0 20.48-9.216 20.48-20.48s-9.216-20.48-20.48-20.48z" />
<glyph unicode="&#xe923;" glyph-name="preview" d="M963.072 76.288l-176.128 181.76c-12.288 12.8-29.184 19.968-47.104 19.968-10.24 0-19.968-2.048-28.672-6.656l-60.416 61.952c-1.024 0.512-1.536 1.536-2.56 2.048 38.912 46.080 60.416 103.424 61.44 164.864 1.024 70.144-25.088 136.192-73.728 186.368s-114.176 78.336-184.32 79.36c-1.536 0-2.56 0-4.096 0-142.848 0-259.584-114.688-262.144-258.048-2.048-144.384 113.664-263.68 258.048-266.24 1.536 0 2.56 0 4.096 0 64 0 124.416 22.528 172.032 64.512 0.512-0.512 1.024-1.024 1.536-1.536l60.416-61.952c-4.608-9.216-7.168-18.944-7.68-29.696 0-17.408 6.144-34.304 18.432-46.592l176.128-181.76c12.288-12.8 28.672-19.456 46.080-19.968 0.512 0 0.512 0 1.024 0 17.408 0 33.28 6.656 45.568 18.432 12.8 12.288 19.456 28.672 19.968 46.080 0.512 17.92-6.144 34.816-17.92 47.104zM601.6 345.6c-42.496-40.96-98.304-63.488-157.184-62.464-121.856 2.048-219.648 102.4-217.6 224.256 2.048 120.832 100.864 217.6 221.184 217.6h3.584c58.88-1.024 114.176-24.576 155.136-67.072s63.488-98.304 62.464-157.184c-1.536-58.88-25.088-114.176-67.584-155.136zM932.864 13.312c0 0 0 0 0 0-4.608-4.608-10.752-7.168-17.408-7.168s-12.8 2.56-17.408 7.68l-176.128 181.76c-4.608 4.608-7.168 10.752-6.656 17.408 0 6.656 2.56 12.8 7.68 17.408 4.608 4.608 10.752 6.656 17.408 6.656s12.8-2.56 17.92-7.168l176.128-181.76c4.608-4.608 7.168-10.752 6.656-17.408-1.024-7.168-3.584-12.8-8.192-17.408zM626.176 72.192h-510.976c-58.88 0-107.008 48.64-107.008 108.032v664.064c0 59.392 48.128 108.032 107.008 108.032h665.088c58.88 0 107.008-48.64 107.008-108.032v-496.128c0-11.264-9.216-20.48-20.48-20.48s-20.48 9.216-20.48 20.48v496.128c0 36.864-29.696 67.072-66.048 67.072h-665.088c-36.352 0-66.048-30.208-66.048-67.072v-664.064c0-36.864 29.696-67.072 66.048-67.072h510.976c11.264 0 20.48-9.216 20.48-20.48s-9.216-20.48-20.48-20.48z" />
<glyph unicode="&#xe924;" glyph-name="project" d="M263.168 572.928c-1.024 0-2.56 0-3.584 0-22.016-1.536-38.912-20.992-38.912-44.544v-366.080c0-11.776-2.048-23.040-5.632-34.304-3.584-9.728-8.192-19.456-14.336-27.648h1.536c6.144 8.192 10.752 17.408 14.336 27.648 4.096 11.264 5.632 22.528 5.632 34.304v366.080c0 23.040 16.896 42.496 38.912 44.544 1.024 0 2.56 0 3.584 0h-1.536zM256.512 613.888c-43.008-3.072-76.8-40.96-76.8-84.992v-366.080c0-7.168-1.024-13.824-3.584-20.992-7.68-21.504-25.6-37.376-47.616-41.472v-0.512c0.512 0 1.024 0 1.536 0.512 22.016 4.096 40.448 20.48 47.616 41.472 2.56 6.656 3.584 13.824 3.584 20.992v365.568c0 44.544 33.792 81.92 76.8 84.992 1.024 0 2.048 0 3.584 0-2.048 0.512-3.584 0.512-5.12 0.512zM924.672 613.888h-20.992v28.16c0 58.88-47.616 106.496-106.496 106.496h-220.16c-23.040 0-44.544 12.288-56.32 32.256l-4.608 7.68c-18.944 31.744-53.76 51.712-91.136 51.712h-307.2c-57.856 0-104.96-47.104-104.96-104.448v-572.928c0-57.856 47.104-104.96 104.96-104.96 6.144 0 12.288 0.512 18.944 1.536 1.024 0 2.56 0 3.584 0 2.56 0 5.12 0.512 8.192 0.512l776.704-2.048c49.152 0 89.088 39.936 89.088 89.088v377.856c-0.512 49.152-40.448 89.088-89.6 89.088zM181.248 162.304c0-7.168-1.024-13.824-3.584-20.992-7.168-21.504-25.6-37.376-47.616-41.472-0.512 0-1.024 0-1.536-0.512-3.584-0.512-7.168-1.024-10.752-1.024-35.328 0-64 28.672-64 64v573.44c0 35.328 28.672 63.488 64 63.488h307.2c23.040 0 44.544-12.288 56.32-31.744l4.608-7.68c18.944-32.256 54.272-52.224 91.648-52.224h220.16c35.84 0 65.536-29.184 65.536-65.536v-28.16h-599.040c-0.512 0-1.536 0-2.048 0-1.024 0-2.048 0-3.584 0-43.008-3.072-76.8-40.96-76.8-84.992v-366.592zM972.8 146.944c0-26.624-21.504-48.128-48.128-48.128h-128.512l-595.456 2.048c6.144 8.192 11.264 17.408 14.336 27.648 4.096 11.264 5.632 22.528 5.632 34.304v365.568c0 23.040 16.896 42.496 38.912 44.544 1.024 0 2.56 0 3.584 0h661.504c26.624 0 48.128-21.504 48.128-48.128v-80.896h-437.76c-53.76 0-97.28-43.52-97.28-97.28v-49.664c0-53.76 43.52-97.28 97.28-97.28h437.76v-52.736zM972.8 402.944v-162.304h-437.76c-31.232 0-56.32 25.088-56.32 56.32v49.664c0 31.232 25.088 56.32 56.32 56.32h437.76z" />
<glyph unicode="&#xe925;" glyph-name="record" d="M532.48 169.984v-182.784h113.152c11.264 0 20.48-9.216 20.48-20.48s-9.216-20.48-20.48-20.48h-267.264c-11.264 0-20.48 9.216-20.48 20.48s9.216 20.48 20.48 20.48h113.152v182.272c-72.704 4.096-134.144 34.816-178.688 89.6-43.52 53.76-67.584 129.024-67.584 211.456 0 11.264 9.216 20.48 20.48 20.48s20.48-9.216 20.48-20.48c0-129.536 68.608-260.608 221.696-260.608 135.68 0 229.888 107.008 229.888 260.608 0 11.264 9.216 20.48 20.48 20.48s20.48-9.216 20.48-20.48c0-165.376-101.888-288.256-246.272-300.544zM512 945.664c-96.256 0-174.080-78.336-174.080-174.080v-335.872c0-96.256 78.336-174.080 174.080-174.080s174.080 78.336 174.080 174.080v335.872c0 96.256-77.824 174.080-174.080 174.080zM378.88 771.584c0 73.728 59.904 133.12 133.12 133.12s133.12-59.904 133.12-133.12v-212.48h-266.24v212.48zM645.12 435.712c0-73.728-59.904-133.12-133.12-133.12s-133.12 59.904-133.12 133.12v92.672h266.24v-92.672z" />
<glyph unicode="&#xe926;" glyph-name="right" d="M512.512 200.704c-5.12 0-10.24 2.048-14.336 5.632-8.192 7.68-8.704 20.992-0.512 29.184 1.024 1.024 117.76 123.904 188.928 196.096 5.632 6.144 9.216 13.824 8.704 22.016 0 8.192-3.584 16.384-9.728 22.016l-199.68 184.32c-8.192 7.68-8.704 20.48-1.024 29.184 7.68 8.192 20.48 8.704 29.184 1.024l199.68-184.32c14.336-13.312 22.528-31.232 23.040-51.2 0.512-19.456-6.656-37.888-20.48-52.224-71.168-72.192-187.392-194.56-188.416-195.584-4.608-4.096-9.728-6.144-15.36-6.144z" />
<glyph unicode="&#xe927;" glyph-name="saved" d="M774.144-65.536c-8.704 0-17.408 3.584-24.064 10.24l-1.024 1.024-1.024 1.536-236.032 337.408-237.056-338.944-1.024-1.024c-9.728-10.24-24.064-12.8-36.352-7.68-14.336 5.632-23.040 20.48-23.040 37.376v944.128c0 22.016 15.872 39.936 35.84 39.936h524.8c19.968 0 35.84-17.92 35.84-39.936v-944.64c0-16.896-9.216-31.744-23.040-37.376-5.12-1.536-9.216-2.048-13.824-2.048zM512 331.264c8.704 0 17.408-3.584 24.064-10.24l1.024-1.024 1.024-1.536 230.912-330.24v929.28h-514.048v-929.28l231.936 331.776 1.024 1.024c6.656 6.656 15.36 10.24 24.064 10.24z" />
<glyph unicode="&#xe928;" glyph-name="share" d="M963.584 293.376c6.144 28.16 15.36 87.552 5.12 160.256-12.288 91.648-58.88 222.208-209.408 322.048-9.216 6.144-22.016 3.584-28.16-5.632s-3.584-22.016 5.632-28.16c110.080-73.216 174.592-171.008 191.488-291.84 8.704-60.928 2.048-113.152-3.072-140.8-9.216 2.048-18.432 3.072-28.16 3.072-70.144 0-126.976-56.832-126.976-126.976s56.832-126.976 126.976-126.976c70.144 0 126.976 57.344 126.976 126.976 0 45.568-24.064 86.016-60.416 108.032zM897.024 99.328c-47.616 0-86.016 38.912-86.016 86.016 0 47.616 38.4 86.016 86.016 86.016 10.752 0 20.992-2.048 30.72-5.632 2.56-1.024 5.12-2.048 7.68-3.584 28.16-14.336 47.616-43.52 47.616-76.8 0-47.616-38.4-86.016-86.016-86.016zM514.56 955.392c-68.608 0-124.928-55.296-126.976-123.392-27.136-8.192-84.48-28.672-144.384-72.704-74.24-54.784-166.4-158.208-181.76-338.432-1.024-11.264 7.168-20.992 18.432-22.016 0.512 0 1.024 0 1.536 0 10.752 0 19.456 8.192 20.48 18.944 11.776 131.584 67.072 235.008 164.352 307.712 50.688 37.888 100.352 56.832 126.976 65.536 16.384-51.712 64.512-89.6 121.344-89.6 70.144 0 126.976 56.832 126.976 126.976 0.512 70.144-56.832 126.976-126.976 126.976zM514.56 741.888c-47.616 0-86.016 38.4-86.016 86.016s38.4 86.016 86.016 86.016c47.616 0 86.016-38.4 86.016-86.016 0.512-47.104-38.4-86.016-86.016-86.016zM726.016 15.36c-4.608 10.24-16.896 14.848-27.136 9.728-119.808-56.32-237.056-60.416-348.672-12.288-41.984 17.92-75.776 40.448-98.304 58.88-12.8 10.24-22.528 18.944-28.16 24.576 22.528 23.040 36.352 54.272 36.352 89.088 0 70.144-56.832 126.976-126.976 126.976s-126.976-56.832-126.976-126.976c0-70.144 56.832-126.976 126.976-126.976 20.48 0 39.936 5.12 57.344 13.824 14.336-14.848 64.512-61.44 142.336-95.744 45.568-19.456 104.96-36.864 176.128-36.864 61.952 0 132.096 12.8 207.872 48.64 9.728 4.608 14.336 16.896 9.216 27.136zM46.592 185.344c0 47.616 38.4 86.016 86.016 86.016s86.016-38.4 86.016-86.016c0-47.616-38.912-86.016-86.016-86.016-47.616 0-86.016 38.4-86.016 86.016zM935.424 262.144c-0.512 0-1.024 0-1.536 0.512-2.56 0.512-4.608 1.536-6.144 3.072 2.56-1.024 5.12-2.048 7.68-3.584z" />
<glyph unicode="&#xe929;" glyph-name="show" d="M512 171.008c-145.92 0-275.968 70.656-359.424 129.536-47.616 33.792-84.992 67.072-107.52 89.088-45.056 44.032-45.056 49.664-45.056 56.32s0 12.8 45.056 55.808c23.040 22.016 59.904 55.296 107.52 89.088 83.456 59.904 213.504 130.048 359.424 130.048s275.968-70.656 359.424-129.536c47.616-33.792 84.992-67.072 107.52-89.088 45.056-43.52 45.056-49.152 45.056-55.808s0-12.8-45.056-55.808c-23.040-22.016-59.904-55.296-107.52-89.088-83.456-59.904-213.504-130.56-359.424-130.56zM47.104 445.952c48.64-53.76 244.224-233.984 464.896-233.984s416.768 180.224 464.896 233.984c-48.64 53.76-244.224 233.984-464.896 233.984s-416.768-179.712-464.896-233.984zM703.488 445.952c0-105.472-85.504-191.488-191.488-191.488s-191.488 86.016-191.488 191.488c0 105.984 86.016 191.488 191.488 191.488 33.28 0 65.024-8.704 92.16-23.552-36.352-2.56-65.024-33.28-65.024-70.144 0-38.912 31.232-70.144 70.144-70.144 36.864 0 67.072 28.672 70.144 65.024 15.36-27.648 24.064-59.392 24.064-92.672z" />
<glyph unicode="&#xe92a;" glyph-name="small-business" d="M724.992 551.936c-162.304 0-293.888-132.096-293.888-293.888 0-162.304 132.096-293.888 293.888-293.888 162.304 0 293.888 132.096 293.888 293.888s-132.096 293.888-293.888 293.888zM724.992 6.144c-138.752 0-251.904 113.152-251.904 251.904s113.152 251.904 251.904 251.904c138.752 0 251.904-113.152 251.904-251.904 0-139.264-113.152-251.904-251.904-251.904zM803.328 219.136c0-26.624-17.408-74.752-51.712-74.752h-2.048v-33.28c0-11.264-8.192-20.992-18.944-22.016-12.8-1.024-23.040 8.704-23.040 20.992v34.304h-38.912c-11.264 0-20.992 8.192-22.016 18.944-1.024 12.8 8.704 23.040 20.992 23.040h71.68c7.168 0 13.824 4.096 16.384 10.752 3.072 6.656 5.12 14.848 5.12 22.016 0 9.728-5.632 16.384-9.216 16.384h-53.76c-28.16 0-51.712 26.112-51.712 58.368 0 27.648 17.408 77.312 51.712 77.312h9.728v52.736c0 11.264 8.192 20.992 18.944 22.016 12.8 1.024 23.040-8.704 23.040-20.992v-53.76h31.232c11.264 0 20.992-8.192 22.016-18.944 1.024-12.8-8.704-23.040-20.992-23.040h-70.144c-7.68 0-14.848-4.608-17.92-11.776s-5.12-15.872-5.12-23.040c0-9.728 5.632-16.384 9.216-16.384h53.76c28.672-0.512 51.712-26.624 51.712-58.88zM789.504 846.336v-236.544c0-11.776-9.728-20.992-20.992-20.992-11.776 0-20.992 9.728-20.992 20.992v236.544c0 24.064-19.456 43.52-43.52 43.52h-612.864c-24.064 0-43.52-19.456-43.52-43.52v-771.584c0-24.064 19.456-43.52 43.52-43.52h183.296v302.080c0 26.112 20.992 47.104 47.104 47.104h41.472c11.776 0 20.992-9.216 20.992-20.992s-9.216-20.992-20.992-20.992h-41.472c-2.56 0-4.608-2.048-4.608-4.608v-302.080h141.824c11.776 0 20.992-9.216 20.992-20.992s-9.728-20.992-20.992-20.992h-367.616c-47.104 0-86.016 38.4-86.016 86.016v770.56c0 47.104 38.4 86.016 86.016 86.016h612.864c47.104 0 85.504-38.912 85.504-86.016zM288.768 584.704h-82.432c-40.96 0-73.728 33.28-73.728 73.728v82.432c0 40.96 33.28 73.728 73.728 73.728h82.432c40.96 0 73.728-33.28 73.728-73.728v-82.432c0-40.448-33.28-73.728-73.728-73.728zM206.336 772.608c-17.408 0-31.744-14.336-31.744-31.744v-82.432c0-17.408 14.336-31.744 31.744-31.744h82.432c17.408 0 31.744 14.336 31.744 31.744v82.432c0 17.408-14.336 31.744-31.744 31.744h-82.432zM606.208 588.8h-82.944c-40.96 0-73.728 33.28-73.728 73.728v83.456c0 40.96 33.28 73.728 73.728 73.728h82.944c40.96 0 73.728-33.28 73.728-73.728v-82.944c0.512-40.96-32.768-74.24-73.728-74.24zM523.264 777.728c-17.408 0-31.744-14.336-31.744-31.744v-82.944c0-17.408 14.336-31.744 31.744-31.744h82.944c17.408 0 31.744 14.336 31.744 31.744v82.944c0 17.408-14.336 31.744-31.744 31.744h-82.944z" />
<glyph unicode="&#xe92b;" glyph-name="sound-and-picture" d="M554.496 621.568c-57.344 0-103.936 46.592-103.936 103.936s46.592 103.936 103.936 103.936c57.344 0 103.936-46.592 103.936-103.936s-46.592-103.936-103.936-103.936zM554.496 788.48c-34.816 0-62.976-28.16-62.976-62.976s28.16-62.976 62.976-62.976c34.816 0 62.976 28.16 62.976 62.976 0 34.304-28.16 62.976-62.976 62.976zM344.576-28.16h-228.352c-47.104 0-85.504 38.4-85.504 85.504v781.312c0 47.104 38.4 85.504 85.504 85.504h792.064c47.104 0 84.992-38.4 84.992-84.992v-425.984c0-21.504-12.8-40.96-33.28-49.152-19.968-8.192-43.008-3.072-57.856 12.288l-83.968 88.064-91.136 90.624c-16.896 16.384-43.52 16.896-60.928 1.536l-111.616-101.376c-17.408-15.872-39.936-23.552-63.488-22.016s-44.544 12.288-59.392 30.72l-41.984 51.712c-0.512 1.024-1.024 1.536-2.048 2.56-2.048 3.584-6.144 4.608-8.704 5.12-6.144 1.024-16.384-1.024-24.576-9.216-0.512-0.512-1.024-1.024-1.536-1.536l-168.448-133.632c-8.704-7.168-21.504-5.632-28.672 3.584-7.168 8.704-5.632 21.504 3.584 28.672l168.448 133.12c15.872 14.848 37.376 22.528 57.856 19.456 15.872-2.048 29.696-10.752 37.888-23.552l40.96-50.176c7.68-9.216 18.432-14.848 30.72-15.872s24.064 3.072 32.768 11.264l111.616 101.376c33.28 30.208 84.992 29.184 117.248-2.56l91.648-90.624c0 0 0.512-0.512 0.512-0.512l83.968-88.576c5.12-5.12 10.752-3.584 12.8-2.56s7.68 3.584 7.68 11.264v425.472c0 24.576-19.968 44.032-44.032 44.032h-793.088c-24.576 0-44.032-19.968-44.032-44.032v-781.824c0-24.576 19.968-44.032 44.032-44.032h228.352c11.264 0 20.48-9.216 20.48-20.48s-9.216-20.48-20.48-20.48zM946.688 316.416h-71.68c-14.848 0-28.16-7.168-36.864-18.432l-181.76 92.16c-29.696 14.336-53.76 15.872-72.192 5.12-17.408-10.24-27.648-30.208-29.696-59.904 0-1.536 0-3.072 0-5.12v-291.328c0-1.536 0-3.072 0-5.12 1.536-20.48 5.12-43.008 24.576-55.296 8.192-5.12 17.92-8.192 29.696-8.192 12.8 0 28.16 3.072 46.080 9.728l184.832 82.944c8.192-10.24 20.992-16.384 34.816-16.384h71.68c25.088 0 45.568 20.48 45.568 45.568v178.688c0.512 25.088-19.968 45.568-45.056 45.568zM641.024 18.944c-29.696-10.24-37.376-6.656-38.912-5.632s-5.12 5.632-6.144 24.064c0 0.512 0 1.536 0 2.048v291.328c0 0.512 0 1.536 0 2.048 1.024 14.336 4.608 24.576 9.216 27.136 1.024 0.512 3.072 1.536 6.656 1.536 5.12 0 13.824-1.536 27.136-8.192l190.976-97.28v-153.088l-188.928-83.968zM951.296 92.16c0-2.56-2.048-4.608-4.608-4.608h-71.68c-2.56 0-4.608 2.048-4.608 4.608v178.688c0 2.56 2.048 4.608 4.608 4.608h71.68c2.56 0 4.608-2.048 4.608-4.608v-178.688zM498.176 108.544c-5.12 0-10.24 2.048-14.336 6.144-40.448 40.448-40.448 105.472 0 145.92 8.192 8.192 20.992 8.192 29.184 0s8.192-20.992 0-29.184c-24.064-24.064-24.064-63.488 0-88.064 8.192-8.192 8.192-20.992 0-29.184-4.096-3.584-9.216-5.632-14.848-5.632zM411.648 44.544c-5.12 0-10.24 2.048-14.336 6.144-75.776 75.776-75.776 198.656 0 274.432 8.192 8.192 20.992 8.192 29.184 0s8.192-20.992 0-29.184c-59.904-59.904-59.904-156.672 0-216.576 8.192-8.192 8.192-20.992 0-29.184-4.608-3.584-9.728-5.632-14.848-5.632z" />
<glyph unicode="&#xe92c;" glyph-name="source" d="M884.736 880.64c-76.8 0-139.264-62.464-139.264-139.264 0-69.632 51.2-127.488 118.272-137.728v-232.96c0-19.456-15.872-35.328-35.328-35.328h-33.792c-0.512 0-1.024 0-1.536 0v93.696c0 40.96-33.28 74.24-74.24 74.24h-183.296v99.84c67.072 10.24 118.272 68.096 118.272 137.728 0 76.8-62.464 139.264-139.264 139.264s-139.264-62.464-139.264-139.264c0-69.632 51.2-127.488 118.272-137.728v-100.864h-183.296c-40.96 0-74.24-33.28-74.24-74.24v-105.984c-2.048 1.024-4.608 1.024-7.168 1.024h-33.792c-19.456 0-35.328 15.872-35.328 35.328v244.736c67.072 10.24 118.272 68.096 118.272 137.728 0 76.8-62.464 139.264-139.264 139.264-76.288 0.512-138.752-61.952-138.752-138.752 0-69.632 51.2-127.488 118.272-137.728v-244.736c0-42.496 34.816-77.312 77.312-77.312h33.792c2.56 0 4.608 0.512 7.168 1.024v-106.496c0-40.96 33.28-74.24 74.24-74.24h128.512v-44.032h-25.088c-11.776 0-20.992-9.216-20.992-20.992s9.216-20.992 20.992-20.992h202.752c11.776 0 20.992 9.216 20.992 20.992s-9.216 20.992-20.992 20.992h-25.088v44.032h128.512c40.96 0 74.24 33.28 74.24 74.24v116.736c0.512 0 1.024 0 1.536 0h33.792c42.496 0 77.312 34.816 77.312 77.312v232.96c66.56 10.24 118.272 68.096 118.272 137.728-1.536 77.312-64 139.776-140.8 139.776zM139.264 644.096c-53.248 0-96.768 43.52-96.768 97.28s43.52 97.28 96.768 97.28c53.76 0 97.28-43.52 97.28-97.28s-43.52-97.28-97.28-97.28zM417.792 741.376c0 53.76 43.52 97.28 97.28 97.28 53.248 0 97.28-43.52 97.28-97.28s-43.52-97.28-97.28-97.28c-53.76 0-97.28 43.52-97.28 97.28zM548.864 57.856h-68.096v44.032h67.584v-44.032zM751.104 176.128c0-17.408-14.336-31.744-31.744-31.744h-409.088c-17.408 0-31.744 14.336-31.744 31.744v10.752h472.576v-10.752zM751.104 228.864h-472.576v199.68c0 17.408 14.336 31.744 31.744 31.744h409.088c17.408 0 31.744-14.336 31.744-31.744v-199.68zM884.736 644.096c-53.76 0-97.28 43.52-97.28 97.28s43.52 97.28 97.28 97.28c53.248 0 96.768-43.52 96.768-97.28s-43.52-97.28-96.768-97.28z" />
<glyph unicode="&#xe92d;" glyph-name="Survey" d="M57.856-24.064c-6.656 0-13.824 3.584-17.408 10.24-4.096 6.656-3.584 14.848 0 21.504l100.352 181.248c-90.624 80.384-140.288 185.856-140.288 297.984 0 238.592 229.376 433.152 511.488 433.152s511.488-194.56 511.488-433.152c0-239.104-229.376-433.664-511.488-433.664-73.216 0-143.36 12.8-208.896 37.888l-236.544-113.152c-2.56-1.024-5.632-2.048-8.704-2.048zM512 879.104c-259.584 0-470.528-176.128-470.528-392.192 0-104.96 49.152-203.264 138.24-278.016 7.68-6.144 9.728-16.896 4.608-25.6l-76.8-139.264c0-0.512 0-1.024 0.512-0.512l185.344 88.576c5.12 2.56 11.264 2.56 16.384 0.512 63.488-25.6 131.584-38.4 202.24-38.4 259.584 0 470.528 176.128 470.528 392.704 0 216.064-210.944 392.192-470.528 392.192zM230.4 300.032c-11.264 0-20.48 9.216-20.48 20.48v332.8c0 11.264 9.216 20.48 20.48 20.48s20.48-9.216 20.48-20.48v-332.8c0-11.264-9.216-20.48-20.48-20.48zM376.32 300.032c-11.264 0-20.48 9.216-20.48 20.48v115.2c0 11.264 9.216 20.48 20.48 20.48s20.48-9.216 20.48-20.48v-115.2c0-11.264-9.216-20.48-20.48-20.48zM522.24 300.032c-11.264 0-20.48 9.216-20.48 20.48v366.080c0 11.264 9.216 20.48 20.48 20.48s20.48-9.216 20.48-20.48v-366.080c0-11.264-9.216-20.48-20.48-20.48zM673.28 300.032c-11.264 0-20.48 9.216-20.48 20.48v271.36c0 11.264 9.216 20.48 20.48 20.48s20.48-9.216 20.48-20.48v-271.36c0-11.264-9.216-20.48-20.48-20.48zM814.080 300.032c-11.264 0-20.48 9.216-20.48 20.48v199.68c0 11.264 9.216 20.48 20.48 20.48s20.48-9.216 20.48-20.48v-199.68c0-11.264-9.216-20.48-20.48-20.48z" />
<glyph unicode="&#xe92e;" glyph-name="tag-people" d="M719.36 263.68c-10.752 0-24.064 7.68-24.064 17.408 0 97.28-94.208 148.992-183.296 150.016-90.112 0.512-183.808-52.736-183.808-150.016 0-9.728-12.8-17.408-23.552-17.408s-18.944 8.192-18.944 17.92c0 116.736 101.888 189.44 226.304 189.44s226.304-72.192 226.304-189.44c0-10.24-8.192-17.92-18.944-17.92zM512 509.952c-77.312 0-139.776 62.976-139.776 139.776s62.464 140.288 139.776 140.288 139.776-62.976 139.776-139.776-62.464-140.288-139.776-140.288zM512 749.056c-54.784 0-98.816-44.544-98.816-98.816s44.544-98.816 98.816-98.816 98.816 44.544 98.816 98.816-44.032 98.816-98.816 98.816zM512 33.792c-18.432 0-36.864 7.168-50.688 20.992l-108.032 108.032h-228.864c-53.76 0-97.28 43.52-97.28 97.28v504.832c0 53.76 43.52 97.28 97.28 97.28h774.656c53.76 0 97.28-43.52 97.28-97.28v-505.344c0-53.76-43.52-97.28-97.28-97.28h-228.352l-108.032-108.032c-13.824-13.824-32.256-20.48-50.688-20.48zM124.416 821.248c-31.232 0-56.32-25.088-56.32-56.32v-505.344c0-31.232 25.088-56.32 56.32-56.32h245.76l119.808-119.808c11.776-11.776 31.232-11.776 43.52 0l119.808 119.808h245.76c31.232 0 56.32 25.088 56.32 56.32v505.344c0 31.232-25.088 56.32-56.32 56.32h-774.656z" />
<glyph unicode="&#xe92f;" glyph-name="team-member" d="M293.888 265.216c4.096 5.632 8.704 11.264 13.312 16.896-4.608-5.12-9.216-10.752-13.312-16.896zM290.304 260.608c-3.584-5.12-6.656-9.728-9.728-15.36 3.072 5.12 6.144 10.24 9.728 15.36zM204.8 158.72c-1.024-6.656-2.048-13.312-2.56-19.968 0.512 6.656 1.536 13.312 2.56 19.968zM280.576 245.248c3.072 5.12 6.656 10.24 9.728 15.36-3.584-5.12-6.656-10.24-9.728-15.36zM293.888 265.216c4.096 5.632 8.704 11.264 13.312 16.896-4.608-5.12-9.216-10.752-13.312-16.896zM510.976 463.872c-95.232 0-172.544 77.312-172.544 172.544s77.312 172.544 172.544 172.544 172.544-77.312 172.544-172.544c0-95.232-77.312-172.544-172.544-172.544zM510.976 767.488c-72.704 0-131.584-58.88-131.584-131.584s58.88-131.584 131.584-131.584 131.584 58.88 131.584 131.584c0 72.704-59.392 131.584-131.584 131.584zM802.816 329.216c-22.528 0-44.544-3.584-65.536-10.24-59.392 62.464-140.8 98.304-226.304 98.304-84.992 0-166.4-35.328-225.28-97.792-20.992 6.144-42.496 9.728-64.512 9.728-118.272 0-215.552-92.672-221.184-210.432-0.512-8.192 2.56-16.384 8.192-22.528s13.824-9.216 22.016-9.216h198.144c2.048-0.512 4.608-0.512 6.656-0.512h551.936c2.048 0 4.608 0.512 6.656 0.512h200.192c8.192 0 16.384 3.584 22.016 9.216 5.632 6.144 8.704 13.824 8.192 22.528v0c-6.144 117.76-103.424 210.432-221.184 210.432zM226.304 230.4c-0.512-1.024-1.024-2.048-1.024-2.56-1.024-2.56-2.048-5.12-3.072-7.68-1.024-3.072-2.56-6.144-3.584-9.216 0-0.512 0-0.512-0.512-1.024-1.024-3.072-2.048-6.656-3.072-9.728-1.024-3.584-2.048-6.656-3.072-10.24-2.048-6.656-3.584-13.312-5.12-20.48v0c-0.512-3.072-1.024-6.144-2.048-9.216 0-0.512 0-1.024-0.512-1.536-1.024-6.656-2.048-13.312-2.56-19.968 0 0 0 0 0 0-0.512-3.072-0.512-6.656-1.024-9.728 0 0 0-0.512 0-0.512h-158.72c10.24 89.088 88.576 160.256 179.2 160.256 11.776 0 24.064-1.024 35.84-3.584-1.536-2.048-3.072-4.096-4.096-6.144-1.024-1.024-1.536-2.56-2.048-3.584-1.536-2.56-3.072-5.12-4.608-7.168 0-0.512-0.512-0.512-0.512-0.512-2.048-3.072-3.584-6.144-5.12-9.216s-3.072-5.632-4.608-8.704c-0.512-0.512-0.512-1.024-1.024-1.536-3.584-6.656-6.144-12.288-8.704-17.92zM242.176 126.976c0 1.536 0.512 3.584 0.512 5.12 0.512 3.584 1.024 7.168 1.536 10.752 0 1.536 0.512 3.584 1.024 5.12s0.512 3.584 1.024 5.12 1.536 7.168 2.048 10.24c0.512 3.072 1.536 6.144 2.048 9.216 0 0.512 0 1.024 0.512 1.536 1.024 3.584 2.048 6.656 3.072 10.24 0.512 1.536 1.024 3.584 1.536 5.12s1.024 3.584 1.536 5.12 2.56 6.656 3.584 10.24c0.512 1.536 1.536 3.072 2.048 5.12 1.536 3.072 3.072 6.656 4.096 9.728 1.536 3.072 3.072 6.144 4.608 9.728 1.536 3.072 3.072 6.144 5.12 9.216 1.536 2.56 2.56 4.608 4.096 7.168 3.072 5.12 6.144 10.24 9.728 15.36 1.024 1.536 2.56 3.072 3.584 5.12 4.096 5.632 8.704 11.264 13.312 16.896v0c51.712 58.88 125.952 93.184 203.776 93.184 78.336 0 152.576-34.304 204.288-94.72 14.336-16.896 26.624-35.328 36.864-55.296 1.536-2.56 2.56-5.632 4.096-8.192 4.608-10.24 8.704-20.48 11.776-30.72 0.512-1.536 1.024-2.56 1.536-4.096s1.024-2.56 1.024-3.584c0.512-1.536 1.024-3.584 1.536-5.12s0.512-2.56 1.024-4.096c2.048-7.168 3.072-14.848 4.608-22.016 0.512-1.536 0.512-3.584 1.024-5.12 0.512-3.584 1.024-7.168 1.536-10.752 0-1.536 0.512-3.584 0.512-5.12h-538.624zM820.736 128c0 0 0 0.512 0 0.512-0.512 5.12-1.024 10.24-1.536 15.36s-1.536 10.24-2.048 15.36c-0.512 3.584-1.536 6.656-2.048 10.24s-1.536 6.656-2.56 10.24c0 0 0 0 0 0-1.024 3.584-1.536 6.656-2.56 10.24s-2.048 6.656-3.072 10.24c-1.024 3.072-2.048 6.656-3.072 9.728 0 0 0 0 0 0-1.024 3.072-2.56 6.656-3.584 9.728s-2.56 6.656-4.096 9.728c-2.56 5.12-4.608 10.24-7.168 15.36 0 0.512-0.512 1.024-0.512 1.536-0.512 1.536-1.536 3.072-2.048 4.608-1.024 2.048-2.048 3.584-3.072 5.632-0.512 1.536-1.536 2.56-2.048 4.096-1.536 2.56-2.56 4.608-4.096 7.168-1.536 3.072-3.584 5.632-5.12 8.192s-3.584 5.12-5.12 7.68c0 0.512-0.512 0.512-0.512 1.024 12.288 2.56 24.576 4.096 37.376 4.096 90.624 0 168.96-70.656 179.2-160.256h-162.304zM802.816 348.672c-69.632 0-125.952 56.32-125.952 125.952s56.32 125.952 125.952 125.952c69.632 0 125.952-56.32 125.952-125.952s-56.832-125.952-125.952-125.952zM802.816 559.104c-46.592 0-84.992-37.888-84.992-84.992 0-46.592 37.888-84.992 84.992-84.992 46.592 0 84.992 37.888 84.992 84.992-0.512 47.104-38.4 84.992-84.992 84.992zM221.184 348.672c-69.632 0-125.952 56.32-125.952 125.952s56.32 125.952 125.952 125.952 125.952-56.32 125.952-125.952c0-69.632-56.32-125.952-125.952-125.952zM221.184 559.104c-46.592 0-84.992-37.888-84.992-84.992 0-46.592 37.888-84.992 84.992-84.992s84.992 37.888 84.992 84.992c0 47.104-38.4 84.992-84.992 84.992z" />
<glyph unicode="&#xe930;" glyph-name="telegram-full" d="M1013.76 825.856c-9.216 9.728-23.040 13.824-35.84 10.24l-949.76-257.024c-15.36-4.096-25.6-16.896-26.624-32.256s7.168-29.696 21.504-35.84l230.4-102.4 38.912-262.656c0-1.024 0.512-2.56 1.024-3.584 0-4.608 1.024-8.704 4.096-12.8 4.096-5.632 10.24-8.704 16.896-8.704 4.096 0 8.704 1.536 12.288 4.096l142.336 104.448 240.64-217.088c6.656-6.144 15.36-9.216 24.576-9.216 3.072 0 6.144 0.512 9.216 1.024 11.776 3.072 21.504 11.776 25.088 23.552l253.952 761.856c3.584 12.288 0.512 26.624-8.704 36.352zM337.92 161.28l39.936 150.016 67.584-68.096-107.52-81.92zM373.76 350.72l-15.36-10.24-46.080-163.84-25.088 235.52 516.608 276.48c8.704 4.608 23.040-9.728 15.36-15.36l-445.44-322.56z" />
<glyph unicode="&#xe931;" glyph-name="telegram" d="M1013.76 825.856c-9.216 9.728-23.040 13.824-35.84 10.24l-949.76-257.024c-14.848-4.096-25.6-16.896-26.624-32.256s7.168-29.696 21.504-36.352l230.4-102.4 38.912-262.656c0-1.024 0.512-2.56 1.024-3.584 0-4.608 1.024-8.704 4.096-12.8 4.096-5.632 10.24-8.704 16.896-8.704 4.096 0 8.704 1.536 12.288 4.096l142.336 104.448 240.64-217.088c6.656-6.144 15.36-9.216 24.576-9.216 3.072 0 6.144 0.512 9.216 1.024 11.776 3.072 21.504 11.776 25.088 23.552l253.952 761.856c3.584 12.8 0.512 27.136-8.704 36.864zM318.976 248.32l-24.064 162.304 405.504 204.8-336.896-260.096c-10.752-9.728-15.872-14.848-24.576-26.112l-19.968-80.896zM348.16 192.512l29.696 118.784 59.392-53.248-89.088-65.536zM731.136 48.128l-249.856 225.28c0 0 0 0 0 0l-71.68 64.512 359.424 277.504c14.848 11.776 18.944 31.744 8.704 48.128s-29.696 22.016-47.104 13.312l-459.264-231.424-218.624 97.28 926.208 250.368-247.808-744.96z" />
<glyph unicode="&#xe932;" glyph-name="time" d="M713.216 256l-164.864 174.080c3.072 4.608 5.632 12.288 5.632 17.92 0 15.872-8.704 29.696-21.504 36.864v321.536c0 11.264-9.216 20.48-20.48 20.48s-20.48-9.216-20.48-20.48v-321.536c-12.8-7.168-21.504-20.992-21.504-36.352 0-23.040 18.944-41.984 41.984-41.984 4.608 0 10.752 2.048 14.848 3.584l2.048-2.048 162.816-172.032c3.584-3.584 8.192-5.632 12.8-5.632s6.656 2.048 10.24 5.12c6.656 6.144 5.12 13.312-1.536 20.48zM516.096 443.392c-1.024-1.024-2.56-1.536-4.096-1.536-3.584 0-6.144 2.56-6.144 6.144 0 1.536 0.512 3.072 1.536 4.096 1.024 1.536 2.56 2.048 4.608 2.048 1.536 0 3.584-1.024 4.608-2.048s1.536-2.56 1.536-4.096c0-2.56-1.024-3.584-2.048-4.608zM512 959.488c-282.112 0-512-229.376-512-511.488s229.888-512 512-512 512 229.376 512 511.488c0 282.624-229.888 512-512 512zM532.48-22.528v13.824c0 11.264-9.216 20.48-20.48 20.48s-20.48-9.216-20.48-20.48v-13.824c-243.2 10.24-439.296 206.336-450.048 450.048h14.336c11.264 0 20.48 9.216 20.48 20.48s-9.216 20.48-20.48 20.48h-14.336c10.24 243.2 206.848 439.296 450.048 450.048v-13.824c0-11.264 9.216-20.48 20.48-20.48s20.48 9.216 20.48 20.48v13.312c243.2-10.24 439.808-206.336 450.048-450.048h-14.336c-11.264 0-20.48-9.216-20.48-20.48s9.216-20.48 20.48-20.48h14.336c-10.752-242.688-206.848-438.784-450.048-449.536z" />
<glyph unicode="&#xe933;" glyph-name="twitter-full" d="M895.488 693.248c29.184 13.312 57.856 40.96 72.704 74.752 4.608 9.728-6.656 19.968-15.872 14.336-16.384-9.216-38.4-17.92-71.168-26.624-9.216-2.56-19.456-4.608-30.208-7.168-1.024-0.512-4.096-0.512-6.144 1.536-3.584 4.096-5.632 5.632-9.728 9.216s-8.704 7.168-13.312 10.752c-12.8 9.216-26.112 17.408-40.96 23.552-1.024 0.512-2.048 1.024-3.072 1.536-17.92 7.68-37.376 12.288-57.856 14.336-0.512 0-1.024 0-1.536 0-105.984 10.752-204.288-63.488-222.208-168.448-2.56-15.872-3.584-31.232-3.072-46.592 1.024-17.408-14.336-31.232-31.744-29.184-5.632 0.512-9.728 1.024-9.728 1.024-5.632 1.024-10.752 1.536-16.384 2.56-30.72 5.12-59.904 12.8-88.064 22.016-3.584 1.024-7.168 2.56-10.752 3.584-78.848 27.648-145.92 68.096-194.048 110.080-7.68 6.656-14.848 13.824-22.016 20.48-8.192 8.704-15.872 16.896-23.040 25.6-8.704 11.264-27.136 8.192-32.256-5.12-5.12-13.824-9.216-28.672-11.264-43.52-1.536-9.728-2.048-19.456-2.048-29.184 0 0-2.048-33.28 9.216-61.44 12.8-40.96 41.984-70.144 75.776-94.208 3.584-2.56 1.536-8.704-3.072-8.192-17.408 2.048-44.544 6.144-70.656 13.824-15.36 4.608-23.040-9.728-19.456-23.552 10.752-43.008 27.136-83.968 66.56-120.832 24.064-22.528 54.272-37.376 86.016-47.104 5.12-1.536 5.12-9.216-0.512-10.24-13.824-3.072-28.16-4.608-42.496-4.608h-0.512c-15.872 0-26.112-16.896-18.432-30.208 30.208-56.32 85.504-97.28 151.040-106.496 8.704-1.024 11.776-11.776 5.12-17.408-31.232-28.672-71.168-54.272-206.848-69.12-21.504-1.024-31.232-22.016-10.24-33.792 78.848-44.544 144.384-57.856 248.32-57.856 321.024 0 578.048 263.68 581.632 588.8 0 0.512 0 1.024 0 2.048 0 10.24 5.632 19.968 14.336 25.6 38.4 22.528 56.832 50.688 70.656 72.192 5.12 8.192-2.048 19.456-13.312 15.36 0 0-23.552-11.776-68.608-17.92-3.584-0.512-7.168-1.024-10.752-1.536 0 0-3.072-0.512-10.24 0.512-2.048 0.512-2.048 2.56-0.512 3.584l10.752 3.072z" />
<glyph unicode="&#xe934;" glyph-name="twitter" d="M335.872 7.68c-103.424 0-210.432 30.72-302.080 86.528-8.192 4.608-11.776 14.336-9.216 23.040s11.264 14.848 19.968 14.848c90.112-2.56 158.72 12.8 225.28 52.224-68.096 19.456-123.392 71.68-145.92 141.312-2.048 6.656-0.512 14.336 4.096 19.456 4.608 5.632 11.776 8.192 18.944 6.656 0 0 0.512 0 0.512 0-10.24 6.656-19.456 13.312-27.648 20.992-44.032 40.96-69.632 99.328-69.632 160.768 0 7.168 4.096 13.824 10.24 17.408s13.824 3.584 20.48 0c0 0 6.144-3.584 17.408-8.192-13.312 18.944-24.064 39.424-30.72 60.416-11.264 28.672-10.24 60.928-10.24 66.048 0 10.24 0.512 20.48 2.048 30.208 4.096 27.648 12.8 53.76 27.136 77.824 3.584 6.144 10.24 10.24 17.408 10.24 0 0 0 0 0 0 7.168 0 13.824-3.584 17.408-9.728 8.704-14.848 20.992-29.696 35.84-44.544 6.144-6.144 12.8-12.8 19.968-18.432 47.616-41.472 110.592-77.312 177.664-100.352 3.072-1.024 6.656-2.048 10.24-3.584 26.624-8.704 53.76-15.36 80.896-19.968 5.12-1.024 9.728-1.536 14.848-2.56 5.632-1.024 11.264-1.536 16.896-2.048-0.512 6.144-1.024 12.288-1.024 18.432 0 119.808 97.28 217.088 217.088 217.088 7.68 0 14.848-0.512 22.016-1.024 20.992-2.048 41.472-7.168 60.928-15.36 1.024-0.512 2.56-1.024 3.584-1.536 15.36-6.656 29.696-14.848 43.008-25.088 5.12-3.584 9.728-7.68 13.824-11.264 1.536-1.536 3.072-2.56 4.608-4.096 7.168 1.536 14.336 3.072 20.992 5.12 53.248 13.312 71.68 27.136 82.944 38.4 6.144 6.144 15.872 8.192 23.552 4.096 8.192-3.584 12.288-12.288 11.264-20.992-3.584-28.16-15.36-52.736-31.744-72.704 4.096 1.536 8.192 3.072 11.776 5.12 5.632 2.56 10.752 5.632 14.848 8.704 7.68 5.12 17.408 4.608 24.576-1.024s9.728-15.36 6.144-23.552c-1.024-3.072-29.696-71.68-95.744-110.592 0-2.56 0-4.608 0-6.144 1.024-321.024-257.024-582.144-574.464-582.144zM123.392 93.696c68.096-29.184 141.312-45.056 212.48-45.056 294.912 0 534.528 242.688 534.528 541.184 0 4.608 0 12.288-0.512 16.896v1.024c0 0 0 0 0 0-0.512 12.288 7.68 19.968 16.896 21.504 20.48 11.264 36.864 26.112 49.664 40.96-11.776-3.072-24.576-5.632-38.912-8.192-3.584-0.512-7.68-1.024-12.288-1.536-3.072 0-6.144-0.512-9.216-0.512-8.192 0-16.384 5.12-19.456 12.8-0.512 1.536-1.024 3.072-2.048 4.096-2.56 5.12-2.56 11.264 0 16.384 2.048 5.12 6.656 9.216 12.288 11.264 2.048 1.024 4.608 1.536 6.656 2.56 14.848 6.656 30.72 18.432 43.52 34.304-12.8-4.608-27.136-9.216-43.52-13.312-9.728-2.56-19.456-4.608-29.696-7.168-1.536-0.512-3.072-0.512-4.608-1.024-6.656-1.024-13.312 1.536-17.92 6.144-3.072 3.072-6.656 6.656-10.24 9.728s-7.168 6.144-11.264 9.216c-10.752 8.192-22.528 14.848-34.816 20.48 0 0-0.512 0-0.512 0.512-0.512 0.512-1.536 0.512-2.048 1.024-15.872 6.656-32.768 10.752-49.664 12.288-5.632 0.512-11.776 1.024-17.92 1.024-97.28 0-176.128-78.848-176.128-176.128 0-12.288 1.536-25.088 4.096-36.864 1.536-6.144-0.512-12.8-4.608-17.92s-10.752-7.168-16.896-7.168h-1.536c-15.36 1.024-29.696 2.56-43.52 4.608-5.12 0.512-10.752 1.536-15.872 2.56-29.184 5.12-58.368 12.288-87.040 21.504-3.584 1.024-7.168 2.56-10.752 3.584-72.192 25.088-140.288 63.488-191.488 108.544-7.68 6.656-14.848 13.312-22.016 20.48-7.168 7.68-14.336 14.848-20.48 22.528-3.584-10.752-6.144-21.504-8.192-32.768-1.024-8.192-1.536-16.896-1.536-25.088 0-0.512 0-0.512 0-1.024 0 0-1.536-28.16 7.68-50.176 0-0.512 0.512-1.024 0.512-1.536 11.776-38.4 40.448-74.752 75.776-97.792 8.192-5.12 11.264-15.36 8.192-24.576-3.584-9.216-12.8-14.336-22.528-12.8-30.208 5.12-55.296 12.8-73.216 18.944 6.656-37.376 25.6-72.192 53.76-98.304 22.528-20.992 54.272-36.352 91.136-44.544 9.216-2.048 15.36-9.728 15.872-18.944s-5.12-17.408-14.336-20.48c-20.992-6.656-43.008-10.24-65.536-10.24 29.696-54.784 86.528-90.624 150.016-91.648 8.704 0 16.384-6.144 18.944-14.336s0-17.408-7.168-22.528c-68.608-49.152-134.144-75.776-214.528-84.48z" />
<glyph unicode="&#xe935;" glyph-name="unlike" d="M512 24.064c-8.192 0-16.896 3.072-23.552 8.704l-365.056 315.904c-0.512 0.512-1.024 1.024-1.536 1.536l-38.912 38.912c-54.272 53.76-83.968 125.44-83.968 202.24s29.696 148.48 83.456 202.24c53.76 53.76 125.952 83.456 202.752 83.456s148.48-29.696 202.24-83.456l24.576-24.576 24.576 24.576c53.76 53.76 125.44 83.456 202.24 83.456s148.48-29.696 202.24-83.456c54.272-53.76 83.968-125.44 83.968-202.24s-29.696-148.48-83.456-202.24l-38.4-38.912c-0.512-0.512-1.024-1.024-2.048-2.048l-365.568-315.904c-6.656-5.632-15.36-8.192-23.552-8.192zM285.184 836.096c-66.048 0-127.488-25.6-173.056-71.68-46.080-46.080-71.68-107.52-71.68-173.568 0-65.536 25.6-127.488 71.68-173.568l38.912-38.912 361.472-312.32 361.984 312.832 38.4 38.4c46.080 46.080 71.68 107.52 71.68 173.568s-25.6 127.488-71.68 173.056c-46.080 46.080-108.032 71.68-173.568 71.68s-127.488-25.6-173.568-71.68l-28.16-28.16c-6.656-6.656-15.872-10.752-25.6-10.752 0 0 0 0 0 0-9.728 0-18.432 3.584-25.088 10.24l-28.16 28.16c-46.080 47.104-108.032 72.704-173.568 72.704z" />
<glyph unicode="&#xe936;" glyph-name="up" d="M285.184 421.888c-5.12 0-10.24 2.048-14.336 5.632-8.192 7.68-8.192 20.992-0.512 29.184l189.44 194.56c13.824 13.824 31.744 21.504 51.2 21.504 0 0 0 0 0.512 0 19.456 0 37.888-7.68 51.2-22.016 70.144-73.216 189.44-193.024 190.464-194.048 8.192-8.192 8.192-20.992 0-29.184s-20.992-8.192-29.184 0c-1.024 1.024-120.832 121.344-190.976 194.56-5.632 6.144-13.824 9.216-22.016 9.216s-16.384-3.072-22.016-9.216l-189.44-194.56c-3.584-3.584-9.216-5.632-14.336-5.632z" />
<glyph unicode="&#xe937;" glyph-name="user" d="M910.848-67.072h-797.696c-11.264 0-21.504 4.608-29.184 12.8s-11.776 18.944-11.264 29.696c5.632 112.128 54.272 217.088 136.192 295.936 82.432 78.848 189.952 122.368 303.104 122.368s220.672-43.52 303.104-122.368c82.432-78.336 130.56-183.296 136.192-295.936 0.512-11.264-3.584-22.016-11.264-29.696-7.168-8.192-17.92-12.8-29.184-12.8zM113.664-26.112h797.184c-10.752 212.48-185.856 378.368-398.336 378.368-212.992 0-388.096-165.888-398.848-378.368zM512 479.232c-132.608 0-240.128 107.52-240.128 240.128s107.52 240.128 240.128 240.128c132.608 0 240.128-107.52 240.128-240.128s-107.52-240.128-240.128-240.128zM512 918.528c-110.080 0-199.168-89.6-199.168-199.168s89.088-199.168 199.168-199.168c110.080 0 199.168 89.6 199.168 199.168s-89.088 199.168-199.168 199.168z" />
<glyph unicode="&#xe938;" glyph-name="video" d="M436.224 311.296c-3.072 0-6.656 0.512-9.728 2.048-7.168 3.584-12.288 11.264-12.288 19.456v230.4c0 8.192 5.12 15.872 12.288 19.456 7.68 3.584 16.384 2.56 23.040-3.072l171.52-120.32c5.12-4.096 7.68-10.24 7.68-16.896s-3.072-12.8-8.192-16.384l-171.52-110.592c-3.072-2.56-8.192-4.096-12.8-4.096zM457.728 516.608v-139.776l109.056 69.12-109.056 70.656zM896.512 934.912h-769.024c-56.32 0-102.4-46.080-102.4-102.4v-769.024c0-56.32 46.080-102.4 102.4-102.4h769.024c56.32 0 102.4 46.080 102.4 102.4v769.024c0 56.32-46.080 102.4-102.4 102.4zM955.904 832.512v-60.416h-117.248v119.808h57.856c32.768 0 59.392-26.624 59.392-59.392zM186.368 4.096h-58.88c-32.768 0-59.392 26.624-59.392 59.392v59.392h118.272v-118.784zM186.368 165.888h-118.272v109.568h118.272v-109.568zM186.368 318.976h-118.272v107.52h118.272v-107.52zM186.368 469.504h-118.272v106.496h118.272v-106.496zM186.368 619.52h-118.272v109.568h118.272v-109.568zM186.368 772.096h-118.272v60.416c0 32.768 26.624 59.392 59.392 59.392h58.88v-119.808zM795.136 4.096h-565.76v887.808h565.76v-887.808zM955.904 63.488c0-32.768-26.624-59.392-59.392-59.392h-57.856v118.784h117.248v-59.392zM955.904 165.888h-117.248v109.568h117.248v-109.568zM955.904 318.976h-117.248v107.52h117.248v-107.52zM955.904 469.504h-117.248v106.496h117.248v-106.496zM955.904 619.52h-117.248v109.568h117.248v-109.568z" />
</font>
</defs>
</svg>
