<?xml version="1.0" encoding="utf-8"?>
<!-- Generator: Adobe Illustrator 21.0.0, SVG Export Plug-In . SVG Version: 6.00 Build 0)  -->
<svg version="1.1" id="Layer_2" xmlns="http://www.w3.org/2000/svg" xmlns:xlink="http://www.w3.org/1999/xlink" x="0px" y="0px"
	 width="200px" height="200px" viewBox="0 0 200 200" style="enable-background:new 0 0 200 200;" xml:space="preserve">
<g>
	<path d="M176.5,10.5c-11.3,0-20.5,9.2-20.5,20.5c0,3.4,0.9,6.7,2.4,9.5l-24.6,20.5c-2.6-2-5.9-3.3-9.5-3.3c-4,0-7.7,1.5-10.5,4
		L83.5,49.3c0.2-0.9,0.3-1.8,0.3-2.7c0-7.1-5.7-12.8-12.8-12.8s-12.8,5.7-12.8,12.8c0,1,0.1,2.1,0.4,3.1L33.3,73
		c-3.2-3.2-7.5-5.1-12.1-5.1c-9.4,0-17,7.6-17,17s7.7,17,17,17c9.4,0,17-7.6,17-17c0-1.7-0.3-3.3-0.7-4.9l25.5-23.5
		c2.2,1.8,5,2.9,8.1,2.9c3.2,0,6.2-1.2,8.4-3.2l29.8,12.5c-0.5,1.5-0.7,3-0.7,4.7c0,8.6,7,15.6,15.6,15.6s15.6-7,15.6-15.6
		c0-2.1-0.4-4.1-1.2-6l24.8-20.6c3.6,3,8.2,4.8,13.2,4.8c11.3,0,20.5-9.2,20.5-20.6C197,19.8,187.8,10.5,176.5,10.5z M21.2,94
		c-5,0-9-4.1-9-9c0-5,4.1-9,9-9c3.4,0,6.5,1.9,8,4.9c0.7,1.3,1,2.7,1,4.2C30.2,90,26.2,94,21.2,94z M71,51.5c-2.7,0-4.8-2.1-4.8-4.8
		c0-2.6,2.2-4.8,4.8-4.8c2.6,0,4.8,2.2,4.8,4.8C75.8,49.3,73.7,51.5,71,51.5z M124.1,81c-4.2,0-7.6-3.4-7.6-7.6s3.4-7.6,7.6-7.6
		c4.2,0,7.6,3.4,7.6,7.6S128.3,81,124.1,81z M176.5,43.7c-6.9,0-12.5-5.6-12.5-12.6c0-6.9,5.6-12.5,12.5-12.5
		c6.9,0,12.5,5.6,12.5,12.5C189,38,183.4,43.7,176.5,43.7z"/>
</g>
<g>
	<path d="M18.9,189.4c-8.8,0-15.9-7.1-15.9-15.9v-31.4c0-8.8,7.1-15.9,15.9-15.9c8.8,0,15.9,7.1,15.9,15.9v31.4
		C34.8,182.3,27.7,189.4,18.9,189.4z M18.9,134.2c-4.4,0-7.9,3.6-7.9,7.9v31.4c0,4.4,3.6,7.9,7.9,7.9c4.4,0,7.9-3.6,7.9-7.9v-31.4
		C26.8,137.8,23.3,134.2,18.9,134.2z"/>
</g>
<g>
	<path d="M73,189.4c-8.8,0-15.9-7.1-15.9-15.9v-60.2c0-8.8,7.1-15.9,15.9-15.9s15.9,7.1,15.9,15.9v60.2
		C88.9,182.3,81.8,189.4,73,189.4z M73,105.4c-4.4,0-7.9,3.6-7.9,7.9v60.2c0,4.4,3.6,7.9,7.9,7.9s7.9-3.6,7.9-7.9v-60.2
		C80.9,109,77.3,105.4,73,105.4z"/>
</g>
<g>
	<path d="M127,189.4c-8.8,0-15.9-7.1-15.9-15.9v-45.4c0-8.8,7.1-15.9,15.9-15.9s15.9,7.1,15.9,15.9v45.4
		C142.9,182.3,135.8,189.4,127,189.4z M127,120.2c-4.4,0-7.9,3.6-7.9,7.9v45.4c0,4.4,3.6,7.9,7.9,7.9s7.9-3.6,7.9-7.9v-45.4
		C134.9,123.8,131.4,120.2,127,120.2z"/>
</g>
<g>
	<path d="M181.1,189.4c-8.8,0-15.9-7.1-15.9-15.9V102c0-8.8,7.1-15.9,15.9-15.9S197,93.2,197,102v71.5
		C197,182.3,189.9,189.4,181.1,189.4z M181.1,94.1c-4.4,0-7.9,3.6-7.9,7.9v71.5c0,4.4,3.6,7.9,7.9,7.9s7.9-3.6,7.9-7.9V102
		C189,97.6,185.4,94.1,181.1,94.1z"/>
</g>
</svg>
