<?xml version="1.0" encoding="utf-8"?>
<!-- Generator: Adobe Illustrator 21.0.0, SVG Export Plug-In . SVG Version: 6.00 Build 0)  -->
<svg version="1.1" id="Layer_1" xmlns="http://www.w3.org/2000/svg" xmlns:xlink="http://www.w3.org/1999/xlink" x="0px" y="0px"
	 width="200px" height="200px" viewBox="0 0 200 200" style="enable-background:new 0 0 200 200;" xml:space="preserve">
<g>
	<path d="M180,35.5h-6.8v-11c0-2.8-2.2-5-5-5s-5,2.2-5,5v11h-23.5v-11c0-2.8-2.2-5-5-5c-2.8,0-5,2.2-5,5v11h-23.4v-11
		c0-2.8-2.2-5-5-5c-2.8,0-5,2.2-5,5v11H72.9v-11c0-2.8-2.2-5-5-5s-5,2.2-5,5v11H39.4v-11c0-2.8-2.2-5-5-5s-5,2.2-5,5v11H20
		c-11,0-20,9-20,20v105c0,11,9,20,20,20h160c11,0,20-9,20-20v-105C200,44.5,191,35.5,180,35.5z M10,55.5c0-5.5,4.5-10,10-10h9.4v5.7
		c0,2.8,2.2,5,5,5s5-2.2,5-5v-5.7h23.5v5.7c0,2.8,2.2,5,5,5s5-2.2,5-5v-5.7h23.5v5.7c0,2.8,2.2,5,5,5c2.8,0,5-2.2,5-5v-5.7h23.4v5.7
		c0,2.8,2.2,5,5,5c2.8,0,5-2.2,5-5v-5.7h23.5v5.7c0,2.8,2.2,5,5,5s5-2.2,5-5v-5.7h6.8c5.5,0,10,4.5,10,10v13.1H10V55.5z M190,160.5
		c0,5.5-4.5,10-10,10H20c-5.5,0-10-4.5-10-10V78.6h180V160.5z"/>
</g>
<g>
	<path d="M49.2,115.3c-0.5,0-1,0-1.4-0.1c-3.9-0.6-7.1-3.8-7.7-7.7c-0.5-2.9,0.5-5.8,2.6-7.9c2.1-2.1,5-3,7.9-2.6
		c3.9,0.6,7.1,3.7,7.7,7.7c0,0,0,0,0,0c0.5,2.9-0.5,5.8-2.6,7.9C53.9,114.3,51.6,115.3,49.2,115.3z M49.9,105.9l-1.6,0.2
		c0.1,0.4,0.3,0.7,0.7,0.7c0.2,0,0.5,0,0.7-0.2C49.9,106.5,50,106.2,49.9,105.9C50,106,50,105.9,49.9,105.9z M49.2,105.3
		c-0.2,0-0.4,0.1-0.6,0.2c-0.2,0.2-0.3,0.5-0.2,0.7l1.6-0.2C49.9,105.6,49.6,105.3,49.2,105.3C49.2,105.3,49.2,105.3,49.2,105.3z"/>
</g>
<g>
	<path d="M83.7,115.3c-0.5,0-1,0-1.4-0.1c-3.9-0.6-7.1-3.8-7.7-7.7c-0.5-2.9,0.5-5.8,2.6-7.9c2.1-2.1,5-3,7.9-2.6
		c3.9,0.6,7.1,3.7,7.7,7.7l0,0c0.5,2.9-0.5,5.8-2.6,7.9C88.5,114.3,86.2,115.3,83.7,115.3z M82.9,106.2c0.1,0.4,0.3,0.7,0.7,0.7
		c0.2,0,0.5,0,0.7-0.2c0.2-0.2,0.3-0.5,0.2-0.7c-0.1-0.4-0.3-0.7-0.7-0.7c-0.2,0-0.5,0-0.7,0.2C83,105.7,82.9,106,82.9,106.2z
		 M82.9,106.2L82.9,106.2L82.9,106.2z"/>
</g>
<g>
	<path d="M118.3,115.3c-0.5,0-1,0-1.4-0.1c-3.9-0.6-7.1-3.8-7.7-7.7c-0.5-2.9,0.5-5.8,2.6-7.9c2.1-2.1,5-3,7.9-2.6
		c3.9,0.6,7.1,3.7,7.7,7.7l0,0c0,0,0,0,0,0c0,0,0,0,0,0c0.5,2.9-0.5,5.8-2.6,7.9C123,114.3,120.7,115.3,118.3,115.3z M117.5,106.2
		c0.1,0.4,0.3,0.7,0.7,0.7c0.2,0,0.5,0,0.7-0.2c0.2-0.2,0.3-0.5,0.2-0.7c-0.1-0.4-0.3-0.7-0.7-0.7c-0.2,0-0.5,0-0.7,0.2
		C117.5,105.7,117.5,106,117.5,106.2z M117.5,106.2L117.5,106.2L117.5,106.2z"/>
</g>
<g>
	<path d="M152.9,115.3c-0.5,0-1,0-1.4-0.1c-3.9-0.6-7.1-3.8-7.7-7.7c-0.5-2.9,0.5-5.8,2.6-7.9c2.1-2.1,5-3,7.9-2.6
		c3.9,0.6,7.1,3.7,7.7,7.7v0c0.5,2.9-0.5,5.8-2.6,7.9C157.6,114.3,155.3,115.3,152.9,115.3z M153.7,105.9l-1.6,0.2
		c0.1,0.4,0.3,0.7,0.7,0.7c0.2,0,0.5,0,0.7-0.2C153.6,106.5,153.7,106.2,153.7,105.9C153.7,106,153.7,105.9,153.7,105.9z
		 M152.9,105.3c-0.2,0-0.4,0.1-0.6,0.2c-0.2,0.2-0.3,0.5-0.2,0.7l1.6-0.2C153.6,105.6,153.3,105.3,152.9,105.3
		C152.9,105.3,152.9,105.3,152.9,105.3z"/>
</g>
<g>
	<path d="M49.2,147.7c-0.5,0-1,0-1.4-0.1c-3.9-0.6-7.1-3.7-7.7-7.7c-0.5-2.9,0.5-5.8,2.6-7.9c2.1-2.1,5-3,7.9-2.6
		c3.9,0.6,7.1,3.8,7.7,7.7c0,0,0,0,0,0c0.5,2.9-0.5,5.8-2.6,7.9C53.9,146.7,51.6,147.7,49.2,147.7z M49.9,138.4l-1.6,0.2
		c0.1,0.4,0.3,0.7,0.7,0.7c0.2,0,0.5,0,0.7-0.2C49.9,138.9,50,138.6,49.9,138.4C50,138.4,50,138.4,49.9,138.4z M49.2,137.7
		c-0.2,0-0.4,0.1-0.6,0.2c-0.2,0.2-0.3,0.5-0.2,0.7l1.6-0.2C49.9,138,49.6,137.8,49.2,137.7C49.2,137.7,49.2,137.7,49.2,137.7z"/>
</g>
<g>
	<path d="M83.7,147.7c-0.5,0-1,0-1.4-0.1c-3.9-0.6-7.1-3.7-7.7-7.7c-0.5-2.9,0.5-5.8,2.6-7.9c2.1-2.1,5-3,7.9-2.6
		c3.9,0.6,7.1,3.8,7.7,7.7c0.5,2.9-0.5,5.8-2.6,7.9C88.5,146.7,86.2,147.7,83.7,147.7z M82.9,138.6c0.1,0.4,0.3,0.7,0.7,0.7
		c0.2,0,0.5,0,0.7-0.2c0.2-0.2,0.3-0.5,0.2-0.7c-0.1-0.4-0.3-0.7-0.7-0.7c-0.2,0-0.5,0-0.7,0.2C83,138.1,82.9,138.4,82.9,138.6
		L82.9,138.6z"/>
</g>
<g>
	<path d="M118.3,147.7c-0.5,0-1,0-1.4-0.1c-3.9-0.6-7.1-3.7-7.7-7.7c-0.5-2.9,0.5-5.8,2.6-7.9c2.1-2.1,5-3,7.9-2.6
		c3.9,0.6,7.1,3.8,7.7,7.7c0.5,2.9-0.5,5.8-2.6,7.9C123,146.7,120.7,147.7,118.3,147.7z M117.5,138.6c0.1,0.4,0.3,0.7,0.7,0.7
		c0.2,0,0.5,0,0.7-0.2c0.2-0.2,0.3-0.5,0.2-0.7c-0.1-0.4-0.3-0.7-0.7-0.7c-0.2,0-0.5,0-0.7,0.2C117.5,138.1,117.5,138.4,117.5,138.6
		z M117.5,138.6L117.5,138.6L117.5,138.6z M117.5,138.6C117.5,138.6,117.5,138.6,117.5,138.6C117.5,138.6,117.5,138.6,117.5,138.6z"
		/>
</g>
<g>
	<path d="M152.9,147.7c-0.5,0-1,0-1.4-0.1c-3.9-0.6-7.1-3.7-7.7-7.7c-0.5-2.9,0.5-5.8,2.6-7.9c2.1-2.1,5-3,7.9-2.6
		c3.9,0.6,7.1,3.8,7.7,7.7c0,0,0,0,0,0c0.5,2.9-0.5,5.8-2.6,7.9C157.6,146.7,155.3,147.7,152.9,147.7z M153.7,138.4l-1.6,0.2
		c0.1,0.4,0.3,0.7,0.7,0.7c0.2,0,0.5,0,0.7-0.2C153.6,138.9,153.7,138.6,153.7,138.4C153.7,138.4,153.7,138.4,153.7,138.4z
		 M152.9,137.7c-0.2,0-0.4,0.1-0.6,0.2c-0.2,0.2-0.3,0.5-0.2,0.7l1.6-0.2C153.6,138,153.3,137.8,152.9,137.7
		C152.9,137.7,152.9,137.7,152.9,137.7z"/>
</g>
</svg>
