<?xml version="1.0" encoding="utf-8"?>
<!-- Generator: Adobe Illustrator 21.0.0, SVG Export Plug-In . SVG Version: 6.00 Build 0)  -->
<svg version="1.1" id="Layer_3" xmlns="http://www.w3.org/2000/svg" xmlns:xlink="http://www.w3.org/1999/xlink" x="0px" y="0px"
	 width="200px" height="200px" viewBox="0 0 200 200" style="enable-background:new 0 0 200 200;" xml:space="preserve">
<g>
	<path d="M168.2,196.7c0,0-0.1,0-0.1,0L24.5,196c-5.6,0-10.9-2.2-14.8-6.2c-4-4-6.1-9.3-6.1-14.9L4.3,31.3c0-5.6,2.2-10.9,6.2-14.8
		c4-3.9,9.2-6.1,14.8-6.1c0,0,0.1,0,0.1,0l71.8,0.4c2.2,0,4,1.8,4,4c0,2.2-1.8,4-4,4c0,0,0,0,0,0l-71.8-0.4c-3.5,0-6.8,1.3-9.2,3.8
		s-3.8,5.7-3.9,9.2l-0.7,143.6c0,3.5,1.3,6.8,3.8,9.2c2.4,2.5,5.7,3.8,9.2,3.9l143.6,0.7c0,0,0,0,0.1,0c3.5,0,6.7-1.3,9.2-3.8
		c2.5-2.4,3.8-5.7,3.9-9.2l0.4-71.8c0-2.2,1.8-4,4-4c0,0,0,0,0,0c2.2,0,4,1.8,4,4l-0.4,71.8c0,5.6-2.2,10.9-6.2,14.8
		C179,194.6,173.8,196.7,168.2,196.7z"/>
</g>
<g>
	<path d="M65.8,124.8L65.8,124.8l21.3,16.8L65.8,124.8z"/>
	<path d="M191.4,42.4c-0.6-4.7-2.9-8.9-6.6-11.8L160.9,12c-3.7-2.9-8.3-4.2-13-3.6s-8.9,2.9-11.8,6.6L123,31.7l-0.1,0.1l-64.5,82
		c0,0-0.1,0.1-0.1,0.1c-0.1,0.1-0.2,0.2-0.3,0.4c-0.1,0.1-0.2,0.3-0.3,0.5c0,0,0,0,0,0c-0.1,0.2-0.1,0.3-0.2,0.5v0
		c0,0.2-0.1,0.3-0.1,0.5c0,0.2,0,0.4,0,0.7v0.1l0.9,42.2c0,1.1,0.5,2.2,1.4,3c0.7,0.6,1.6,0.9,2.6,0.9c0.2,0,0.4,0,0.6,0l44.2-6.7
		l0.2,0c0,0,0,0,0,0c0.1,0,0.2,0,0.3-0.1c0,0,0,0,0,0c0.1,0,0.3-0.1,0.4-0.1c0.2-0.1,0.5-0.2,0.7-0.3c0,0,0,0,0,0
		c0.1,0,0.2-0.1,0.2-0.1c0.1,0,0.2-0.1,0.2-0.2c0.1-0.1,0.1-0.1,0.2-0.2c0.1-0.1,0.2-0.2,0.4-0.4c0,0,0.1-0.1,0.1-0.1c0,0,0,0,0-0.1
		l64.5-82.1c0.1-0.1,0.2-0.2,0.3-0.3l13-16.5C190.6,51.7,191.9,47.1,191.4,42.4z M66.4,154l-0.6-29.3v0l21.3,16.8l10,7.8L66.4,154z
		 M106.2,146.3l-4.4-3.5l-34.5-27.1l0,0l59.6-75.8l38.9,30.6L106.2,146.3z M181.4,50.5l-10.8,13.7l-38.9-30.6l10.7-13.7
		c1.6-2,3.9-3.3,6.4-3.6c2.6-0.3,5.1,0.4,7.1,2L179.8,37c2,1.6,3.3,3.9,3.6,6.4C183.7,46,183,48.5,181.4,50.5z"/>
</g>
<g>
	<path d="M67.2,115.7L67.2,115.7l34.5,27.1L67.2,115.7z"/>
</g>
<g>
	<path d="M31.1,56.6c-2.2,0-4-1.8-4-4c0-2.2,1.8-4,4-4l48.4-0.2c2.2-0.1,4,1.8,4,4c0,2.2-1.8,4-4,4L31.1,56.6
		C31.1,56.6,31.1,56.6,31.1,56.6z"/>
</g>
<g>
	<path d="M31.3,89.9c-2.2,0-4-1.8-4-4c0-2.2,1.8-4,4-4l22.3-0.1c0,0,0,0,0,0c2.2,0,4,1.8,4,4c0,2.2-1.8,4-4,4L31.3,89.9
		C31.3,89.9,31.3,89.9,31.3,89.9z"/>
</g>
</svg>
