<?xml version="1.0" encoding="utf-8"?>
<!-- Generator: Adobe Illustrator 21.0.0, SVG Export Plug-In . SVG Version: 6.00 Build 0)  -->
<svg version="1.1" id="Layer_2" xmlns="http://www.w3.org/2000/svg" xmlns:xlink="http://www.w3.org/1999/xlink" x="0px" y="0px"
	 width="200px" height="200px" viewBox="0 0 200 200" style="enable-background:new 0 0 200 200;" xml:space="preserve">
<g>
	<g>
		<path d="M10.3,189.7c-0.8,0-1.6-0.2-2.3-0.7c-1.5-1-2.1-2.9-1.5-4.6l6.5-19.3c-5.6-2.7-9.4-8.8-9.4-15.7V82.2
			c0-9.5,7.1-17.2,15.9-17.2h104.7c8.8,0,15.9,7.7,15.9,17.2v67.1c0,9.5-7.1,17.2-15.9,17.2H39.9l-27,22.2
			C12.1,189.4,11.2,189.7,10.3,189.7z M19.4,73c-4.4,0-7.9,4.1-7.9,9.2v67.1c0,4.6,3.1,8.6,7,9.1c1.2,0.2,2.2,0.8,2.9,1.8
			s0.8,2.3,0.4,3.4l-3.4,10l17.4-14.3c0.7-0.6,1.6-0.9,2.5-0.9h85.7c4.4,0,7.9-4.1,7.9-9.2V82.2c0-5.1-3.6-9.2-7.9-9.2H19.4z"/>
	</g>
</g>
<g>
	<g>
		<path d="M189.8,123.6c-0.8,0-1.7-0.3-2.4-0.8l-25.6-19.1h-6c-2.2,0-4-1.8-4-4s1.8-4,4-4h7.3c0.9,0,1.7,0.3,2.4,0.8l16,11.9
			l-3.1-8.4c-0.4-1.1-0.3-2.4,0.4-3.5c0.6-1,1.7-1.7,2.9-1.9c3.9-0.5,6.8-3.8,6.8-7.9V26.3c0-4.4-3.5-7.9-7.7-7.9H77.8
			c-4.3,0-7.7,3.6-7.7,7.9v26c0,2.2-1.8,4-4,4s-4-1.8-4-4v-26c0-8.8,7.1-15.9,15.7-15.9h102.9c8.7,0,15.7,7.1,15.7,15.9v60.6
			c0,6.3-3.7,11.9-9.1,14.4l6.2,17c0.6,1.7,0,3.5-1.4,4.6C191.5,123.4,190.6,123.6,189.8,123.6z"/>
	</g>
</g>
<g>
	<g>
		<path d="M165.2,44.3H92.9c-1.7,0-3-1.3-3-3s1.3-3,3-3h72.3c1.7,0,3,1.3,3,3S166.9,44.3,165.2,44.3z"/>
	</g>
</g>
<g>
	<g>
		<g>
			<path d="M45.7,126.6l1.5,5.9l-1.1,0.5c-1.5,0.7-4.4,1.5-8.3,1.5c-9.6,0-15.8-6.3-15.8-16.1c0-9.8,6.8-16.7,16.6-16.7
				c4.3,0,6.7,1,7.6,1.5l1.1,0.6l-1.8,5.9L44,109c-0.8-0.4-2.6-1.1-5.2-1.1c-6.1,0-9.8,3.9-9.8,10.4c0,6.4,3.5,10.1,9.6,10.1
				c2,0,4.1-0.4,5.4-1L45.7,126.6z"/>
		</g>
		<g>
			<path d="M78,132c-0.6-1-1.4-4.6-2.1-7.5c-0.5-2.4-1.5-4.2-2.8-5.4c2.5-1.7,4-4.4,4-7.6c0-2.7-1-5-2.8-6.6c-2.1-1.9-5-2.7-9.4-2.7
				c-2.7,0-5.5,0.2-7.5,0.6l-1.2,0.3v31.2h6.7v-12.5h2c2.4,0.1,3.6,0.8,4.4,4.4c1,4.4,1.6,6.4,2.1,7.3l0.4,0.8h7.2L78,132z
				 M70.4,111.9c0,2.5-1.9,4-5,4h-2.3v-7.8c0.5,0,1.3-0.1,2.2-0.1C70.4,108,70.4,110.9,70.4,111.9z"/>
		</g>
		<g>
			<path d="M111.4,120.1c-0.1-1.3-0.1-2.7-0.2-4.1c-0.3,1-0.7,2-1.1,3l-5.5,15h-5l-5-14.8c-0.3-0.9-0.6-1.8-0.9-2.6
				c-0.1,1.3-0.1,2.5-0.2,3.7l-0.9,13.8h-6.6l2.2-31.9h7.2l5.3,15c0.6,1.8,1.1,3.4,1.6,4.9c0.5-1.5,1-3.1,1.7-4.9l5.5-15h7.2l2,31.9
				h-6.7L111.4,120.1z"/>
		</g>
	</g>
</g>
</svg>
