<?xml version="1.0" encoding="utf-8"?>
<!-- Generator: Adobe Illustrator 21.0.0, SVG Export Plug-In . SVG Version: 6.00 Build 0)  -->
<svg version="1.1" id="Layer_2" xmlns="http://www.w3.org/2000/svg" xmlns:xlink="http://www.w3.org/1999/xlink" x="0px" y="0px"
	 width="200px" height="200px" viewBox="0 0 200 200" style="enable-background:new 0 0 200 200;" xml:space="preserve">
<g>
	<path d="M198.6,148.9c-20-17-31.4-39-30.5-58.8C170.3,39,145.8,17.1,131,8.5c-19-11-42.7-11-61.9-0.1C54.3,16.9,29.8,38.7,32,90.1
		c0.8,19.8-10.6,41.8-30.5,58.8c-1.3,1.1-1.7,2.9-1.1,4.4c0.6,1.6,2.1,2.6,3.8,2.6H67c-0.8,2.8-1.1,5.8-1.1,8.8
		c0,19.1,15.6,34.7,34.7,34.7s34.7-15.5,34.7-34.7c0-3-0.4-5.9-1.1-8.8H196c1.7,0,3.2-1,3.8-2.6C200.3,151.8,199.9,150,198.6,148.9z
		 M127.3,164.7c0,14.7-12,26.7-26.7,26.7s-26.7-12-26.7-26.7c0-3,0.5-5.9,1.5-8.8h50.4C126.8,158.8,127.3,161.7,127.3,164.7z
		 M14.2,148c17.1-17.5,26.6-38.7,25.8-58.2c-2-47.2,19.8-66.9,33.1-74.4c16.7-9.5,37.4-9.5,53.9,0.1c13.2,7.6,35.1,27.5,33.1,74.3
		c-0.8,19.5,8.7,40.7,25.8,58.2H14.2z"/>
</g>
</svg>
