<?xml version="1.0" encoding="utf-8"?>
<!-- Generator: Adobe Illustrator 21.0.0, SVG Export Plug-In . SVG Version: 6.00 Build 0)  -->
<svg version="1.1" id="Layer_3" xmlns="http://www.w3.org/2000/svg" xmlns:xlink="http://www.w3.org/1999/xlink" x="0px" y="0px"
	 width="200px" height="200px" viewBox="0 0 200 200" style="enable-background:new 0 0 200 200;" xml:space="preserve">
<g>
	<path d="M51.4,75.6c-0.2,0-0.5,0-0.7,0c-4.3,0.3-7.6,4.1-7.6,8.7v71.5c0,2.3-0.4,4.5-1.1,6.7c-0.7,1.9-1.6,3.8-2.8,5.4h0.3
		c1.2-1.6,2.1-3.4,2.8-5.4c0.8-2.2,1.1-4.4,1.1-6.7V84.3c0-4.5,3.3-8.3,7.6-8.7c0.2,0,0.5,0,0.7,0H51.4z"/>
</g>
<g>
	<path d="M50.1,67.6c-8.4,0.6-15,8-15,16.6v71.5c0,1.4-0.2,2.7-0.7,4.1c-1.5,4.2-5,7.3-9.3,8.1l0,0.1c0.1,0,0.2,0,0.3-0.1
		c4.3-0.8,7.9-4,9.3-8.1c0.5-1.3,0.7-2.7,0.7-4.1V84.3c0-8.7,6.6-16,15-16.6c0.2,0,0.4,0,0.7,0C50.7,67.6,50.4,67.6,50.1,67.6z"/>
</g>
<g>
	<path d="M180.6,67.6h-4.1v-5.5c0-11.5-9.3-20.8-20.8-20.8h-43c-4.5,0-8.7-2.4-11-6.3l-0.9-1.5C97.1,27.3,90.3,23.4,83,23.4H23
		c-11.3,0-20.5,9.2-20.5,20.4v111.9c0,11.3,9.2,20.5,20.5,20.5c1.2,0,2.4-0.1,3.7-0.3c0.2,0,0.5,0,0.7,0c0.5,0,1-0.1,1.6-0.1
		l126.5,0.4h25.2c9.6,0,17.4-7.8,17.4-17.4V85C198,75.4,190.2,67.6,180.6,67.6z M35.4,155.8c0,1.4-0.2,2.7-0.7,4.1
		c-1.4,4.2-5,7.3-9.3,8.1c-0.1,0-0.2,0-0.3,0.1c-0.7,0.1-1.4,0.2-2.1,0.2c-6.9,0-12.5-5.6-12.5-12.5V43.8c0-6.9,5.6-12.4,12.5-12.4
		h60c4.5,0,8.7,2.4,11,6.2l0.9,1.5c3.7,6.3,10.6,10.2,17.9,10.2h43c7,0,12.8,5.7,12.8,12.8v5.5h-117c-0.1,0-0.3,0-0.4,0
		c-0.2,0-0.4,0-0.7,0c-8.4,0.6-15,8-15,16.6V155.8z M190,158.8c0,5.2-4.2,9.4-9.4,9.4h-25.1l-116-0.4h-0.3c1.2-1.6,2.2-3.4,2.8-5.4
		c0.8-2.2,1.1-4.4,1.1-6.7V84.3c0-4.5,3.3-8.3,7.6-8.7c0.2,0,0.5,0,0.7,0h129.2c5.2,0,9.4,4.2,9.4,9.4v15.8h-85.5
		c-10.5,0-19,8.5-19,19v9.7c0,10.5,8.5,19,19,19H190V158.8z M190,108.8v31.7h-85.5c-6.1,0-11-4.9-11-11v-9.7c0-6.1,4.9-11,11-11H190
		z"/>
</g>
</svg>
