<?xml version="1.0" encoding="utf-8"?>
<!-- Generator: Adobe Illustrator 21.0.0, SVG Export Plug-In . SVG Version: 6.00 Build 0)  -->
<svg version="1.1" id="Layer_2" xmlns="http://www.w3.org/2000/svg" xmlns:xlink="http://www.w3.org/1999/xlink" x="0px" y="0px"
	 width="200px" height="200px" viewBox="0 0 200 200" style="enable-background:new 0 0 200 200;" xml:space="preserve">
<circle cx="101.5" cy="100.5" r="32.5"/>
<path d="M156,16H46c-16.5,0-30,13.5-30,30v110c0,16.5,13.5,30,30,30h110c16.5,0,30-13.5,30-30V46C186,29.5,172.5,16,156,16z
	 M101,150c-27.1,0-49-21.9-49-49s21.9-49,49-49s49,21.9,49,49S128.1,150,101,150z M158.8,57.9c-9.2,1.2-17-6.6-15.8-15.8
	c0.8-6.3,5.9-11.3,12.1-12.1c9.2-1.2,17,6.6,15.8,15.8C170.1,52,165,57.1,158.8,57.9z"/>
</svg>
