<?xml version="1.0" encoding="utf-8"?>
<!-- Generator: Adobe Illustrator 21.0.0, SVG Export Plug-In . SVG Version: 6.00 Build 0)  -->
<svg version="1.1" xmlns="http://www.w3.org/2000/svg" xmlns:xlink="http://www.w3.org/1999/xlink" x="0px" y="0px" width="200px"
	 height="200px" viewBox="0 0 200 200" style="enable-background:new 0 0 200 200;" xml:space="preserve">
<g id="Layer_3">
</g>
<g id="Layer_2">
	<g>
		<path d="M154,188H46c-18.7,0-34-15.3-34-34V46c0-18.7,15.3-34,34-34h108c18.7,0,34,15.3,34,34v108C188,172.7,172.7,188,154,188z
			 M46,20c-14.3,0-26,11.7-26,26v108c0,14.3,11.7,26,26,26h108c14.3,0,26-11.7,26-26V46c0-14.3-11.7-26-26-26H46z"/>
	</g>
	<circle cx="155" cy="44" r="14"/>
	<g>
		<path d="M101,150c-27,0-49-22-49-49s22-49,49-49s49,22,49,49S128,150,101,150z M101,60c-22.6,0-41,18.4-41,41s18.4,41,41,41
			s41-18.4,41-41S123.6,60,101,60z"/>
	</g>
</g>
</svg>
