<?xml version="1.0" encoding="utf-8"?>
<!-- Generator: Adobe Illustrator 21.0.0, SVG Export Plug-In . SVG Version: 6.00 Build 0)  -->
<svg version="1.1" id="Layer_2" xmlns="http://www.w3.org/2000/svg" xmlns:xlink="http://www.w3.org/1999/xlink" x="0px" y="0px"
	 width="200px" height="200px" viewBox="0 0 200 200" style="enable-background:new 0 0 200 200;" xml:space="preserve">
<path d="M37.5,193H16.9c-5.5,0-10-4.5-10-10V81.3c0-5.5,4.5-10,10-10h20.6c5.5,0,10,4.5,10,10V183C47.5,188.5,43,193,37.5,193z"/>
<path d="M194,119.9v59.9c0,7.3-5.9,13.2-13.2,13.2h-14.3c-7.3,0-13.2-5.9-13.2-13.2v-57.2c0-12.5-9.6-22.6-21.5-22.6
	c-11.2,0-20.4,9-21.4,20.5v59.3c0,7.3-5.9,13.2-13.2,13.2H83c-7.3,0-13.2-5.9-13.2-13.2V84.5c0-7.3,5.9-13.2,13.2-13.2h14.3
	c7.3,0,13.2,5.9,13.2,13.2v0c0,1.4,1.7,1.9,2.5,0.9c7.8-9.9,19.6-16.2,35.1-16.2c5.4,0,10.3,0.7,14.8,2.1
	C183.1,77.6,194,97,194,119.9z"/>
<ellipse cx="27.4" cy="28.7" rx="20.1" ry="20.2"/>
</svg>
