<?xml version="1.0" encoding="utf-8"?>
<!-- Generator: Adobe Illustrator 21.0.0, SVG Export Plug-In . SVG Version: 6.00 Build 0)  -->
<svg version="1.1" id="Layer_2" xmlns="http://www.w3.org/2000/svg" xmlns:xlink="http://www.w3.org/1999/xlink" x="0px" y="0px"
	 width="200px" height="200px" viewBox="0 0 200 200" style="enable-background:new 0 0 200 200;" xml:space="preserve">
<g>
	<path d="M37.5,197H16.9c-7.7,0-14-6.3-14-14V81.3c0-7.7,6.3-14,14-14h20.6c7.7,0,14,6.3,14,14V183C51.5,190.7,45.2,197,37.5,197z
		 M16.9,75.3c-3.3,0-6,2.7-6,6V183c0,3.3,2.7,6,6,6h20.6c3.3,0,6-2.7,6-6V81.3c0-3.3-2.7-6-6-6H16.9z"/>
</g>
<g>
	<path d="M180.8,197h-14.3c-9.5,0-17.2-7.7-17.2-17.2v-57.2c0-10.3-7.9-18.6-17.5-18.6c-9,0-16.5,7.2-17.4,16.7v59.2
		c0,9.5-7.7,17.2-17.2,17.2H83c-9.5,0-17.2-7.7-17.2-17.2V84.5c0-9.5,7.7-17.2,17.2-17.2h14.3c7.5,0,13.8,4.8,16.2,11.4
		c8.8-8.9,20.7-13.6,34.6-13.6c5.6,0,11,0.8,16,2.3C185,74,198,94.1,198,119.9v59.9C198,189.3,190.3,197,180.8,197z M131.9,96
		c14.1,0,25.5,11.9,25.5,26.6v57.2c0,5,4.1,9.2,9.2,9.2h14.3c5,0,9.2-4.1,9.2-9.2v-59.9c0-22.2-10.8-39.3-28.3-44.8
		c-4.2-1.3-8.7-2-13.6-2c-13.4,0-24.5,5.1-32,14.6c-1.4,1.8-3.8,2.6-6,1.8c-2.2-0.8-3.7-2.8-3.7-5.1c0-5-4.1-9.2-9.2-9.2H83
		c-5,0-9.2,4.1-9.2,9.2v95.4c0,5,4.1,9.2,9.2,9.2h14.3c5,0,9.2-4.1,9.2-9.2l0-59.7C107.7,106.4,118.6,96,131.9,96z"/>
</g>
<g>
	<path d="M27.4,52.9C14.1,52.9,3.3,42,3.3,28.7S14.1,4.6,27.4,4.6s24.1,10.8,24.1,24.2S40.7,52.9,27.4,52.9z M27.4,12.6
		c-8.9,0-16.1,7.2-16.1,16.2s7.2,16.2,16.1,16.2s16.1-7.2,16.1-16.2S36.3,12.6,27.4,12.6z"/>
</g>
</svg>
