<?xml version="1.0" encoding="utf-8"?>
<!-- Generator: Adobe Illustrator 21.0.0, SVG Export Plug-In . SVG Version: 6.00 Build 0)  -->
<svg version="1.1" id="Layer_3" xmlns="http://www.w3.org/2000/svg" xmlns:xlink="http://www.w3.org/1999/xlink" x="0px" y="0px"
	 width="200px" height="200px" viewBox="0 0 200 200" style="enable-background:new 0 0 200 200;" xml:space="preserve">
<path d="M198,26.2c-1.8-1.9-4.5-2.7-7-2L5.5,74.4c-3,0.8-5,3.3-5.2,6.3c-0.2,3,1.4,5.8,4.2,7l45,20l7.6,51.3c0,0.2,0.1,0.5,0.2,0.7
	c0,0.9,0.2,1.7,0.8,2.5c0.8,1.1,2,1.7,3.3,1.7c0.8,0,1.7-0.3,2.4-0.8l27.8-20.4l47,42.4c1.3,1.2,3,1.8,4.8,1.8
	c0.6,0,1.2-0.1,1.8-0.2c2.3-0.6,4.2-2.3,4.9-4.6l49.6-148.8C200.4,30.9,199.8,28.1,198,26.2z M66,156l7.8-29.3L87,140L66,156z
	 M73,119l-3,2l-9,32l-4.9-46L157,53c1.7-0.9,4.5,1.9,3,3L73,119z"/>
</svg>
