<?xml version="1.0" encoding="utf-8"?>
<!-- Generator: Adobe Illustrator 21.0.0, SVG Export Plug-In . SVG Version: 6.00 Build 0)  -->
<svg version="1.1" id="Layer_3" xmlns="http://www.w3.org/2000/svg" xmlns:xlink="http://www.w3.org/1999/xlink" x="0px" y="0px"
	 width="200px" height="200px" viewBox="0 0 200 200" style="enable-background:new 0 0 200 200;" xml:space="preserve">
<g>
	<path d="M198,26.2c-1.8-1.9-4.5-2.7-7-2L5.5,74.4c-2.9,0.8-5,3.3-5.2,6.3c-0.2,3,1.4,5.8,4.2,7.1l45,20l7.6,51.3
		c0,0.2,0.1,0.5,0.2,0.7c0,0.9,0.2,1.7,0.8,2.5c0.8,1.1,2,1.7,3.3,1.7c0.8,0,1.7-0.3,2.4-0.8l27.8-20.4l47,42.4
		c1.3,1.2,3,1.8,4.8,1.8c0.6,0,1.2-0.1,1.8-0.2c2.3-0.6,4.2-2.3,4.9-4.6l49.6-148.8C200.4,30.9,199.8,28.1,198,26.2z M62.3,139
		l-4.7-31.7l79.2-40l-65.8,50.8c-2.1,1.9-3.1,2.9-4.8,5.1L62.3,139z M68,149.9l5.8-23.2l11.6,10.4L68,149.9z M142.8,178.1
		l-47.9-43.2l-0.9-0.8c0,0,0,0,0,0l-14-12.6l70.2-54.2c2.9-2.3,3.7-6.2,1.7-9.4c-2-3.2-5.8-4.3-9.2-2.6l-89.7,45.2l-42.7-19
		l180.9-48.9L142.8,178.1z"/>
</g>
</svg>
