<?xml version="1.0" encoding="utf-8"?>
<!-- Generator: Adobe Illustrator 21.0.0, SVG Export Plug-In . SVG Version: 6.00 Build 0)  -->
<svg version="1.1" id="Layer_3" xmlns="http://www.w3.org/2000/svg" xmlns:xlink="http://www.w3.org/1999/xlink" x="0px" y="0px"
	 width="200px" height="200px" viewBox="0 0 200 200" style="enable-background:new 0 0 200 200;" xml:space="preserve">
<g>
	<path d="M65.6,186c-20.2,0-41.1-6-59-16.9c-1.6-0.9-2.3-2.8-1.8-4.5c0.5-1.7,2.2-2.9,3.9-2.9c17.6,0.5,31-2.5,44-10.2
		c-13.3-3.8-24.1-14-28.5-27.6c-0.4-1.3-0.1-2.8,0.8-3.8c0.9-1.1,2.3-1.6,3.7-1.3c0,0,0.1,0,0.1,0c-2-1.3-3.8-2.6-5.4-4.1
		c-8.6-8-13.6-19.4-13.6-31.4c0-1.4,0.8-2.7,2-3.4c1.2-0.7,2.7-0.7,4,0c0,0,1.2,0.7,3.4,1.6c-2.6-3.7-4.7-7.7-6-11.8
		c-2.2-5.6-2-11.9-2-12.9c0-2,0.1-4,0.4-5.9c0.8-5.4,2.5-10.5,5.3-15.2c0.7-1.2,2-2,3.4-2c0,0,0,0,0,0c1.4,0,2.7,0.7,3.4,1.9
		c1.7,2.9,4.1,5.8,7,8.7c1.2,1.2,2.5,2.5,3.9,3.6c9.3,8.1,21.6,15.1,34.7,19.6c0.6,0.2,1.3,0.4,2,0.7c5.2,1.7,10.5,3,15.8,3.9
		c1,0.2,1.9,0.3,2.9,0.5c1.1,0.2,2.2,0.3,3.3,0.4c-0.1-1.2-0.2-2.4-0.2-3.6c0-23.4,19-42.4,42.4-42.4c1.5,0,2.9,0.1,4.3,0.2
		c4.1,0.4,8.1,1.4,11.9,3c0.2,0.1,0.5,0.2,0.7,0.3c3,1.3,5.8,2.9,8.4,4.9c1,0.7,1.9,1.5,2.7,2.2c0.3,0.3,0.6,0.5,0.9,0.8
		c1.4-0.3,2.8-0.6,4.1-1c10.4-2.6,14-5.3,16.2-7.5c1.2-1.2,3.1-1.6,4.6-0.8c1.6,0.7,2.4,2.4,2.2,4.1c-0.7,5.5-3,10.3-6.2,14.2
		c0.8-0.3,1.6-0.6,2.3-1c1.1-0.5,2.1-1.1,2.9-1.7c1.5-1,3.4-0.9,4.8,0.2c1.4,1.1,1.9,3,1.2,4.6c-0.2,0.6-5.8,14-18.7,21.6
		c0,0.5,0,0.9,0,1.2C178,135,127.6,186,65.6,186z M24.1,169.2c13.3,5.7,27.6,8.8,41.5,8.8C123.2,178,170,130.6,170,72.3
		c0-0.9,0-2.4-0.1-3.3l0-0.2c0,0,0,0,0,0c-0.1-2.4,1.5-3.9,3.3-4.2c4-2.2,7.2-5.1,9.7-8c-2.3,0.6-4.8,1.1-7.6,1.6
		c-0.7,0.1-1.5,0.2-2.4,0.3c-0.6,0-1.2,0.1-1.8,0.1c-1.6,0-3.2-1-3.8-2.5c-0.1-0.3-0.2-0.6-0.4-0.8c-0.5-1-0.5-2.2,0-3.2
		c0.4-1,1.3-1.8,2.4-2.2c0.4-0.2,0.9-0.3,1.3-0.5c2.9-1.3,6-3.6,8.5-6.7c-2.5,0.9-5.3,1.8-8.5,2.6c-1.9,0.5-3.8,0.9-5.8,1.4
		c-0.3,0.1-0.6,0.1-0.9,0.2c-1.3,0.2-2.6-0.3-3.5-1.2c-0.6-0.6-1.3-1.3-2-1.9c-0.7-0.6-1.4-1.2-2.2-1.8c-2.1-1.6-4.4-2.9-6.8-4
		c0,0-0.1,0-0.1-0.1c-0.1-0.1-0.3-0.1-0.4-0.2c-3.1-1.3-6.4-2.1-9.7-2.4c-1.1-0.1-2.3-0.2-3.5-0.2c-19,0-34.4,15.4-34.4,34.4
		c0,2.4,0.3,4.9,0.8,7.2c0.3,1.2-0.1,2.5-0.9,3.5c-0.8,1-2.1,1.4-3.3,1.4l-0.3,0c-3-0.2-5.8-0.5-8.5-0.9c-1-0.1-2.1-0.3-3.1-0.5
		c-5.7-1-11.4-2.4-17-4.2c-0.7-0.2-1.4-0.5-2.1-0.7c-14.1-4.9-27.4-12.4-37.4-21.2c-1.5-1.3-2.9-2.6-4.3-4c-1.4-1.5-2.8-2.9-4-4.4
		c-0.7,2.1-1.2,4.2-1.6,6.4c-0.2,1.6-0.3,3.3-0.3,4.9c0,0.1,0,0.1,0,0.2c0,0-0.3,5.5,1.5,9.8c0,0.1,0.1,0.2,0.1,0.3
		c2.3,7.5,7.9,14.6,14.8,19.1c1.6,1,2.2,3,1.6,4.8c-0.7,1.8-2.5,2.8-4.4,2.5c-5.9-1-10.8-2.5-14.3-3.7c1.3,7.3,5,14.1,10.5,19.2
		c4.4,4.1,10.6,7.1,17.8,8.7c1.8,0.4,3,1.9,3.1,3.7c0.1,1.8-1,3.4-2.8,4c-4.1,1.3-8.4,2-12.8,2c5.8,10.7,16.9,17.7,29.3,17.9
		c1.7,0,3.2,1.2,3.7,2.8c0.5,1.6,0,3.4-1.4,4.4C52.6,162.3,39.8,167.5,24.1,169.2z"/>
</g>
</svg>
