<?xml version="1.0" encoding="utf-8"?>
<!-- Generator: Adobe Illustrator 21.0.0, SVG Export Plug-In . SVG Version: 6.00 Build 0)  -->
<svg version="1.1" id="Layer_3" xmlns="http://www.w3.org/2000/svg" xmlns:xlink="http://www.w3.org/1999/xlink" x="0px" y="0px"
	 width="200px" height="200px" viewBox="0 0 200 200" style="enable-background:new 0 0 200 200;" xml:space="preserve">
<path d="M174.9,52.1c5.7-2.6,11.3-8,14.2-14.6c0.9-1.9-1.3-3.9-3.1-2.8c-3.2,1.8-7.5,3.5-13.9,5.2c-1.8,0.5-3.8,0.9-5.9,1.4
	c-0.2,0.1-0.8,0.1-1.2-0.3c-0.7-0.8-1.1-1.1-1.9-1.8c-0.8-0.7-1.7-1.4-2.6-2.1c-2.5-1.8-5.1-3.4-8-4.6c-0.2-0.1-0.4-0.2-0.6-0.3
	c-3.5-1.5-7.3-2.4-11.3-2.8c-0.1,0-0.2,0-0.3,0c-20.7-2.1-39.9,12.4-43.4,32.9c-0.5,3.1-0.7,6.1-0.6,9.1c0.2,3.4-2.8,6.1-6.2,5.7
	c-1.1-0.1-1.9-0.2-1.9-0.2c-1.1-0.2-2.1-0.3-3.2-0.5c-6-1-11.7-2.5-17.2-4.3c-0.7-0.2-1.4-0.5-2.1-0.7C50.3,66,37.2,58.1,27.8,49.9
	c-1.5-1.3-2.9-2.7-4.3-4c-1.6-1.7-3.1-3.3-4.5-5c-1.7-2.2-5.3-1.6-6.3,1c-1,2.7-1.8,5.6-2.2,8.5c-0.3,1.9-0.4,3.8-0.4,5.7
	c0,0-0.4,6.5,1.8,12c2.5,8,8.2,13.7,14.8,18.4c0.7,0.5,0.3,1.7-0.6,1.6c-3.4-0.4-8.7-1.2-13.8-2.7c-3-0.9-4.5,1.9-3.8,4.6
	c2.1,8.4,5.3,16.4,13,23.6c4.7,4.4,10.6,7.3,16.8,9.2c1,0.3,1,1.8-0.1,2c-2.7,0.6-5.5,0.9-8.3,0.9l-0.1,0c-3.1,0-5.1,3.3-3.6,5.9
	c5.9,11,16.7,19,29.5,20.8c1.7,0.2,2.3,2.3,1,3.4c-6.1,5.6-13.9,10.6-40.4,13.5c-4.2,0.2-6.1,4.3-2,6.6
	c15.4,8.7,28.2,11.3,48.5,11.3c62.7,0,112.9-51.5,113.6-115c0-0.1,0-0.2,0-0.4c0-2,1.1-3.9,2.8-5c7.5-4.4,11.1-9.9,13.8-14.1
	c1-1.6-0.4-3.8-2.6-3c0,0-4.6,2.3-13.4,3.5c-0.7,0.1-1.4,0.2-2.1,0.3c0,0-0.6,0.1-2-0.1c-0.4-0.1-0.4-0.5-0.1-0.7L174.9,52.1z"/>
</svg>
