<?xml version="1.0" encoding="utf-8"?>
<!-- Generator: Adobe Illustrator 21.0.0, SVG Export Plug-In . SVG Version: 6.00 Build 0)  -->
<svg version="1.1" id="Layer_3" xmlns="http://www.w3.org/2000/svg" xmlns:xlink="http://www.w3.org/1999/xlink" x="0px" y="0px"
	 width="200px" height="200px" viewBox="0 0 200 200" style="enable-background:new 0 0 200 200;" xml:space="preserve">
<g>
	<path d="M177.9,200.6H22.1c-2.2,0-4.2-0.9-5.7-2.5c-1.5-1.6-2.3-3.7-2.2-5.8c1.1-21.9,10.6-42.4,26.6-57.8
		c16.1-15.4,37.1-23.9,59.2-23.9s43.1,8.5,59.2,23.9c16.1,15.3,25.5,35.8,26.6,57.8c0.1,2.2-0.7,4.3-2.2,5.8
		C182.2,199.7,180.1,200.6,177.9,200.6z M22.2,192.6h155.7c-2.1-41.5-36.3-73.9-77.8-73.9C58.5,118.7,24.3,151.1,22.2,192.6z"/>
</g>
<g>
	<path d="M100,93.9c-25.9,0-46.9-21-46.9-46.9S74.1,0.1,100,0.1c25.9,0,46.9,21,46.9,46.9S125.9,93.9,100,93.9z M100,8.1
		C78.5,8.1,61.1,25.6,61.1,47S78.5,85.9,100,85.9c21.5,0,38.9-17.5,38.9-38.9S121.5,8.1,100,8.1z"/>
</g>
</svg>
