<?xml version="1.0" encoding="utf-8"?>
<!-- Generator: Adobe Illustrator 21.0.0, SVG Export Plug-In . SVG Version: 6.00 Build 0)  -->
<svg version="1.1" id="Layer_2" xmlns="http://www.w3.org/2000/svg" xmlns:xlink="http://www.w3.org/1999/xlink" x="0px" y="0px"
	 width="200px" height="200px" viewBox="0 0 200 200" style="enable-background:new 0 0 200 200;" xml:space="preserve">
<g>
	<g>
		<path d="M138.3,160.4l-18.5-18.5c-2.7-2.6-6.2-4.1-9.9-4.1c-3.8,0-7.3,1.5-9.9,4.1l-9,9c-2.8,2.8-7.2,2.8-10,0l-30.6-30.6
			c-2.8-2.8-2.8-7.2,0-10l9.4-9.4c5.3-5.3,5.3-13.9,0-19.2L40.5,62.7c-2.6-2.6-6-4-9.6-4c-3.6,0-7,1.4-9.6,4L21,63
			C10.7,73.3,5,87.1,5,101.8s5.7,28.5,16,38.8l39.7,39.7c10.7,10.7,24.7,16,38.8,16c14,0,28.1-5.3,38.8-16c2.6-2.6,4.1-6.2,4.1-9.9
			C142.4,166.6,140.9,163.1,138.3,160.4z M26.7,68.6l0.3-0.3c1-1,2.4-1.6,3.9-1.6c1.5,0,2.9,0.6,3.9,1.6L54,87.5
			c2.2,2.2,2.2,5.7,0,7.8l-2.9,2.9L24.2,71.3C25,70.4,25.8,69.5,26.7,68.6z M66.4,174.6l-39.7-39.7c-8.8-8.8-13.7-20.6-13.7-33.1
			c0-8.6,2.3-16.8,6.5-23.9l26,26l-0.8,0.8c-5.9,5.9-5.9,15.4,0,21.3l30.6,30.6c2.9,2.9,6.8,4.4,10.6,4.4c3.9,0,7.7-1.5,10.7-4.4
			l0.8-0.8l26,26C105.4,192.4,81.8,190,66.4,174.6z M132.6,174.6c-0.8,0.9-1.7,1.7-2.6,2.5h0L103,150.1l2.5-2.5
			c1.1-1.1,2.6-1.8,4.3-1.8c1.6,0,3.1,0.6,4.3,1.8l18.5,18.5C135,168.4,135,172.3,132.6,174.6z"/>
	</g>
</g>
<g>
	<path d="M85.8,121.6c-1.1,0-2.1-0.4-2.9-1.2c-1.1-1.1-1.4-2.7-0.9-4.2l10.6-28.7c-5.2-8.6-8-18.4-8-28.6
		c0-30.4,24.8-55.2,55.2-55.2c30.4,0,55.2,24.8,55.2,55.2c0,30.4-24.8,55.2-55.2,55.2c-6.9,0-13.6-1.3-20-3.7l-32.8,11
		C86.6,121.6,86.2,121.6,85.8,121.6z M139.8,11.7c-26,0-47.2,21.2-47.2,47.2c0,9.3,2.7,18.2,7.8,25.9c0.7,1.1,0.9,2.4,0.4,3.6
		l-8.4,22.7l26.2-8.8c0.9-0.3,1.9-0.3,2.8,0.1c5.8,2.4,12,3.7,18.3,3.7c26,0,47.2-21.2,47.2-47.2C187,32.9,165.8,11.7,139.8,11.7z"
		/>
</g>
<g>
	<path d="M141,63.9c-3,0-5.5-2.5-5.5-5.5s2.5-5.5,5.5-5.5s5.5,2.5,5.5,5.5S144,63.9,141,63.9z"/>
</g>
<g>
	<path d="M118.6,63.9c-3,0-5.5-2.5-5.5-5.5s2.5-5.5,5.5-5.5s5.5,2.5,5.5,5.5S121.6,63.9,118.6,63.9z"/>
</g>
<g>
	<path d="M163.4,63.9c-3,0-5.5-2.5-5.5-5.5s2.5-5.5,5.5-5.5c3,0,5.5,2.5,5.5,5.5S166.4,63.9,163.4,63.9z"/>
</g>
</svg>
