<?xml version="1.0" encoding="utf-8"?>
<!-- Generator: Adobe Illustrator 21.0.0, SVG Export Plug-In . SVG Version: 6.00 Build 0)  -->
<svg version="1.1" id="Layer_2" xmlns="http://www.w3.org/2000/svg" xmlns:xlink="http://www.w3.org/1999/xlink" x="0px" y="0px"
	 width="200px" height="200px" viewBox="0 0 200 200" style="enable-background:new 0 0 200 200;" xml:space="preserve">
<g>
	<path d="M171.2,180H28.8c-9.5,0-17.3-7.8-17.3-17.3V37.3c0-9.5,7.8-17.3,17.3-17.3h142.4c9.5,0,17.3,7.8,17.3,17.3v125.4
		C188.5,172.2,180.7,180,171.2,180z M28.8,28c-5.1,0-9.3,4.2-9.3,9.3v125.4c0,5.1,4.2,9.3,9.3,9.3h142.4c5.1,0,9.3-4.2,9.3-9.3V37.3
		c0-5.1-4.2-9.3-9.3-9.3H28.8z"/>
</g>
<g>
	<path d="M155.5,77.2h-53c-2.2,0-4-1.8-4-4s1.8-4,4-4h53c2.2,0,4,1.8,4,4S157.7,77.2,155.5,77.2z"/>
</g>
<g>
	<path d="M155.5,135.6h-53c-2.2,0-4-1.8-4-4s1.8-4,4-4h53c2.2,0,4,1.8,4,4S157.7,135.6,155.5,135.6z"/>
</g>
<g>
	<path d="M52,77.2c-1.1,0-2.1-0.4-2.8-1.2L35.7,62.5c-1.6-1.6-1.6-4.1,0-5.7c1.6-1.6,4.1-1.6,5.7,0L52,67.6l27.3-27.3
		c1.6-1.6,4.1-1.6,5.7,0c1.6,1.6,1.6,4.1,0,5.7L54.8,76.1C54.1,76.8,53.1,77.2,52,77.2z"/>
</g>
<g>
	<path d="M52,135.6c-1.1,0-2.1-0.4-2.8-1.2l-13.5-13.5c-1.6-1.6-1.6-4.1,0-5.7c1.6-1.6,4.1-1.6,5.7,0L52,125.9l27.3-27.3
		c1.6-1.6,4.1-1.6,5.7,0c1.6,1.6,1.6,4.1,0,5.7l-30.2,30.2C54.1,135.1,53.1,135.6,52,135.6z"/>
</g>
</svg>
