<?xml version="1.0" encoding="utf-8"?>
<!-- Generator: Adobe Illustrator 21.0.0, SVG Export Plug-In . SVG Version: 6.00 Build 0)  -->
<svg version="1.1" id="Layer_2" xmlns="http://www.w3.org/2000/svg" xmlns:xlink="http://www.w3.org/1999/xlink" x="0px" y="0px"
	 width="200px" height="200px" viewBox="0 0 200 200" style="enable-background:new 0 0 200 200;" xml:space="preserve">
<g>
	<g>
		<path d="M75.2,195.1c-5.3,0-11-2.3-15.4-6.7L8.7,137.3c-8-8-8.9-20.1-2-27l67.8-67.8c0.5-0.5,1.2-0.9,2-1.1
			c5.4-1.2,53.1-11.4,66.8-6.8c19.8,6.6,20.7,24.3,20.8,25c0.1,2.2-1.6,4.1-3.8,4.1c-2.2,0.1-4.1-1.6-4.1-3.8
			c0-0.6-0.9-12.9-15.3-17.8c-8.6-2.9-41.7,2.5-61.4,6.8l-67,67c-3.7,3.7-2.8,10.9,2,15.7l51.2,51.2c4.8,4.8,12,5.7,15.7,2
			l67.1-67.1c1-3.6,4.4-16.4,7.3-29.5c0.5-2.2,2.6-3.5,4.8-3c2.2,0.5,3.5,2.6,3,4.8c-3.4,15.6-7.6,30.8-7.6,30.9
			c-0.2,0.7-0.5,1.3-1,1.8l-67.8,67.8C83.8,193.6,79.6,195.1,75.2,195.1z"/>
	</g>
	<g>
		<path d="M151.5,78.1c-8.7,0-15.4-2.8-21.3-6c-1.9-1.1-2.6-3.5-1.6-5.4c1.1-1.9,3.5-2.6,5.4-1.6c7.6,4.2,16.4,7.8,32.6,2.2
			c1.3-0.6,14.9-6.6,23.4-16.2c1.5-1.7,4-1.8,5.6-0.3c1.7,1.5,1.8,4,0.3,5.6c-10.1,11.4-25.7,18-26.3,18.3c-0.1,0-0.1,0.1-0.2,0.1
			C162.6,77.1,156.7,78.1,151.5,78.1z"/>
	</g>
	<g>
		<path d="M137.8,30.2c-1,0-2-0.4-2.7-1.1c-1.6-1.5-1.7-4-0.2-5.6c0.4-0.4,9-9.5,19.9-13.2c2.1-0.7,4.4,0.4,5.1,2.5
			c0.7,2.1-0.4,4.4-2.5,5.1c-8.9,3-16.5,11-16.6,11C140,29.7,138.9,30.2,137.8,30.2z"/>
	</g>
	<g>
		<path d="M131.5,88.5c-11.3,0-20.2-9.1-20.2-20.8c0-11.5,9.3-20.8,20.8-20.8c6.6,0,12.1,2.9,15.8,8.3c1.2,1.8,0.7,4.3-1.1,5.6
			c-1.8,1.2-4.3,0.7-5.6-1.1c-2.2-3.3-5.1-4.8-9.1-4.8c-7.1,0-12.8,5.8-12.8,12.8c0,7.3,5.2,12.8,12.2,12.8c2.2,0,4,1.8,4,4
			S133.7,88.5,131.5,88.5z"/>
	</g>
	<g>
		<path d="M83.5,115.7h-2.6V99.4H100c2.2,0,4-1.8,4-4s-1.8-4-4-4H80.9V78.5c0-2.2-1.8-4-4-4s-4,1.8-4,4v12.8h-7
			c-8.8,0-16.1,7.2-16.1,16v0.3c0,0,0,0.1,0,0.2c0.3,7.8,7.4,15.9,18.8,15.9h4.3v16.4l-19-0.1c0,0,0,0,0,0c-2.2,0-4,1.8-4,4
			c0,2.2,1.8,4,4,4l19.1,0.1V161c0,2.2,1.8,4,4,4s4-1.8,4-4v-12.8l7,0c8.8,0,16-7.2,16-16v-0.3c0-0.1,0-0.2,0-0.3
			C102.8,115.7,90.7,115.7,83.5,115.7z M68.7,115.7c-7.2,0-10.7-4.7-10.8-8.1v-0.2c0-4.4,3.6-8,8.1-8h7v16.4H68.7z M96,132.2
			c0,4.4-3.6,8-8,8l-7,0v-16.5h2.6C91.7,123.7,95.3,124.1,96,132.2L96,132.2z"/>
	</g>
</g>
</svg>
