<?xml version="1.0" encoding="utf-8"?>
<!-- Generator: Adobe Illustrator 21.0.0, SVG Export Plug-In . SVG Version: 6.00 Build 0)  -->
<svg version="1.1" id="Layer_3" xmlns="http://www.w3.org/2000/svg" xmlns:xlink="http://www.w3.org/1999/xlink" x="0px" y="0px"
	 width="200px" height="200px" viewBox="0 0 200 200" style="enable-background:new 0 0 200 200;" xml:space="preserve">
<g>
	<path d="M66,196.9H34v-48.4l-12.8-12.8l-5.2,5.1c-1.5,1.5-3.8,1.9-5.7,1.1C8.3,141,7,139.1,7,137l-0.6-32.6c0-3,2.4-5.4,5.3-5.4
		h31.5c2.1,0,4.1,1.3,4.9,3.3c0.8,2,0.4,4.2-1.1,5.8l-0.2,0.2l-5.3,4.7L66,132.8V196.9z M42,188.9h16v-52.2l-24.5-19.9
		c-2.1-2.1-2.1-5.4,0-7.5l0.2-0.2L36,107H14.4l0.5,23.6l2.6-2.6c1-1,2.3-1.5,3.7-1.5s2.7,0.6,3.7,1.6l17,17V188.9z M15,136.9
		 M10.5,135 M23.2,133.8"/>
</g>
<g>
	<path d="M157.3,196.9h-34.4V111l28.2-28.2l-5.5-5c-1.7-1.7-2.2-4.1-1.3-6.3s3-3.6,5.3-3.6l0.3,0l37.3,3c3.1,0.1,5.6,2.7,5.6,5.8
		l0,0.2l-1.8,35.4c-0.1,2.3-1.4,4.3-3.6,5.2c-2.1,0.9-4.6,0.4-6.2-1.2l-4.9-4.5l-19.2,19.2V196.9z M130.9,188.9h18.4v-61.3l23-23
		c2.2-2.2,5.8-2.3,8.1-0.1l3,2.8l1.4-28.6L156,76.4l2.4,2.2c2.3,2.3,2.3,5.9,0,8.2l-27.5,27.5V188.9z"/>
</g>
<g>
	<path d="M114.5,196.9H75.2V38.7l-7.4,0.3c-2.3,0-4.4-1.4-5.3-3.6c-0.9-2.2-0.4-4.6,1.3-6.3l0.2-0.2L92.4,4.7c2.3-2.1,5.8-2.1,8,0.1
		l0.1,0.1l23.8,26.3c1.6,1.7,2,4.1,1.2,6.2c-0.9,2.1-2.9,3.5-5.2,3.6l-6.7,0.3v28.8L114.5,196.9z M83.2,188.9h23.3l-0.9-118.8V39.2
		c0-3.2,2.5-5.7,5.7-5.8l4.1-0.2L96.2,12l-22,18.8l3.2-0.1c3.2,0,5.8,2.6,5.8,5.8V188.9z"/>
</g>
</svg>
