<?xml version="1.0" encoding="utf-8"?>
<!-- Generator: Adobe Illustrator 21.0.0, SVG Export Plug-In . SVG Version: 6.00 Build 0)  -->
<svg version="1.1" id="Layer_3" xmlns="http://www.w3.org/2000/svg" xmlns:xlink="http://www.w3.org/1999/xlink" x="0px" y="0px"
	 width="200px" height="200px" viewBox="0 0 200 200" style="enable-background:new 0 0 200 200;" xml:space="preserve">
<g>
	<path d="M163,148.9c3.9,3.9,3.9,10.2,0,14.1c-2,2-4.5,2.9-7.1,2.9c-2.6,0-5.1-1-7.1-2.9L100,114.1L51.1,163c-2,2-4.5,2.9-7.1,2.9
		s-5.1-1-7.1-2.9c-3.9-3.9-3.9-10.2,0-14.1L85.9,100L37,51.1c-3.9-3.9-3.9-10.2,0-14.2c3.9-3.9,10.2-3.9,14.1,0L100,85.9L148.9,37
		c3.9-3.9,10.2-3.9,14.1,0c3.9,3.9,3.9,10.2,0,14.2L114.1,100L163,148.9z"/>
</g>
</svg>
