<?xml version="1.0" encoding="utf-8"?>
<!-- Generator: Adobe Illustrator 21.0.0, SVG Export Plug-In . SVG Version: 6.00 Build 0)  -->
<svg version="1.1" id="Layer_2" xmlns="http://www.w3.org/2000/svg" xmlns:xlink="http://www.w3.org/1999/xlink" x="0px" y="0px"
	 width="200px" height="200px" viewBox="0 0 200 200" style="enable-background:new 0 0 200 200;" xml:space="preserve">
<g>
	<path d="M115.6,174.8c0.3,0.5,0.6,1,1,1.4h0C116.2,175.8,115.9,175.3,115.6,174.8z"/>
	<path d="M187.5,118.8V23.7c0-8.8-7.2-16-16-16H16.2c-8.8,0-16,7.2-16,16v144.5c0,8.8,7.2,16,16,16h107.4
		c8.4,7.5,19.1,11.7,30.5,11.7c25.2,0,45.8-20.5,45.8-45.7C199.9,138.4,195.5,127.3,187.5,118.8z M153.7,15.7h17.8c4.4,0,8,3.6,8,8
		V33h-25.8V15.7z M153.7,41h25.8v17.9h-25.8V41z M153.7,66.8h25.8v17.9h-25.8V66.8z M153.7,92.7h25.8v19.3c0,0-0.1-0.1-0.1-0.1
		c-0.4-0.3-0.8-0.5-1.3-0.8c-0.5-0.3-1-0.6-1.6-0.9c-0.9-0.5-1.9-1-2.8-1.5c-0.5-0.2-1-0.5-1.5-0.7c-0.5-0.2-1-0.4-1.6-0.6
		c-0.5-0.2-1-0.4-1.6-0.6c-0.5-0.2-1.1-0.3-1.6-0.5c-0.5-0.2-1.1-0.3-1.6-0.5c-0.5-0.1-1.1-0.3-1.6-0.4c-0.5-0.1-1.1-0.2-1.6-0.3
		c-0.5-0.1-1.1-0.2-1.7-0.3c0,0,0,0,0,0c-0.5-0.1-1-0.1-1.5-0.2c-0.7-0.1-1.3-0.1-2-0.2c-0.5,0-1-0.1-1.6-0.1c0,0,0,0,0,0
		c-0.6,0-1.1,0-1.7,0h-0.5V92.7z M8.2,23.7c0-4.4,3.6-8,8-8h20.9c0,0.2-0.1,0.4-0.1,0.7V39H8.2V23.7z M8.2,47h28.9v17.9H8.2V47z
		 M8.2,72.9h28.9v17.9H8.2V72.9z M8.2,98.8h28.9v17.9H8.2V98.8z M8.2,124.6h28.9v17.9H8.2V124.6z M16.2,176.2c-4.4,0-8-3.6-8-8
		v-17.8h28.9v25.2c0,0.2,0,0.4,0,0.5H16.2z M45,176.2c0-0.2,0-0.3,0-0.5V16.4c0-0.2,0-0.5-0.1-0.7h100.6v89.5
		c-21.2,4-37.3,22.6-37.3,45c0,0.5,0,1,0,1.6c0,0.7,0.1,1.4,0.1,2.1c0,0.5,0.1,1.1,0.2,1.6c0.1,0.6,0.1,1.1,0.2,1.7
		c0.1,0.5,0.1,0.9,0.2,1.4c0,0.2,0.1,0.5,0.1,0.7c0,0.3,0.1,0.6,0.2,0.9c0,0.2,0.1,0.3,0.1,0.5c0.1,0.3,0.1,0.6,0.2,0.8
		c0.1,0.4,0.2,0.7,0.3,1.1c0.1,0.5,0.3,0.9,0.4,1.4c0,0,0,0.1,0,0.1c0.2,0.6,0.4,1.1,0.6,1.6c0.2,0.5,0.4,1.1,0.6,1.6
		c0.2,0.5,0.4,1.1,0.7,1.6c0.2,0.5,0.4,1,0.7,1.4c0,0.1,0,0.1,0.1,0.1c0.3,0.5,0.5,1,0.8,1.5c0,0,0,0.1,0,0.1c0.3,0.5,0.5,1,0.8,1.5
		c0.3,0.5,0.6,1,0.9,1.5c0.3,0.5,0.6,1,1,1.4H45z M154.1,187.9c-9.8,0-19.1-3.7-26.1-10.5c-7.5-7.2-11.6-16.8-11.6-27.2
		c0-20.8,16.9-37.7,37.7-37.7c10,0,19.4,3.9,26.5,10.9c7.2,7.2,11.2,16.7,11.2,26.8C191.9,171,175,187.9,154.1,187.9z"/>
</g>
<g>
	<path d="M104.5,108.1c0,0-0.1,0-0.1,0c-1.1,0-2.1-0.5-2.8-1.3L80.3,84.1l-16.7,16.8c-1.6,1.6-4.1,1.6-5.7,0c-1.6-1.6-1.6-4.1,0-5.7
		l19.6-19.7c0.8-0.8,1.8-1.2,2.9-1.2c1.1,0,2.1,0.5,2.9,1.3l21.3,22.9l9.3-8.7c1.4-1.3,3.7-1.4,5.2-0.2l10.9,8.6
		c1.7,1.4,2,3.9,0.7,5.6c-1.4,1.7-3.9,2-5.6,0.7l-8.2-6.5l-9.7,9C106.4,107.8,105.5,108.1,104.5,108.1z"/>
</g>
<g>
	<path d="M109.9,83.6c-5.4,0-9.7-4.4-9.7-9.7s4.4-9.7,9.7-9.7s9.7,4.4,9.7,9.7S115.3,83.6,109.9,83.6z M109.9,72.1
		c-1,0-1.7,0.8-1.7,1.7s0.8,1.7,1.7,1.7s1.7-0.8,1.7-1.7S110.9,72.1,109.9,72.1z"/>
</g>
<g>
	<path d="M176.1,150.2c0,2.2-1.8,4-4,4h-13.9v13.9c0,2.2-1.8,4-4,4c-2.2,0-4-1.8-4-4v-13.9h-13.9c-2.2,0-4-1.8-4-4c0-2.2,1.8-4,4-4
		h13.9v-13.9c0-2.2,1.8-4,4-4c2.2,0,4,1.8,4,4v13.9h13.9C174.3,146.2,176.1,147.9,176.1,150.2z"/>
</g>
</svg>
