<?xml version="1.0" encoding="utf-8"?>
<!-- Generator: Adobe Illustrator 21.0.0, SVG Export Plug-In . SVG Version: 6.00 Build 0)  -->
<svg version="1.1" id="Layer_2" xmlns="http://www.w3.org/2000/svg" xmlns:xlink="http://www.w3.org/1999/xlink" x="0px" y="0px"
	 width="200px" height="200px" viewBox="0 0 200 200" style="enable-background:new 0 0 200 200;" xml:space="preserve">
<g>
	<path d="M182.5,22.7h-35.6v-4.1c0-10.3-8.4-18.7-18.7-18.7H71.7C61.4,0,53.1,8.4,53.1,18.7v4.1H17.5c-4.7,0-9,1.8-12.4,5.1
		C1.8,31.2,0,35.6,0,40.2c0,9.6,7.8,17.5,17.5,17.5h6.4v134.1c0,4.5,3.7,8.2,8.2,8.2h135.3c4.5,0,8.2-3.7,8.2-8.2V57.7h7
		c4.7,0,9-1.8,12.4-5.1c3.3-3.3,5.1-7.7,5.1-12.4C200,30.6,192.2,22.7,182.5,22.7z M62.4,18.7c0-5.1,4.2-9.3,9.3-9.3h56.6
		c5.1,0,9.3,4.2,9.3,9.3v4.1H62.4V18.7z M166.2,190.7H33.2V57.7h132.9V190.7z M188.3,46c-1.6,1.6-3.6,2.4-5.8,2.4h-165
		c-4.5,0-8.2-3.7-8.2-8.2c0-2.2,0.9-4.2,2.4-5.8s3.6-2.4,5.8-2.4h165c4.5,0,8.2,3.7,8.2,8.2C190.7,42.4,189.8,44.4,188.3,46z"/>
</g>
<g>
	<path d="M139.4,169.7c-2.6,0-4.7-2.1-4.7-4.7V89.6c0-2.6,2.1-4.7,4.7-4.7c2.6,0,4.7,2.1,4.7,4.7V165
		C144,167.6,141.9,169.7,139.4,169.7z"/>
</g>
<g>
	<path d="M101.7,169.7c-2.6,0-4.7-2.1-4.7-4.7V89.6c0-2.6,2.1-4.7,4.7-4.7c2.6,0,4.7,2.1,4.7,4.7V165
		C106.3,167.6,104.2,169.7,101.7,169.7z"/>
</g>
<g>
	<path d="M63.9,169.7c-2.6,0-4.7-2.1-4.7-4.7V89.6c0-2.6,2.1-4.7,4.7-4.7c2.6,0,4.7,2.1,4.7,4.7V165
		C68.6,167.6,66.5,169.7,63.9,169.7z"/>
</g>
</svg>
