<?xml version="1.0" encoding="utf-8"?>
<!-- Generator: Adobe Illustrator 21.0.0, SVG Export Plug-In . SVG Version: 6.00 Build 0)  -->
<svg version="1.1" id="Layer_2" xmlns="http://www.w3.org/2000/svg" xmlns:xlink="http://www.w3.org/1999/xlink" x="0px" y="0px"
	 width="200px" height="200px" viewBox="0 0 200 200" style="enable-background:new 0 0 200 200;" xml:space="preserve">
<g>
	<path d="M178.2,21.8c-6.4-6.4-15-9.9-24.1-9.9c-9.1,0-17.7,3.5-24.1,9.9L13.3,138.4c-0.9,0.9-1.5,2.2-1.5,3.5v36.1
		c0,5.5,4.5,10,10,10H58c1.3,0,2.6-0.5,3.5-1.5L178.2,70c6.4-6.4,10-15,10-24.1C188.1,36.8,184.6,28.2,178.2,21.8z M54.3,179.2H25.5
		c-2.6,0-4.7-2.1-4.7-4.7v-28.9c0-1.3,0.5-2.6,1.5-3.5l95.6-95.6l35.6,35.6l-95.6,95.6C56.9,178.7,55.7,179.2,54.3,179.2z
		 M171.9,63.7l-12.1,12.1l-35.6-35.6l12.1-12.1c4.7-4.7,11-7.3,17.8-7.3s13.1,2.6,17.8,7.3c4.7,4.7,7.3,11,7.3,17.8
		S176.6,59,171.9,63.7z"/>
</g>
</svg>
