<?xml version="1.0" encoding="utf-8"?>
<!-- Generator: Adobe Illustrator 21.0.0, SVG Export Plug-In . SVG Version: 6.00 Build 0)  -->
<svg version="1.1" id="Layer_3" xmlns="http://www.w3.org/2000/svg" xmlns:xlink="http://www.w3.org/1999/xlink" x="0px" y="0px"
	 width="200px" height="200px" viewBox="0 0 200 200" style="enable-background:new 0 0 200 200;" xml:space="preserve">
<g>
	<path d="M100.1,8c50.7,0,92,41.3,92,92s-41.3,92-92,92s-92-41.3-92-92S49.4,8,100.1,8 M100.1,0C44.9,0,0.1,44.8,0.1,100
		s44.8,100,100,100s100-44.8,100-100S155.3,0,100.1,0L100.1,0z"/>
</g>
<g>
	<path d="M64.5,66.5C70.3,66.5,75,71.2,75,77s-4.7,10.5-10.5,10.5S54,82.8,54,77S58.7,66.5,64.5,66.5 M64.5,58.5
		C54.3,58.5,46,66.8,46,77s8.3,18.5,18.5,18.5S83,87.2,83,77S74.7,58.5,64.5,58.5L64.5,58.5z"/>
</g>
<g>
	<path d="M137.5,66.5c5.8,0,10.5,4.7,10.5,10.5s-4.7,10.5-10.5,10.5S127,82.8,127,77S131.7,66.5,137.5,66.5 M137.5,58.5
		c-10.2,0-18.5,8.3-18.5,18.5s8.3,18.5,18.5,18.5S156,87.2,156,77S147.7,58.5,137.5,58.5L137.5,58.5z"/>
</g>
<g>
	<path d="M100,162.9c-27.8,0-49.1-17.3-55.7-45.3c-0.5-1.9,0.7-3.9,2.5-4.4c1.8-0.5,3.7,0.7,4.2,2.6c5.9,24.9,24.3,39.8,49.1,39.8
		c25.5,0,44.3-15.2,49-39.7c0.4-1.9,2.2-3.2,4-2.8c1.9,0.4,3.1,2.3,2.7,4.2C150.3,145.5,129,162.9,100,162.9z"/>
</g>
</svg>
