<?xml version="1.0" encoding="utf-8"?>
<!-- Generator: Adobe Illustrator 21.0.0, SVG Export Plug-In . SVG Version: 6.00 Build 0)  -->
<svg version="1.1" id="Layer_2" xmlns="http://www.w3.org/2000/svg" xmlns:xlink="http://www.w3.org/1999/xlink" x="0px" y="0px"
	 width="200px" height="200px" viewBox="0 0 200 200" style="enable-background:new 0 0 200 200;" xml:space="preserve">
<g>
	<path d="M152.6,13c-1.2,0.4-2.3,0.9-3.5,1.7c1.1-0.6,2.3-1.2,3.6-1.5c1-0.3,2-0.5,2.9-0.6C154.5,12.5,153.5,12.7,152.6,13z"/>
</g>
<g>
	<path d="M140.5,29.5c0-6.1,4-11.9,8.6-14.9C143.9,17.7,140.5,23.3,140.5,29.5z"/>
	<path d="M170.8,4.4l-12.4,0.1h0c-0.3,0-0.5-0.1-0.8-0.1H30.4C18.5,4.4,8.8,14.1,8.8,26v168.2c0,1.5,0.9,2.9,2.2,3.6
		c0.6,0.3,1.2,0.4,1.8,0.4c0.9,0,1.7-0.3,2.4-0.8L73.4,153l60.7,44.4c1.2,0.9,2.8,1,4.2,0.3c1.3-0.7,2.2-2.1,2.2-3.6v-139h46.8
		c2.2,0,4-1.8,4-4V29.5C191.2,15.7,182.1,4.4,170.8,4.4z M132.5,186.3l-56.7-41.5c-0.7-0.5-1.5-0.8-2.4-0.8c-0.8,0-1.7,0.3-2.4,0.8
		l-54.2,41.2V26c0-7.5,6.1-13.6,13.6-13.6h108.9c-3.8,4-6.2,9.3-6.7,14.9c0,0.1,0,0.1,0,0.2c0,0.3,0,0.6-0.1,0.9c0,0.4,0,0.7,0,1.1
		V186.3z M183.2,47.2h-42.8V29.5c0-6.2,3.4-11.9,8.6-14.9c1.1-0.7,2.3-1.3,3.5-1.7c0.9-0.3,1.9-0.5,3-0.5c0.2,0,0.3,0,0.5,0
		l14.7-0.1c6.7,0,12.4,7.8,12.4,17.1V47.2z"/>
</g>
<g>
	<path d="M108.3,59.7H42.7c-2.2,0-4-1.8-4-4s1.8-4,4-4h65.6c2.2,0,4,1.8,4,4S110.5,59.7,108.3,59.7z"/>
</g>
<g>
	<path d="M108.3,105.3H42.7c-2.2,0-4-1.8-4-4s1.8-4,4-4h65.6c2.2,0,4,1.8,4,4S110.5,105.3,108.3,105.3z"/>
</g>
</svg>
