<?xml version="1.0" encoding="utf-8"?>
<!-- Generator: Adobe Illustrator 21.0.0, SVG Export Plug-In . SVG Version: 6.00 Build 0)  -->
<svg version="1.1" id="Layer_1" xmlns="http://www.w3.org/2000/svg" xmlns:xlink="http://www.w3.org/1999/xlink" x="0px" y="0px"
	 width="200px" height="200px" viewBox="0 0 200 200" style="enable-background:new 0 0 200 200;" xml:space="preserve">
<g>
	<path d="M188.1,172.6l-34.4-35.5c-2.4-2.5-5.7-3.9-9.2-3.9c-2,0-3.9,0.4-5.6,1.3l-11.8-12.1c-0.2-0.1-0.3-0.3-0.5-0.4
		c7.6-9,11.8-20.2,12-32.2c0.2-13.7-4.9-26.6-14.4-36.4c-9.5-9.8-22.3-15.3-36-15.5c-0.3,0-0.5,0-0.8,0c-27.9,0-50.7,22.4-51.2,50.4
		c-0.4,28.2,22.2,51.5,50.4,52c0.3,0,0.5,0,0.8,0c12.5,0,24.3-4.4,33.6-12.6c0.1,0.1,0.2,0.2,0.3,0.3l11.8,12.1
		c-0.9,1.8-1.4,3.7-1.5,5.8c0,3.4,1.2,6.7,3.6,9.1l34.4,35.5c2.4,2.5,5.6,3.8,9,3.9c0.1,0,0.1,0,0.2,0c3.4,0,6.5-1.3,8.9-3.6
		c2.5-2.4,3.8-5.6,3.9-9C191.7,178.3,190.4,175,188.1,172.6z M117.5,120c-8.3,8-19.2,12.4-30.7,12.2c-23.8-0.4-42.9-20-42.5-43.8
		c0.4-23.6,19.7-42.5,43.2-42.5h0.7c11.5,0.2,22.3,4.8,30.3,13.1c8,8.3,12.4,19.2,12.2,30.7C130.4,101.2,125.8,112,117.5,120z
		 M182.2,184.9C182.2,184.9,182.2,184.9,182.2,184.9c-0.9,0.9-2.1,1.4-3.4,1.4c-1.3,0-2.5-0.5-3.4-1.5L141,149.3
		c-0.9-0.9-1.4-2.1-1.3-3.4c0-1.3,0.5-2.5,1.5-3.4c0.9-0.9,2.1-1.3,3.4-1.3c1.3,0,2.5,0.5,3.5,1.4l34.4,35.5
		c0.9,0.9,1.4,2.1,1.3,3.4C183.6,182.9,183.1,184,182.2,184.9z"/>
</g>
<g>
	<path d="M122.3,173.4H22.5c-11.5,0-20.9-9.5-20.9-21.1V22.6C1.6,11,11,1.5,22.5,1.5h129.9c11.5,0,20.9,9.5,20.9,21.1v96.9
		c0,2.2-1.8,4-4,4s-4-1.8-4-4V22.6c0-7.2-5.8-13.1-12.9-13.1H22.5c-7.1,0-12.9,5.9-12.9,13.1v129.7c0,7.2,5.8,13.1,12.9,13.1h99.8
		c2.2,0,4,1.8,4,4S124.5,173.4,122.3,173.4z"/>
</g>
</svg>
