<?xml version="1.0" encoding="utf-8"?>
<!-- Generator: Adobe Illustrator 21.0.0, SVG Export Plug-In . SVG Version: 6.00 Build 0)  -->
<svg version="1.1" id="Layer_1" xmlns="http://www.w3.org/2000/svg" xmlns:xlink="http://www.w3.org/1999/xlink" x="0px" y="0px"
	 width="200px" height="200px" viewBox="0 0 200 200" style="enable-background:new 0 0 200 200;" xml:space="preserve">
<g>
	<path d="M195.3,143.6h-1c-1.9-11.8-12.2-20.8-24.5-20.8s-22.6,9-24.5,20.8H4.8c-2.2,0-4,1.8-4,4c0,2.2,1.8,4,4,4h140.5
		c1.9,11.8,12.2,20.8,24.5,20.8s22.6-9,24.5-20.8h1c2.2,0,4-1.8,4-4C199.3,145.4,197.5,143.6,195.3,143.6z M169.7,164.4
		c-9.3,0-16.8-7.5-16.8-16.8c0-9.3,7.5-16.8,16.8-16.8c9.3,0,16.8,7.5,16.8,16.8C186.6,156.9,179,164.4,169.7,164.4z"/>
</g>
<g>
	<path d="M195.3,96h-70.8c-1.9-11.8-12.2-20.8-24.5-20.8s-22.6,9-24.5,20.8H4.8c-2.2,0-4,1.8-4,4c0,2.2,1.8,4,4,4h70.8
		c1.9,11.8,12.2,20.8,24.5,20.8s22.6-9,24.5-20.8h70.8c2.2,0,4-1.8,4-4C199.3,97.8,197.5,96,195.3,96z M100,116.8
		c-9.3,0-16.8-7.5-16.8-16.8c0-9.3,7.5-16.8,16.8-16.8s16.8,7.5,16.8,16.8C116.8,109.3,109.3,116.8,100,116.8z"/>
</g>
<g>
	<path d="M195.3,48.4H54.4c-1.9-11.8-12.2-20.8-24.5-20.8c-12.3,0-22.6,9-24.5,20.8H4.8c-2.2,0-4,1.8-4,4c0,2.2,1.8,4,4,4h0.6
		c1.9,11.8,12.2,20.8,24.5,20.8c12.3,0,22.6-9,24.5-20.8h140.9c2.2,0,4-1.8,4-4C199.3,50.2,197.5,48.4,195.3,48.4z M29.9,69.2
		c-9.3,0-16.8-7.5-16.8-16.8c0-9.3,7.5-16.8,16.8-16.8c9.3,0,16.8,7.5,16.8,16.8C46.7,61.6,39.2,69.2,29.9,69.2z"/>
</g>
</svg>
