<?xml version="1.0" encoding="utf-8"?>
<!-- Generator: Adobe Illustrator 21.0.0, SVG Export Plug-In . SVG Version: 6.00 Build 0)  -->
<svg version="1.1" id="Layer_2" xmlns="http://www.w3.org/2000/svg" xmlns:xlink="http://www.w3.org/1999/xlink" x="0px" y="0px"
	 width="200px" height="200px" viewBox="0 0 200 200" style="enable-background:new 0 0 200 200;" xml:space="preserve">
<g>
	<g>
		<path d="M184.3,36.5c-1.6,0-3.1-1-3.7-2.6c-0.8-2.1,0.2-4.4,2.3-5.2l11.3-4.4c2.1-0.8,4.4,0.2,5.2,2.3c0.8,2.1-0.2,4.4-2.3,5.2
			l-11.3,4.4C185.3,36.4,184.8,36.5,184.3,36.5z"/>
	</g>
</g>
<g>
	<g>
		<path d="M196,102.7h-12.2c-2.2,0-4-1.8-4-4s1.8-4,4-4H196c2.2,0,4,1.8,4,4S198.2,102.7,196,102.7z"/>
	</g>
</g>
<g>
	<g>
		<path d="M195.2,168c-0.4,0-0.8-0.1-1.2-0.2l-10.6-3.4c-2.1-0.7-3.3-2.9-2.6-5c0.7-2.1,2.9-3.3,5-2.6l10.6,3.4
			c2.1,0.7,3.3,2.9,2.6,5C198.5,166.9,196.9,168,195.2,168z"/>
	</g>
</g>
<g>
	<path d="M172.4,26.3c-3.6-2.6-8-3.2-12.1-1.8L62.9,57.8c-2,0.7-3.7,1.8-5.2,3.2c-1.5-1.4-3.3-2.5-5.4-3.1L37,53.2
		c-4.1-1.3-8.4-0.5-11.8,2c-2.1,1.5-3.6,3.6-4.5,5.8c-1.7-0.9-3.7-1.4-5.8-1.4h-1C6.8,59.8,1,65.5,1,72.6v38.9
		c0,7.1,5.8,12.9,12.8,12.9h1c1.9,0,3.8-0.4,5.4-1.2c0.8,2.6,2.4,4.9,4.6,6.7c2.1,1.7,4.7,2.6,7.3,2.8l11.4,42.4
		c1.4,5.3,6.2,8.7,11.4,8.7c1,0,2.1-0.1,3.1-0.4l0.9-0.2c3-0.8,5.6-2.8,7.2-5.5c1.6-2.7,2-5.9,1.2-9L56,126.2c0.5-0.3,1-0.7,1.5-1.2
		c1.3,1.4,3,2.6,4.9,3.3l97.4,38.9c1.6,0.6,3.3,1,5,1c2.6,0,5.3-0.8,7.5-2.3c3.7-2.5,5.9-6.6,5.9-11.1V37.2
		C178,32.8,176,28.9,172.4,26.3z M19.7,111.5c0,2.7-2.2,4.9-4.8,4.9h-1c-2.7,0-4.8-2.2-4.8-4.9V72.6c0-2.7,2.2-4.8,4.8-4.8h1
		c2.7,0,4.8,2.2,4.8,4.8V111.5z M29.8,123.4c-1.3-1-2.1-2.6-2.1-4.3V66c0-1.7,0.8-3.3,2.2-4.3c0.9-0.7,2.1-1.1,3.2-1.1
		c0.5,0,1.1,0.1,1.6,0.2l15.4,4.7c2.3,0.7,3.8,2.8,3.8,5.1v44.4c0,2.4-1.6,4.6-4,5.2l-15.4,4.1C32.9,124.8,31.2,124.5,29.8,123.4z
		 M59.7,170.6c0.3,1,0.1,2-0.4,2.9c-0.5,0.9-1.3,1.5-2.3,1.8l-0.9,0.2c-2,0.5-4.1-0.7-4.7-2.7l-11.2-41.5l8.3-2.2L59.7,170.6z
		 M170,154.8c0,1.8-0.9,3.4-2.4,4.4c-1.5,1-3.3,1.2-5,0.5L65.3,121c-2-0.8-3.4-2.8-3.4-5V70.5c0-2.3,1.5-4.3,3.6-5.1l97.4-33.3
		c0.6-0.2,1.2-0.3,1.8-0.3c1.1,0,2.2,0.3,3.1,1c1.4,1,2.3,2.6,2.3,4.4V154.8z"/>
	<path d="M163,99.7c0,5.9-4.4,11.9-14.1,11.9c-3.6,0-7.8-1-10-2.6l-0.9-0.6l2.1-6.8l1.7,1c2.2,1.3,5,2.1,7.6,2.1c3.8,0,6-1.7,6-4.6
		c0-2.3-0.9-3.9-5.8-5.8c-7-2.5-10.5-6.3-10.5-11.6c0-6.5,5.5-11.3,13.2-11.3c4.6,0,7.4,1.2,8.7,2l1.1,0.6l-2.3,6.7l-1.6-0.9
		c-1.3-0.7-3.4-1.5-6.1-1.5c-3.9,0-5.3,2.1-5.3,3.9c0,2.1,0.9,3.5,6.2,5.5C157.8,89.7,163,92.6,163,99.7z"/>
	<path d="M131.4,76.6c-3.5-3.3-8.6-4.9-15.6-4.9c-3.3,0-6.8,0.3-10.1,0.8l-1.3,0.2v38.1l1.3,0.2c2.5,0.3,5.5,0.4,8.6,0.4
		c7.4,0,13.3-1.9,17-5.6c3.7-3.6,5.6-8.9,5.6-15.1C136.9,84.7,135.1,80,131.4,76.6z M115.2,104.6c-0.9,0-2.2,0-3.2-0.1V78.7
		c1-0.1,2.3-0.2,4-0.2c4.4,0,7.8,1.1,10,3.4c2.1,2.1,3.1,5.1,3.1,9C129.1,99.9,124.3,104.6,115.2,104.6z"/>
	<path d="M89.3,72h-7.8l-13.3,39.1h8L80,99.7h10.6l3.8,11.3h8.2L89.3,72z M82,93.1l2.9-8.5c0.2-0.5,0.3-1,0.5-1.5
		c0.2,0.5,0.3,1,0.5,1.5l2.8,8.4H82z"/>
</g>
</svg>
