<?xml version="1.0" encoding="utf-8"?>
<!-- Generator: Adobe Illustrator 21.0.0, SVG Export Plug-In . SVG Version: 6.00 Build 0)  -->
<svg version="1.1" id="Layer_3" xmlns="http://www.w3.org/2000/svg" xmlns:xlink="http://www.w3.org/1999/xlink" x="0px" y="0px"
	 width="200px" height="200px" viewBox="0 0 200 200" style="enable-background:new 0 0 200 200;" xml:space="preserve">
<g>
	<g>
		<path d="M135.2,105c-11.8,0-21.5-9.6-21.5-21.5S123.4,62,135.2,62s21.5,9.6,21.5,21.5S147.1,105,135.2,105z M135.2,71.1
			c-6.9,0-12.4,5.6-12.4,12.4s5.6,12.4,12.4,12.4s12.4-5.6,12.4-12.4S142.1,71.1,135.2,71.1z"/>
	</g>
</g>
<g>
	<path d="M178.3,29.5h-8.9V22c0-11.9-9.6-21.5-21.5-21.5H21.7C9.9,0.5,0.2,10.1,0.2,22v127.5c0,11.9,9.6,21.5,21.5,21.5h8.9v7.5
		c0,11.8,9.6,21.5,21.5,21.5h126.2c11.8,0,21.5-9.7,21.5-21.5V51C199.8,39.1,190.2,29.5,178.3,29.5z M178.3,38.5
		c6.9,0,12.5,5.6,12.5,12.5v91.3l-26.6-18.9c-3.9-2.8-9.2-2.8-13,0.1L128,140.6c-1.8,1.3-4.2,1.1-5.8-0.5l-34.8-35.5
		c-4.2-4.3-10.8-4.9-15.7-1.4l-32,22.3V51c0-6.9,5.6-12.5,12.5-12.5H178.3z M30.7,51v111h-8.9c-6.9,0-12.5-5.6-12.5-12.5V22
		c0-6.9,5.6-12.5,12.5-12.5h126.2c6.9,0,12.5,5.6,12.5,12.5v7.5H52.2C40.3,29.5,30.7,39.1,30.7,51z M190.8,178.5
		c0,6.9-5.6,12.5-12.5,12.5H52.2c-6.9,0-12.5-5.6-12.5-12.5v-43.1l36.5-25.6c1.7-1.2,4-1,5.4,0.5l34.8,35.5
		c4.3,4.4,11.3,4.9,16.2,1.3l23.2-17.1c1.1-0.8,2.6-0.8,3.7,0l31.2,22.2V178.5z"/>
</g>
</svg>
