<?xml version="1.0" encoding="utf-8"?>
<!-- Generator: Adobe Illustrator 21.0.0, SVG Export Plug-In . SVG Version: 6.00 Build 0)  -->
<svg version="1.1" id="Layer_3" xmlns="http://www.w3.org/2000/svg" xmlns:xlink="http://www.w3.org/1999/xlink" x="0px" y="0px"
	 width="200px" height="200px" viewBox="0 0 200 200" style="enable-background:new 0 0 200 200;" xml:space="preserve">
<g>
	<path d="M183.8,25.5H16.2c-8.8,0-16,7.2-16,16v98.6c0,8.8,7.2,16,16,16h57.1v14.5h-8.4c-2.2,0-4,1.8-4,4c0,2.2,1.8,4,4,4h70.2
		c2.2,0,4-1.8,4-4c0-2.2-1.8-4-4-4h-8.4v-14.5h57.1c8.8,0,16-7.2,16-16V41.5C199.8,32.7,192.7,25.5,183.8,25.5z M118.7,170.7H81.3
		v-14.5h37.4V170.7z M191.8,140.2c0,4.4-3.6,8-8,8H16.2c-4.4,0-8-3.6-8-8V41.5c0-4.4,3.6-8,8-8h167.7c4.4,0,8,3.6,8,8V140.2z"/>
</g>
<g>
	<path d="M171,60.9c0,5.1-4.2,9.3-9.3,9.3c-1.1,0-2.2-0.2-3.2-0.5L126.2,110c0.8,1.3,1.2,2.8,1.2,4.4c0,4.7-3.8,8.6-8.6,8.6
		c-4.7,0-8.6-3.8-8.6-8.6c0-0.7,0.1-1.4,0.3-2.1L73,86.2c-1.5,0.9-3.2,1.5-5.1,1.5c-1.1,0-2.1-0.2-3-0.5l-20.7,25.1
		c0.2,0.6,0.3,1.3,0.3,1.9c0,3.8-3.1,6.9-6.9,6.9s-6.9-3.1-6.9-6.9c0-3.8,3.1-6.9,6.9-6.9c0.9,0,1.7,0.2,2.5,0.5l20-24.3
		c-1-1.5-1.6-3.3-1.6-5.3c0-5.2,4.2-9.4,9.4-9.4c5.2,0,9.4,4.2,9.4,9.4c0,1.1-0.2,2.2-0.6,3.2l37.1,25.8c1.4-1,3.1-1.5,4.9-1.5
		c0.9,0,1.9,0.1,2.7,0.4l32.4-40.3c-0.9-1.4-1.5-3.1-1.5-5c0-5.1,4.2-9.3,9.3-9.3C166.9,51.7,171,55.8,171,60.9z"/>
</g>
</svg>
