<?xml version="1.0" encoding="utf-8"?>
<!-- Generator: Adobe Illustrator 21.0.0, SVG Export Plug-In . SVG Version: 6.00 Build 0)  -->
<svg version="1.1" id="Layer_2" xmlns="http://www.w3.org/2000/svg" xmlns:xlink="http://www.w3.org/1999/xlink" x="0px" y="0px"
	 width="200px" height="200px" viewBox="0 0 200 200" style="enable-background:new 0 0 200 200;" xml:space="preserve">
<g>
	<path d="M161.3,63c-9.2,0-16.7-7.5-16.7-16.7s7.5-16.7,16.7-16.7S178,37.2,178,46.4S170.5,63,161.3,63z M161.3,37.7
		c-4.8,0-8.7,3.9-8.7,8.7s3.9,8.7,8.7,8.7s8.7-3.9,8.7-8.7S166.1,37.7,161.3,37.7z"/>
</g>
<g>
	<path d="M99.7,63C90.5,63,83,55.6,83,46.4s7.5-16.7,16.7-16.7c9.2,0,16.7,7.5,16.7,16.7S108.9,63,99.7,63z M99.7,37.7
		c-4.8,0-8.7,3.9-8.7,8.7s3.9,8.7,8.7,8.7c4.8,0,8.7-3.9,8.7-8.7S104.4,37.7,99.7,37.7z"/>
</g>
<g>
	<path d="M42,63c-9.2,0-16.7-7.5-16.7-16.7S32.8,29.7,42,29.7s16.7,7.5,16.7,16.7S51.2,63,42,63z M42,37.7c-4.8,0-8.7,3.9-8.7,8.7
		S37.3,55,42,55s8.7-3.9,8.7-8.7S46.8,37.7,42,37.7z"/>
</g>
<g>
	<path d="M53.1,182.2H29.6c-8.8,0-16-7.2-16-16v-9.9c0-8.8,7.2-16,16-16h23.5c8.8,0,16,7.2,16,16v9.9
		C69.1,175,61.9,182.2,53.1,182.2z M29.6,148.3c-4.4,0-8,3.6-8,8v9.9c0,4.4,3.6,8,8,8h23.5c4.4,0,8-3.6,8-8v-9.9c0-4.4-3.6-8-8-8
		H29.6z"/>
</g>
<g>
	<path d="M195.3,156l-1.3-0.4V16.1c0-8.8-7.2-16-16-16h-35.5c-4.9,0-9.3,2.2-12.2,5.7c-2.9-3.5-7.3-5.7-12.1-5.7H83
		c-4.7,0-9,2.1-11.9,5.4c-2.9-3.3-7.2-5.4-12-5.4H23.6c-8.8,0-16,7.2-16,16v64H7.1c-3.8,0-6.9,3.2-6.9,7.1v105.5
		c0,3.9,3.1,7.1,7,7.1h186c3.9,0,7-3.2,7-7.1v-30C200.1,159.7,198.2,156.9,195.3,156z M134.5,16.1c0-0.2,0-0.3,0-0.5
		c0.3-4.2,3.8-7.5,8-7.5H178c4.4,0,8,3.6,8,8v135.9l-51.5-16.9V16.1z M82,119.3l-6.9-2.3V16.1c0-4.4,3.5-8,7.9-8h35.2
		c4.2,0,7.6,3.3,7.9,7.5c0,0.2,0,0.3,0,0.5V133l-13.5-4.8L82,119.3z M53.4,80.4l-23.8,0.2l-8.2,0.1l-6.1,0l0.3-64.5c0-4.4,3.6-8,8-8
		h35.5c4.4,0,8,3.6,8,8l0.2,64.2l-5.8,0L53.4,80.4z M192.1,191.9H8.2V88.1l58.9-0.4v29.9c0,1.3,0.3,2.5,1,3.6c0,0,0,0,0,0
		c0.9,1.5,2.2,2.6,3.9,3.2l120.2,39V191.9z"/>
</g>
</svg>
