<?xml version="1.0" encoding="utf-8"?>
<!-- Generator: Adobe Illustrator 21.0.0, SVG Export Plug-In . SVG Version: 6.00 Build 0)  -->
<svg version="1.1" id="Layer_3" xmlns="http://www.w3.org/2000/svg" xmlns:xlink="http://www.w3.org/1999/xlink" x="0px" y="0px"
	 width="200px" height="200px" viewBox="0 0 200 200" style="enable-background:new 0 0 200 200;" xml:space="preserve">
<g>
	<path d="M11.3,192.2c-1.1,0-2.1-0.4-2.9-1.3c-1.2-1.3-1.4-3.2-0.6-4.7l19.7-35.5C9.8,134.9,0.1,114.3,0.1,92.4
		C0.1,45.8,44.9,7.8,100,7.8s99.9,38,99.9,84.6c0,46.7-44.8,84.7-99.9,84.7c-14.3,0-28-2.5-40.8-7.4L13,191.8
		C12.5,192,11.9,192.2,11.3,192.2z M100,15.8c-50.7,0-91.9,34.4-91.9,76.6c0,20.5,9.6,39.7,27,54.3c1.5,1.2,1.9,3.3,0.9,5
		l-15.2,27.4l36.4-17.4c1-0.5,2.2-0.5,3.2-0.1c12.4,5,25.7,7.5,39.5,7.5c50.7,0,91.9-34.4,91.9-76.7C191.9,50.2,150.7,15.8,100,15.8
		z"/>
</g>
</svg>
