<?xml version="1.0" encoding="utf-8"?>
<!-- Generator: Adobe Illustrator 21.0.0, SVG Export Plug-In . SVG Version: 6.00 Build 0)  -->
<svg version="1.1" id="Layer_2" xmlns="http://www.w3.org/2000/svg" xmlns:xlink="http://www.w3.org/1999/xlink" x="0px" y="0px"
	 width="200px" height="200px" viewBox="0 0 200 200" style="enable-background:new 0 0 200 200;" xml:space="preserve">
<g>
	<path d="M126.4,32.7c-0.3,0.2-0.6,0.4-0.9,0.5l1-0.5H126.4z M126.4,32.7c-0.3,0.2-0.6,0.4-0.9,0.5l1-0.5H126.4z M126.4,32.7
		c-0.3,0.2-0.6,0.4-0.9,0.5l1-0.5H126.4z M126.4,32.7c-0.3,0.2-0.6,0.4-0.9,0.5l1-0.5H126.4z M126.4,32.7c-0.3,0.2-0.6,0.4-0.9,0.5
		l1-0.5H126.4z M126.4,32.7c-0.3,0.2-0.6,0.4-0.9,0.5l1-0.5H126.4z"/>
</g>
<g>
	<path d="M96.6,89.6h-5.5c-1.9,0-3.4-1.5-3.4-3.4v-5.8c0-1.9,1.5-3.4,3.4-3.4h5.5c1.9,0,3.4,1.5,3.4,3.4v5.8
		C100,88.1,98.5,89.6,96.6,89.6z"/>
</g>
<g>
	<path d="M128.5,89.6H123c-1.9,0-3.4-1.5-3.4-3.4v-5.8c0-1.9,1.5-3.4,3.4-3.4h5.5c1.9,0,3.4,1.5,3.4,3.4v5.8
		C131.9,88.1,130.4,89.6,128.5,89.6z"/>
</g>
<g>
	<path d="M160.4,89.6h-5.5c-1.9,0-3.4-1.5-3.4-3.4v-5.8c0-1.9,1.5-3.4,3.4-3.4h5.5c1.9,0,3.4,1.5,3.4,3.4v5.8
		C163.8,88.1,162.3,89.6,160.4,89.6z"/>
</g>
<g>
	<path d="M53.9,24L53.9,24c-2.5,0-4.5-2-4.5-4.5v0c0-2.5,2-4.5,4.5-4.5h0c2.5,0,4.5,2,4.5,4.5v0C58.4,22,56.4,24,53.9,24z"/>
</g>
<g>
	<path d="M53.9,42.8L53.9,42.8c-2.5,0-4.5-2-4.5-4.5v0c0-2.5,2-4.5,4.5-4.5h0c2.5,0,4.5,2,4.5,4.5v0C58.4,40.7,56.4,42.8,53.9,42.8z
		"/>
</g>
<g>
	<path d="M80.4,24L80.4,24c-2.5,0-4.5-2-4.5-4.5v0c0-2.5,2-4.5,4.5-4.5h0c2.5,0,4.5,2,4.5,4.5v0C84.9,22,82.9,24,80.4,24z"/>
</g>
<g>
	<path d="M105.9,24L105.9,24c-2.5,0-4.5-2-4.5-4.5v0c0-2.5,2-4.5,4.5-4.5h0c2.5,0,4.5,2,4.5,4.5v0C110.4,22,108.4,24,105.9,24z"/>
</g>
<g>
	<path d="M80.4,42.8L80.4,42.8c-2.5,0-4.5-2-4.5-4.5v0c0-2.5,2-4.5,4.5-4.5h0c2.5,0,4.5,2,4.5,4.5v0C84.9,40.7,82.9,42.8,80.4,42.8z
		"/>
</g>
<g>
	<path d="M53.9,61.5L53.9,61.5c-2.5,0-4.5-2-4.5-4.5v0c0-2.5,2-4.5,4.5-4.5h0c2.5,0,4.5,2,4.5,4.5v0C58.4,59.5,56.4,61.5,53.9,61.5z
		"/>
</g>
<g>
	<path d="M174.9,1.4c-2.3-1.4-5.2-1.4-7.5-0.1l-37.8,20.7V9.1c0-4.2-3.4-7.6-7.6-7.6H42.3c-4.2,0-7.6,3.4-7.6,7.6v59.8l-2.9-1.4
		c-2.4-1.1-5.1-1-7.3,0.4c-2.2,1.4-3.5,3.8-3.5,6.4v118c0,4.2,3.4,7.6,7.6,7.6h103.8c1.3,0,2.6-0.3,3.6-0.9c1.1,0.6,2.3,0.9,3.6,0.9
		H171c4.2,0,7.6-3.4,7.6-7.6V7.9C178.6,5.2,177.2,2.8,174.9,1.4z M42.7,9.4h78.8v16.9l-29,15.8v0l-0.3,0.1c0,0,0,0,0,0L76.4,51
		c-2.4,1.3-4,3.9-4,6.7v29.1L42.7,72.7V9.4z M58.4,192v-25.4h37.5V192H58.4z M131.9,192h-28v-27.3c0-3.4-2.8-6.1-6.1-6.1H56.5
		c-3.4,0-6.1,2.8-6.1,6.1V192H28.9V75L39,79.8l30.5,14.4l0.4,0.2l6.9,3.3l55.1,26.1V192z M170.6,192h-30.7v-68.6
		c0-2.9-1.7-5.6-4.4-6.9L80.4,90.5V66.8h90.2V192z M170.6,58.8H80.4v-0.9l15-8.2h75.2V58.8z M170.6,41.7H110l15.5-8.5
		c0.3-0.2,0.6-0.3,0.9-0.5h44.2V41.7z M170.6,24.7h-29.4l29.4-16.1V24.7z"/>
</g>
<g>
	<path d="M61.2,106.4h-25c-2.2,0-4-1.8-4-4s1.8-4,4-4h25c2.2,0,4,1.8,4,4S63.4,106.4,61.2,106.4z"/>
</g>
<g>
	<path d="M86.9,119.7H36.1c-2.2,0-4-1.8-4-4s1.8-4,4-4h50.8c2.2,0,4,1.8,4,4S89.1,119.7,86.9,119.7z"/>
</g>
<g>
	<path d="M117.8,134H36.1c-2.2,0-4-1.8-4-4s1.8-4,4-4h81.6c2.2,0,4,1.8,4,4S120,134,117.8,134z"/>
</g>
</svg>
