<?xml version="1.0" encoding="utf-8"?>
<!-- Generator: Adobe Illustrator 21.0.0, SVG Export Plug-In . SVG Version: 6.00 Build 0)  -->
<svg version="1.1" id="Layer_2" xmlns="http://www.w3.org/2000/svg" xmlns:xlink="http://www.w3.org/1999/xlink" x="0px" y="0px"
	 width="200px" height="200px" viewBox="0 0 200 200" style="enable-background:new 0 0 200 200;" xml:space="preserve">
<g>
	<path d="M196,160.8h-31.3V37.7c0-2.2-1.8-4-4-4H39.2V4.1c0-2.2-1.8-4-4-4c-2.2,0-4,1.8-4,4v29.5H4.4c-2.2,0-4,1.8-4,4
		c0,2.2,1.8,4,4,4h26.8v123.1c0,0.3,0,0.6,0.1,0.9c0,0.1,0,0.2,0.1,0.3c0.1,0.2,0.2,0.5,0.3,0.7c0.1,0.1,0.1,0.2,0.2,0.3
		s0.2,0.2,0.2,0.3c0.1,0.1,0.2,0.2,0.3,0.3s0.2,0.2,0.3,0.3c0.1,0.1,0.2,0.2,0.3,0.2s0.2,0.1,0.3,0.2c0.2,0.1,0.4,0.2,0.7,0.3
		c0.1,0,0.2,0.1,0.3,0.1c0.3,0.1,0.6,0.1,0.9,0.1h121.5V196c0,2.2,1.8,4,4,4c2.2,0,4-1.8,4-4v-27.2H196c2.2,0,4-1.8,4-4
		C200,162.6,198.2,160.8,196,160.8z M156.7,160.8H44.9l95.6-95.6c1.6-1.6,1.6-4.1,0-5.7s-4.1-1.6-5.6,0l-95.6,95.6V41.7h117.5V160.8
		z"/>
</g>
<g>
	<path d="M173.4,31c-1,0-2-0.4-2.8-1.1c-1.6-1.5-1.6-4.1-0.1-5.7l12.2-12.5c1.5-1.6,4.1-1.6,5.7-0.1c1.6,1.5,1.6,4.1,0.1,5.7
		l-12.2,12.5C175.5,30.6,174.5,31,173.4,31z"/>
</g>
</svg>
