<?xml version="1.0" encoding="utf-8"?>
<!-- Generator: Adobe Illustrator 21.0.0, SVG Export Plug-In . SVG Version: 6.00 Build 0)  -->
<svg version="1.1" id="Layer_3" xmlns="http://www.w3.org/2000/svg" xmlns:xlink="http://www.w3.org/1999/xlink" x="0px" y="0px"
	 width="200px" height="200px" viewBox="0 0 200 200" style="enable-background:new 0 0 200 200;" xml:space="preserve">
<g>
	<path d="M100.1,143.9C100.1,143.9,100.1,143.9,100.1,143.9c-3.9,0-7.5-1.5-10.1-4.3c-13.7-14.3-37-37.7-37.2-37.9
		c-1.6-1.6-1.6-4.1,0-5.7c1.6-1.6,4.1-1.6,5.7,0c0.2,0.2,23.6,23.7,37.3,38c1.1,1.2,2.7,1.8,4.3,1.8c1.7,0,3.2-0.6,4.3-1.8l37-38
		c1.5-1.6,4.1-1.6,5.7-0.1c1.6,1.5,1.6,4.1,0.1,5.7l-37,38C107.5,142.4,103.9,143.9,100.1,143.9z"/>
</g>
</svg>
