<?xml version="1.0" encoding="utf-8"?>
<!-- Generator: Adobe Illustrator 21.0.0, SVG Export Plug-In . SVG Version: 6.00 Build 0)  -->
<svg version="1.1" id="Layer_3" xmlns="http://www.w3.org/2000/svg" xmlns:xlink="http://www.w3.org/1999/xlink" x="0px" y="0px"
	 width="200px" height="200px" viewBox="0 0 200 200" style="enable-background:new 0 0 200 200;" xml:space="preserve">
<g>
	<g>
		<path d="M192.3,0.2h-19.5c-3.9,0-7,3.1-7,7v7.5H155c-1.7,0-3,1.3-3,3c0,1.7,1.3,3,3,3h10.8V29c0,3.9,3.1,7,7,7h8.3v10.3
			c0,1.7,1.4,3,3,3c1.7,0,3-1.3,3-3V36h5.2c3.9,0,7-3.1,7-7V7.2C199.3,3.4,196.2,0.2,192.3,0.2z M191.3,28h-17.5V8.2h17.5V28z"/>
	</g>
</g>
<g>
	<g>
		<path d="M184.1,74.7c-1.7,0-3-1.3-3-3V59c0-1.7,1.3-3,3-3s3,1.3,3,3v12.7C187.1,73.4,185.8,74.7,184.1,74.7z"/>
	</g>
</g>
<g>
	<g>
		<path d="M184.1,99c-1.7,0-3-1.3-3-3V83.3c0-1.7,1.3-3,3-3s3,1.3,3,3V96C187.1,97.7,185.8,99,184.1,99z"/>
	</g>
</g>
<g>
	<g>
		<path d="M184.1,123.3c-1.7,0-3-1.3-3-3v-12.7c0-1.7,1.3-3,3-3s3,1.3,3,3v12.7C187.1,122,185.8,123.3,184.1,123.3z"/>
	</g>
</g>
<g>
	<g>
		<path d="M184.1,147.6c-1.7,0-3-1.3-3-3v-12.7c0-1.7,1.3-3,3-3s3,1.3,3,3v12.7C187.1,146.3,185.8,147.6,184.1,147.6z"/>
	</g>
</g>
<g>
	<g>
		<path d="M18.1,74.7c-1.7,0-3-1.3-3-3V59c0-1.7,1.3-3,3-3s3,1.3,3,3v12.7C21.1,73.4,19.8,74.7,18.1,74.7z"/>
	</g>
</g>
<g>
	<g>
		<path d="M18.1,99c-1.7,0-3-1.3-3-3V83.3c0-1.7,1.3-3,3-3s3,1.3,3,3V96C21.1,97.7,19.8,99,18.1,99z"/>
	</g>
</g>
<g>
	<g>
		<path d="M18.1,123.3c-1.7,0-3-1.3-3-3v-12.7c0-1.7,1.3-3,3-3s3,1.3,3,3v12.7C21.1,122,19.8,123.3,18.1,123.3z"/>
	</g>
</g>
<g>
	<g>
		<path d="M18.1,147.6c-1.7,0-3-1.3-3-3v-12.7c0-1.7,1.3-3,3-3s3,1.3,3,3v12.7C21.1,146.3,19.8,147.6,18.1,147.6z"/>
	</g>
</g>
<g>
	<g>
		<path d="M44.7,179h-10v-7.9c0-3.9-3.1-7-7-7h-6.6v-8c0-1.7-1.3-3-3-3c-1.7,0-3,1.3-3,3v8h-7c-3.9,0-7,3.1-7,7v21.8
			c0,3.9,3.1,7,7,7h19.5c3.9,0,7-3.1,7-7V185h10c1.7,0,3-1.3,3-3C47.7,180.3,46.4,179,44.7,179z M26.7,191.9H9.2v-19.8h17.5V191.9z"
			/>
	</g>
</g>
<g>
	<g>
		<path d="M192.3,164.1h-5.2v-8c0-1.7-1.3-3-3-3c-1.6,0-3,1.3-3,3v8h-8.3c-3.9,0-7,3.1-7,7v7.9H155c-1.7,0-3,1.3-3,3
			c0,1.7,1.3,3,3,3h10.8v7.9c0,3.9,3.1,7,7,7h19.5c3.9,0,7-3.1,7-7v-21.8C199.3,167.3,196.2,164.1,192.3,164.1z M191.3,191.9h-17.5
			v-19.8h17.5V191.9z"/>
	</g>
</g>
<g>
	<g>
		<path d="M142.2,185h-12.8c-1.7,0-3-1.3-3-3s1.3-3,3-3h12.8c1.7,0,3,1.3,3,3S143.9,185,142.2,185z"/>
	</g>
</g>
<g>
	<g>
		<path d="M117.9,185h-12.8c-1.7,0-3-1.3-3-3s1.3-3,3-3h12.8c1.7,0,3,1.3,3,3S119.5,185,117.9,185z"/>
	</g>
</g>
<g>
	<g>
		<path d="M93.5,185H80.7c-1.7,0-3-1.3-3-3s1.3-3,3-3h12.8c1.7,0,3,1.3,3,3S95.1,185,93.5,185z"/>
	</g>
</g>
<g>
	<g>
		<path d="M69.1,185H56.3c-1.7,0-3-1.3-3-3s1.3-3,3-3h12.8c1.7,0,3,1.3,3,3S70.8,185,69.1,185z"/>
	</g>
</g>
<g>
	<g>
		<path d="M142.2,20.7h-12.8c-1.7,0-3-1.3-3-3s1.3-3,3-3h12.8c1.7,0,3,1.3,3,3S143.9,20.7,142.2,20.7z"/>
	</g>
</g>
<g>
	<g>
		<path d="M117.9,20.7h-12.8c-1.7,0-3-1.3-3-3s1.3-3,3-3h12.8c1.7,0,3,1.3,3,3S119.5,20.7,117.9,20.7z"/>
	</g>
</g>
<g>
	<g>
		<path d="M93.5,20.7H80.7c-1.7,0-3-1.3-3-3s1.3-3,3-3h12.8c1.7,0,3,1.3,3,3S95.1,20.7,93.5,20.7z"/>
	</g>
</g>
<g>
	<g>
		<path d="M69.1,20.7H56.3c-1.7,0-3-1.3-3-3s1.3-3,3-3h12.8c1.7,0,3,1.3,3,3S70.8,20.7,69.1,20.7z"/>
	</g>
</g>
<g>
	<g>
		<path d="M44.7,14.7h-10V7.2c0-3.9-3.1-7-7-7H8.2c-3.9,0-7,3.1-7,7V29c0,3.9,3.1,7,7,7h7v10.3c0,1.7,1.3,3,3,3c1.7,0,3-1.3,3-3V36
			h6.6c3.9,0,7-3.1,7-7v-8.3h10c1.7,0,3-1.3,3-3C47.7,16.1,46.4,14.7,44.7,14.7z M26.7,28H9.2V8.2h17.5V28z"/>
	</g>
</g>
<g>
	<path d="M147.1,49.5h-90c-3.9,0-7,3.1-7,7v84.9c0,3.9,3.1,7,7,7h90c3.9,0,7-3.1,7-7V56.5C154.1,52.7,151,49.5,147.1,49.5z
		 M58.1,57.5h88v46.6l-19.4-10.5c-1.2-0.6-2.6-0.6-3.7,0l-14.4,7.4L82.6,83.9c-1.1-0.8-2.6-0.9-3.8-0.3l-20.7,9.2V57.5z
		 M146.1,140.5h-88v-38.9l22-9.8l20.3,13.4l-10.4,5.4c-2,1-2.7,3.4-1.7,5.4c0.7,1.4,2.1,2.2,3.6,2.2c0.6,0,1.2-0.1,1.8-0.4l16.4-8.5
		c0.1,0,0.1-0.1,0.2-0.1l14.5-7.5l21.4,11.5V140.5z"/>
</g>
<g>
	<path d="M111.4,87.8c-6.4,0-11.7-5.2-11.7-11.7s5.2-11.7,11.7-11.7c6.4,0,11.7,5.2,11.7,11.7S117.9,87.8,111.4,87.8z M111.4,72.5
		c-2,0-3.7,1.6-3.7,3.7c0,2,1.6,3.7,3.7,3.7c2,0,3.7-1.6,3.7-3.7C115.1,74.1,113.4,72.5,111.4,72.5z"/>
</g>
</svg>
