<?xml version="1.0" encoding="utf-8"?>
<!-- Generator: Adobe Illustrator 21.0.0, SVG Export Plug-In . SVG Version: 6.00 Build 0)  -->
<svg version="1.1" id="Layer_2" xmlns="http://www.w3.org/2000/svg" xmlns:xlink="http://www.w3.org/1999/xlink" x="0px" y="0px"
	 width="200px" height="200px" viewBox="0 0 200 200" style="enable-background:new 0 0 200 200;" xml:space="preserve">
<g>
	<path d="M183.4,50l0-1.2c-0.1-7.1-10.1-19.9-17.2-19.9H88.6l-0.3,0c-2.5-3.4-5.5-5.9-9.7-5.9H20.8c-7.2,0-13.1,5.9-13.1,13.1
		l1,123.9c0,7.2,5.9,13.1,13.1,13.1h156.5c7.2,0,13.1-5.9,13.1-13.1V62C191.4,56.6,188.1,52,183.4,50z M166.2,36.9
		c2.8,0,9.2,9.2,9.2,12v0h-70.8c-1.6,0-3.2-0.8-4.1-2.1l-6.2-9.9H166.2z M183.4,160c0,2.8-2.3,5.1-5.1,5.1H21.7
		c-2.8,0-5.1-2.3-5.1-5.1l-1-123.9c0-2.8,2.3-5.1,5.1-5.1h56.4c2.6-0.1,4.6,0.8,5.6,2.1L94,51.4c2.4,3.4,6.4,5.5,10.6,5.5h73.6
		c2.8,0,5.1,2.3,5.1,5.1V160z"/>
</g>
</svg>
