<?xml version="1.0" encoding="utf-8"?>
<!-- Generator: Adobe Illustrator 21.0.0, SVG Export Plug-In . SVG Version: 6.00 Build 0)  -->
<svg version="1.1" id="Layer_2" xmlns="http://www.w3.org/2000/svg" xmlns:xlink="http://www.w3.org/1999/xlink" x="0px" y="0px"
	 width="200px" height="200px" viewBox="0 0 200 200" style="enable-background:new 0 0 200 200;" xml:space="preserve">
<g>
	<path d="M155,78.9c0.9-4,1.4-8.1,1.4-12.4c0-31.2-25.4-56.6-56.6-56.6c-31.2,0-56.6,25.4-56.6,56.6c0,4.3,0.5,8.5,1.4,12.5
		c-23.7,6.7-41.2,28.6-41.2,54.5c0,31.2,25.4,56.6,56.6,56.6c15.6,0,29.7-6.3,40-16.6c10.3,10.2,24.4,16.6,40,16.6
		c31.2,0,56.6-25.4,56.6-56.6C196.6,107.5,179,85.5,155,78.9z M99.8,17.9c26.8,0,48.6,21.8,48.6,48.6c0,3.7-0.4,7.3-1.2,10.8
		c-2.4-0.3-4.8-0.5-7.2-0.5c-15.6,0-29.7,6.3-40,16.6C89.8,83.2,75.6,76.9,60,76.9c-2.6,0-5.1,0.2-7.6,0.5
		c-0.8-3.5-1.2-7.1-1.2-10.8C51.2,39.7,73,17.9,99.8,17.9z M92.6,122.7c2.4,0.3,4.8,0.5,7.2,0.5c2.6,0,5.1-0.2,7.6-0.5
		c0.8,3.5,1.2,7.1,1.2,10.8c0,10.3-3.2,19.8-8.6,27.6c-5.4-7.8-8.6-17.4-8.6-27.6C91.4,129.8,91.8,126.1,92.6,122.7z M87,113.4
		c-14.5-4-26.4-14.5-32.1-28.3c1.7-0.2,3.4-0.3,5.1-0.3c13.6,0,25.9,5.6,34.7,14.6C91.6,103.7,89,108.4,87,113.4z M95.1,114.9
		c1.3-3.2,3-6.2,4.9-9c2,2.8,3.6,5.8,4.9,9c-1.7,0.2-3.4,0.3-5.1,0.3C98.2,115.1,96.6,115,95.1,114.9z M105.3,99.5
		c8.8-9,21.1-14.6,34.7-14.6c1.6,0,3.2,0.1,4.7,0.2c-5.7,13.7-17.4,24.2-31.8,28.2C111,108.3,108.4,103.7,105.3,99.5z M60,182.1
		c-26.8,0-48.6-21.8-48.6-48.6c0-22.3,15-41.1,35.5-46.8c6.4,16.7,20.4,29.6,37.8,34.4c-0.9,4-1.4,8.1-1.4,12.4
		c0,12.7,4.2,24.5,11.4,34C85.9,176.5,73.6,182.1,60,182.1z M140,182.1c-13.6,0-25.9-5.6-34.7-14.6c7.1-9.5,11.4-21.2,11.4-34
		c0-4.3-0.5-8.5-1.4-12.5c17.3-4.9,31.2-17.8,37.5-34.4c20.6,5.6,35.8,24.5,35.8,46.9C188.6,160.3,166.8,182.1,140,182.1z"/>
</g>
</svg>
