<?xml version="1.0" encoding="utf-8"?>
<!-- Generator: Adobe Illustrator 21.0.0, SVG Export Plug-In . SVG Version: 6.00 Build 0)  -->
<svg version="1.1" id="Layer_3" xmlns="http://www.w3.org/2000/svg" xmlns:xlink="http://www.w3.org/1999/xlink" x="0px" y="0px"
	 width="200px" height="200px" viewBox="0 0 200 200" style="enable-background:new 0 0 200 200;" xml:space="preserve">
<g>
	<path d="M120.2,43.6c-7.1-1.5-13.7-2.2-20.2-2.2c-28.5,0-53.9,13.7-70.1,25.3C20.6,73.3,13.4,79.7,9,84c-9,8.7-9,9.8-9,11.6
		c0,1.6,0,3.3,11.7,14.1c6,5.5,15.6,13.6,27.7,21.1l3.4,2.1l21.2-21.5l7-7l27.9-28.2l30.4-30.6L120.2,43.6z M98.6,62.1
		C81.1,62.8,67,77,66.5,94.6l-2.7,2.7l-7,7l-15.6,15.8c-14.3-9.3-25-19.5-29.6-24.5c9.5-10,45.4-44.2,88.4-44.2
		c2.9,0,5.8,0.2,8.8,0.5L98.6,62.1z"/>
</g>
<g>
	<path d="M188.1,81.3c-6.1-5.6-15.9-13.9-28.3-21.3l-3.4-2L129,85.9l-38.4,38.7l-6.7,6.7L70,145.4l8.7,2c7,1.6,14.2,2.4,21.3,2.4
		c28.5,0,53.9-13.7,70.1-25.3c9.3-6.6,16.5-13.1,20.9-17.4c9-8.7,9-9.8,9-11.6C200,94.1,200,92.2,188.1,81.3z M100,139.8
		c-3.3,0-6.6-0.2-9.9-0.6l7.6-7.6l2.5-2.5c18.4-0.1,33.3-15.1,33.3-33.5v-0.1L158,70.7c14.7,9.4,25.6,19.9,30.3,24.9
		C178.9,105.5,143,139.8,100,139.8z"/>
</g>
<g>
	<path d="M31.2,170.9c-1.3,0-2.5-0.5-3.5-1.4c-2-1.9-2-5.1,0-7.1l43.1-43.6l31.5-31.7l31.6-31.9L161,27.7c1.9-2,5.1-2,7.1,0
		c2,1.9,2,5.1,0,7.1L141,62.2l-31.6,31.9l-31.5,31.7l-43.1,43.6C33.8,170.4,32.5,170.9,31.2,170.9z"/>
</g>
</svg>
