<?xml version="1.0" encoding="utf-8"?>
<!-- Generator: Adobe Illustrator 21.0.0, SVG Export Plug-In . SVG Version: 6.00 Build 0)  -->
<svg version="1.1" id="Layer_3" xmlns="http://www.w3.org/2000/svg" xmlns:xlink="http://www.w3.org/1999/xlink" x="0px" y="0px"
	 width="200px" height="200px" viewBox="0 0 200 200" style="enable-background:new 0 0 200 200;" xml:space="preserve">
<g>
	<path d="M183.8,0.1H16.1c-8.8,0-16,7.2-16,16v167.8c0,8.8,7.2,16,16,16h167.8c8.8,0,16-7.2,16-16V16.1
		C199.8,7.3,192.7,0.1,183.8,0.1z M8.1,16.1c0-4.4,3.6-8,8-8h167.8c4.4,0,8,3.6,8,8v105.1l-41.7-43.4c-0.7-0.8-1.8-1.2-2.8-1.2
		c-1.1,0-2.1,0.4-2.9,1.2l-59.2,59.7L52,103.7c-1.5-1.6-4.1-1.6-5.6,0L8.1,141.1V16.1z M191.8,183.9c0,4.4-3.6,8-8,8H16.1
		c-4.4,0-8-3.6-8-8v-31.8c0.2-0.1,0.4-0.3,0.5-0.5l40.4-39.5l33.3,33.7c0.8,0.8,1.8,1.2,2.8,1.2c0,0,0,0,0,0c1.1,0,2.1-0.4,2.8-1.2
		l59.2-59.6l44.6,46.4V183.9z"/>
</g>
<g>
	<path d="M63.6,79.3c-13.7,0-24.9-11.2-24.9-24.9s11.2-24.9,24.9-24.9s24.9,11.2,24.9,24.9S77.3,79.3,63.6,79.3z M63.6,37.4
		c-9.3,0-16.9,7.6-16.9,16.9s7.6,16.9,16.9,16.9s16.9-7.6,16.9-16.9S72.9,37.4,63.6,37.4z"/>
</g>
</svg>
