<?xml version="1.0" encoding="utf-8"?>
<!-- Generator: Adobe Illustrator 21.0.0, SVG Export Plug-In . SVG Version: 6.00 Build 0)  -->
<svg version="1.1" id="Layer_3" xmlns="http://www.w3.org/2000/svg" xmlns:xlink="http://www.w3.org/1999/xlink" x="0px" y="0px"
	 width="200px" height="200px" viewBox="0 0 200 200" style="enable-background:new 0 0 200 200;" xml:space="preserve">
<g>
	<path d="M101,148.3c-1,0-2-0.4-2.8-1.1l-38-37c-2.7-2.7-4.2-6.3-4.2-10.1c0-3.8,1.5-7.4,4.3-10c14.3-13.7,37.7-37,37.9-37.2
		c1.6-1.6,4.1-1.6,5.7,0c1.6,1.6,1.6,4.1,0,5.7c-0.2,0.2-23.7,23.6-38,37.3c-1.2,1.1-1.8,2.7-1.8,4.3c0,1.6,0.6,3.2,1.8,4.3l38,37
		c1.6,1.5,1.6,4.1,0.1,5.7C103.1,147.9,102.1,148.3,101,148.3z"/>
</g>
</svg>
