<?xml version="1.0" encoding="utf-8"?>
<!-- Generator: Adobe Illustrator 21.0.0, SVG Export Plug-In . SVG Version: 6.00 Build 0)  -->
<svg version="1.1" id="Layer_2" xmlns="http://www.w3.org/2000/svg" xmlns:xlink="http://www.w3.org/1999/xlink" x="0px" y="0px"
	 width="200px" height="200px" viewBox="0 0 200 200" style="enable-background:new 0 0 200 200;" xml:space="preserve">
<g>
	<g>
		<path d="M200.2,72.5c0,15-5.8,29-16.3,39.5l-7.5,7.6c-0.1,0.1-0.3,0.2-0.4,0.4l-71.4,61.7c-1.3,1.1-2.9,1.7-4.6,1.7
			s-3.3-0.6-4.6-1.7L24.1,120c-0.1-0.1-0.2-0.2-0.3-0.3l-7.6-7.6C5.6,101.5-0.2,87.5-0.2,72.5c0-15,5.8-29,16.3-39.5
			c10.5-10.5,24.5-16.3,39.5-16.3c15,0,29,5.8,39.5,16.3l4.8,4.8l4.8-4.8c10.5-10.5,24.5-16.3,39.5-16.3c15,0,29,5.8,39.5,16.3
			C194.4,43.5,200.2,57.5,200.2,72.5z"/>
	</g>
</g>
</svg>
