<?xml version="1.0" encoding="utf-8"?>
<!-- Generator: Adobe Illustrator 21.0.0, SVG Export Plug-In . SVG Version: 6.00 Build 0)  -->
<svg version="1.1" id="Layer_3" xmlns="http://www.w3.org/2000/svg" xmlns:xlink="http://www.w3.org/1999/xlink" x="0px" y="0px"
	 width="200px" height="200px" viewBox="0 0 200 200" style="enable-background:new 0 0 200 200;" xml:space="preserve">
<g>
	<path d="M100,111.1c-22.7,0-41.2-18.5-41.2-41.2S77.3,28.7,100,28.7s41.2,18.5,41.2,41.2S122.7,111.1,100,111.1z M100,36.7
		c-18.3,0-33.2,14.9-33.2,33.2c0,18.3,14.9,33.2,33.2,33.2s33.2-14.9,33.2-33.2C133.2,51.6,118.3,36.7,100,36.7z"/>
</g>
<g>
	<path d="M100,196.9c-2.6,0-5-1.2-6.6-3.2C78.3,174,29.1,107.3,29.1,74.4c0-39.1,31.8-70.9,70.9-70.9s70.9,31.8,70.9,70.9
		c0,32.9-49.2,99.6-64.3,119.2C105,195.7,102.6,196.9,100,196.9z M100,11.5c-34.7,0-62.9,28.2-62.9,62.9
		c0,24.1,32.4,74.9,62.7,114.4c0,0,0.1,0.1,0.2,0.1c0.1,0,0.2-0.1,0.2-0.1c30.3-39.5,62.7-90.2,62.7-114.4
		C162.9,39.7,134.7,11.5,100,11.5z"/>
</g>
</svg>
