<?xml version="1.0" encoding="utf-8"?>
<!-- Generator: Adobe Illustrator 21.0.0, SVG Export Plug-In . SVG Version: 6.00 Build 0)  -->
<svg version="1.1" id="Layer_1" xmlns="http://www.w3.org/2000/svg" xmlns:xlink="http://www.w3.org/1999/xlink" x="0px" y="0px"
	 width="200px" height="200px" viewBox="0 0 200 200" style="enable-background:new 0 0 200 200;" xml:space="preserve">
<g>
	<g>
		<path d="M195,28.5H5c-2.8,0-5-2.2-5-5s2.2-5,5-5h190c2.8,0,5,2.2,5,5S197.8,28.5,195,28.5z"/>
	</g>
	<g>
		<path d="M195,79.5H5c-2.8,0-5-2.2-5-5s2.2-5,5-5h190c2.8,0,5,2.2,5,5S197.8,79.5,195,79.5z"/>
	</g>
	<g>
		<path d="M195,130.5H5c-2.8,0-5-2.2-5-5s2.2-5,5-5h190c2.8,0,5,2.2,5,5S197.8,130.5,195,130.5z"/>
	</g>
	<g>
		<path d="M195,181.5H5c-2.8,0-5-2.2-5-5s2.2-5,5-5h190c2.8,0,5,2.2,5,5S197.8,181.5,195,181.5z"/>
	</g>
</g>
</svg>
