<?xml version="1.0" encoding="utf-8"?>
<!-- Generator: Adobe Illustrator 21.0.0, SVG Export Plug-In . SVG Version: 6.00 Build 0)  -->
<svg version="1.1" id="Layer_3" xmlns="http://www.w3.org/2000/svg" xmlns:xlink="http://www.w3.org/1999/xlink" x="0px" y="0px"
	 width="200px" height="200px" viewBox="0 0 200 200" style="enable-background:new 0 0 200 200;" xml:space="preserve">
<g>
	<path d="M196,26.7H4c-2.2,0-4-1.8-4-4s1.8-4,4-4h192c2.2,0,4,1.8,4,4S198.2,26.7,196,26.7z"/>
</g>
<g>
	<path d="M196,78.2H86c-2.2,0-4-1.8-4-4s1.8-4,4-4h110c2.2,0,4,1.8,4,4S198.2,78.2,196,78.2z"/>
</g>
<g>
	<path d="M196,129.8H4c-2.2,0-4-1.8-4-4s1.8-4,4-4h192c2.2,0,4,1.8,4,4S198.2,129.8,196,129.8z"/>
</g>
<g>
	<path d="M196,181.3H86c-2.2,0-4-1.8-4-4s1.8-4,4-4h110c2.2,0,4,1.8,4,4S198.2,181.3,196,181.3z"/>
</g>
</svg>
