<?xml version="1.0" encoding="utf-8"?>
<!-- Generator: Adobe Illustrator 21.0.0, SVG Export Plug-In . SVG Version: 6.00 Build 0)  -->
<svg version="1.1" id="Layer_3" xmlns="http://www.w3.org/2000/svg" xmlns:xlink="http://www.w3.org/1999/xlink" x="0px" y="0px"
	 width="200px" height="200px" viewBox="0 0 200 200" style="enable-background:new 0 0 200 200;" xml:space="preserve">
<g>
	<path d="M100.1,148.3c-1,0-2-0.4-2.8-1.1c-1.6-1.5-1.7-4.1-0.1-5.7c0.2-0.2,23-24.2,36.9-38.3c1.1-1.2,1.8-2.7,1.7-4.3
		c0-1.6-0.7-3.2-1.9-4.3l-39-36c-1.6-1.5-1.7-4-0.2-5.7c1.5-1.6,4-1.7,5.7-0.2l39,36c2.8,2.6,4.4,6.1,4.5,10c0.1,3.8-1.3,7.4-4,10.2
		c-13.9,14.1-36.6,38-36.8,38.2C102.2,147.9,101.2,148.3,100.1,148.3z"/>
</g>
</svg>
