<?xml version="1.0" encoding="utf-8"?>
<!-- Generator: Adobe Illustrator 21.0.0, SVG Export Plug-In . SVG Version: 6.00 Build 0)  -->
<svg version="1.1" id="Layer_3" xmlns="http://www.w3.org/2000/svg" xmlns:xlink="http://www.w3.org/1999/xlink" x="0px" y="0px"
	 width="200px" height="200px" viewBox="0 0 200 200" style="enable-background:new 0 0 200 200;" xml:space="preserve">
<g>
	<path d="M151.2,200.3c-1.7,0-3.4-0.7-4.7-2l-0.2-0.2l-0.2-0.3L100,131.9l-46.3,66.2l-0.2,0.2c-1.9,2-4.7,2.5-7.1,1.5
		c-2.8-1.1-4.5-4-4.5-7.3V8.1c0-4.3,3.1-7.8,7-7.8h102.5c3.9,0,7,3.5,7,7.8v184.5c0,3.3-1.8,6.2-4.5,7.3
		C152.9,200.2,152.1,200.3,151.2,200.3z M100,122.8c1.7,0,3.4,0.7,4.7,2l0.2,0.2l0.2,0.3l45.1,64.5V8.3H49.8v181.5L95.1,125l0.2-0.2
		C96.6,123.5,98.3,122.8,100,122.8z"/>
</g>
</svg>
