<?xml version="1.0" encoding="utf-8"?>
<!-- Generator: Adobe Illustrator 21.0.0, SVG Export Plug-In . SVG Version: 6.00 Build 0)  -->
<svg version="1.1" id="Layer_3" xmlns="http://www.w3.org/2000/svg" xmlns:xlink="http://www.w3.org/1999/xlink" x="0px" y="0px"
	 width="200px" height="200px" viewBox="0 0 200 200" style="enable-background:new 0 0 200 200;" xml:space="preserve">
<g>
	<path d="M100,154.1c-28.5,0-53.9-13.8-70.2-25.3c-9.3-6.6-16.6-13.1-21-17.4C0,102.8,0,101.7,0,100.4s0-2.5,8.8-10.9
		c4.5-4.3,11.7-10.8,21-17.4C46.1,60.4,71.5,46.7,100,46.7s53.9,13.8,70.2,25.3c9.3,6.6,16.6,13.1,21,17.4c8.8,8.5,8.8,9.6,8.8,10.9
		s0,2.5-8.8,10.9c-4.5,4.3-11.7,10.8-21,17.4C153.9,140.3,128.5,154.1,100,154.1z M9.2,100.4c9.5,10.5,47.7,45.7,90.8,45.7
		s81.4-35.2,90.8-45.7c-9.5-10.5-47.7-45.7-90.8-45.7C56.9,54.7,18.6,89.8,9.2,100.4z"/>
</g>
<g>
	<path d="M137.4,100.4c0,20.6-16.7,37.4-37.4,37.4S62.6,121,62.6,100.4C62.6,79.7,79.4,63,100,63c6.5,0,12.7,1.7,18,4.6
		c-7.1,0.5-12.7,6.5-12.7,13.7c0,7.6,6.1,13.7,13.7,13.7c7.2,0,13.1-5.6,13.7-12.7C135.7,87.7,137.4,93.9,137.4,100.4z"/>
</g>
</svg>
