<?xml version="1.0" encoding="utf-8"?>
<!-- Generator: Adobe Illustrator 21.0.0, SVG Export Plug-In . SVG Version: 6.00 Build 0)  -->
<svg version="1.1" id="Layer_3" xmlns="http://www.w3.org/2000/svg" xmlns:xlink="http://www.w3.org/1999/xlink" x="0px" y="0px"
	 width="200px" height="200px" viewBox="0 0 200 200" style="enable-background:new 0 0 200 200;" xml:space="preserve">
<g>
	<path d="M141.6,79.7c-31.7,0-57.4,25.8-57.4,57.4c0,31.7,25.8,57.4,57.4,57.4c31.7,0,57.4-25.8,57.4-57.4
		C199,105.5,173.2,79.7,141.6,79.7z M141.6,186.3c-27.1,0-49.2-22.1-49.2-49.2c0-27.1,22.1-49.2,49.2-49.2
		c27.1,0,49.2,22.1,49.2,49.2C190.8,164.3,168.7,186.3,141.6,186.3z"/>
</g>
<g>
	<path d="M156.9,144.7c0,5.2-3.4,14.6-10.1,14.6h-0.4l0,6.5c0,2.2-1.6,4.1-3.7,4.3c-2.5,0.2-4.5-1.7-4.5-4.1v-6.7l-7.6,0
		c-2.2,0-4.1-1.6-4.3-3.7c-0.2-2.5,1.7-4.5,4.1-4.5l14,0c1.4,0,2.7-0.8,3.2-2.1c0.6-1.3,1-2.9,1-4.3c0-1.9-1.1-3.2-1.8-3.2h-10.5
		c-5.5,0-10.1-5.1-10.1-11.4c0-5.4,3.4-15.1,10.1-15.1h1.9l0-10.3c0-2.2,1.6-4.1,3.7-4.3c2.5-0.2,4.5,1.7,4.5,4.1V115l6.1,0
		c2.2,0,4.1,1.6,4.3,3.7c0.2,2.5-1.7,4.5-4.1,4.5h-13.7c-1.5,0-2.9,0.9-3.5,2.3c-0.6,1.4-1,3.1-1,4.5c0,1.9,1.1,3.2,1.8,3.2h10.5
		C152.4,133.3,156.9,138.4,156.9,144.7z"/>
</g>
<g>
	<path d="M154.2,22.2v46.2c0,2.3-1.9,4.1-4.1,4.1c-2.3,0-4.1-1.9-4.1-4.1V22.2c0-4.7-3.8-8.5-8.5-8.5H17.8c-4.7,0-8.5,3.8-8.5,8.5
		v150.7c0,4.7,3.8,8.5,8.5,8.5h35.8v-59c0-5.1,4.1-9.2,9.2-9.2h8.1c2.3,0,4.1,1.8,4.1,4.1c0,2.3-1.8,4.1-4.1,4.1h-8.1
		c-0.5,0-0.9,0.4-0.9,0.9v59h27.7c2.3,0,4.1,1.8,4.1,4.1c0,2.3-1.9,4.1-4.1,4.1H17.8c-9.2,0-16.8-7.5-16.8-16.8V22.2
		C1,13,8.5,5.4,17.8,5.4h119.7C146.7,5.4,154.2,13,154.2,22.2z"/>
</g>
<g>
	<path d="M56.4,73.3H40.3c-8,0-14.4-6.5-14.4-14.4V42.8c0-8,6.5-14.4,14.4-14.4h16.1c8,0,14.4,6.5,14.4,14.4v16.1
		C70.8,66.8,64.3,73.3,56.4,73.3z M40.3,36.6c-3.4,0-6.2,2.8-6.2,6.2v16.1c0,3.4,2.8,6.2,6.2,6.2h16.1c3.4,0,6.2-2.8,6.2-6.2V42.8
		c0-3.4-2.8-6.2-6.2-6.2H40.3z"/>
</g>
<g>
	<path d="M118.4,72.5h-16.2c-8,0-14.4-6.5-14.4-14.4V41.8c0-8,6.5-14.4,14.4-14.4h16.2c8,0,14.4,6.5,14.4,14.4V58
		C132.9,66,126.4,72.5,118.4,72.5z M102.2,35.6c-3.4,0-6.2,2.8-6.2,6.2V58c0,3.4,2.8,6.2,6.2,6.2h16.2c3.4,0,6.2-2.8,6.2-6.2V41.8
		c0-3.4-2.8-6.2-6.2-6.2H102.2z"/>
</g>
</svg>
