<?xml version="1.0" encoding="utf-8"?>
<!-- Generator: Adobe Illustrator 21.0.0, SVG Export Plug-In . SVG Version: 6.00 Build 0)  -->
<svg version="1.1" id="Layer_2" xmlns="http://www.w3.org/2000/svg" xmlns:xlink="http://www.w3.org/1999/xlink" x="0px" y="0px"
	 width="200px" height="200px" viewBox="0 0 200 200" style="enable-background:new 0 0 200 200;" xml:space="preserve">
<g>
	<g>
		<path d="M108.3,66.1c-11.2,0-20.3-9.1-20.3-20.3c0-11.2,9.1-20.3,20.3-20.3c11.2,0,20.3,9.1,20.3,20.3
			C128.6,57,119.5,66.1,108.3,66.1z M108.3,33.5c-6.8,0-12.3,5.5-12.3,12.3c0,6.8,5.5,12.3,12.3,12.3c6.8,0,12.3-5.5,12.3-12.3
			C120.6,39.1,115.1,33.5,108.3,33.5z"/>
	</g>
</g>
<g>
	<g>
		<path d="M67.3,193H22.7C13.5,193,6,185.5,6,176.3V23.7C6,14.5,13.5,7,22.7,7h154.7c9.2,0,16.6,7.5,16.6,16.6v83.2
			c0,4.2-2.5,8-6.5,9.6c-3.9,1.6-8.4,0.6-11.3-2.4l-16.4-17.2L142,79.1c-3.3-3.2-8.5-3.3-11.9-0.3l-21.8,19.8
			c-3.4,3.1-7.8,4.6-12.4,4.3c-4.6-0.3-8.7-2.4-11.6-6l-8.2-10.1c-0.1-0.2-0.2-0.3-0.4-0.5c-0.4-0.7-1.2-0.9-1.7-1
			c-1.2-0.2-3.2,0.2-4.8,1.8c-0.1,0.1-0.2,0.2-0.3,0.3L36,113.5c-1.7,1.4-4.2,1.1-5.6-0.7c-1.4-1.7-1.1-4.2,0.7-5.6l32.9-26
			c3.1-2.9,7.3-4.4,11.3-3.8c3.1,0.4,5.8,2.1,7.4,4.6l8,9.8c1.5,1.8,3.6,2.9,6,3.1c2.4,0.2,4.7-0.6,6.4-2.2l21.8-19.8
			c6.5-5.9,16.6-5.7,22.9,0.5l17.9,17.7c0,0,0.1,0.1,0.1,0.1l16.4,17.3c1,1,2.1,0.7,2.5,0.5c0.4-0.2,1.5-0.7,1.5-2.2V23.7
			c0-4.8-3.9-8.6-8.6-8.6H22.7c-4.8,0-8.6,3.9-8.6,8.6v152.7c0,4.8,3.9,8.6,8.6,8.6h44.6c2.2,0,4,1.8,4,4S69.5,193,67.3,193z"/>
	</g>
</g>
<g>
	<path d="M184.9,125.7h-14c-2.9,0-5.5,1.4-7.2,3.6l-35.5-18c-5.8-2.8-10.5-3.1-14.1-1c-3.4,2-5.4,5.9-5.8,11.7c0,0.3,0,0.6,0,1v56.9
		c0,0.3,0,0.6,0,1c0.3,4,1,8.4,4.8,10.8c1.6,1,3.5,1.6,5.8,1.6c2.5,0,5.5-0.6,9-1.9l36.1-16.2c1.6,2,4.1,3.2,6.8,3.2h14
		c4.9,0,8.9-4,8.9-8.9v-34.9C193.8,129.7,189.8,125.7,184.9,125.7z M125.2,183.8c-5.8,2-7.3,1.3-7.6,1.1c-0.3-0.2-1-1.1-1.2-4.7
		c0-0.1,0-0.3,0-0.4v-56.9c0-0.1,0-0.3,0-0.4c0.2-2.8,0.9-4.8,1.8-5.3c0.2-0.1,0.6-0.3,1.3-0.3c1,0,2.7,0.3,5.3,1.6l37.3,19v29.9
		L125.2,183.8z M185.8,169.5c0,0.5-0.4,0.9-0.9,0.9h-14c-0.5,0-0.9-0.4-0.9-0.9v-34.9c0-0.5,0.4-0.9,0.9-0.9h14
		c0.5,0,0.9,0.4,0.9,0.9V169.5z"/>
</g>
<g>
	<path d="M97.3,166.3c-1,0-2-0.4-2.8-1.2c-7.9-7.9-7.9-20.6,0-28.5c1.6-1.6,4.1-1.6,5.7,0c1.6,1.6,1.6,4.1,0,5.7
		c-4.7,4.7-4.7,12.4,0,17.2c1.6,1.6,1.6,4.1,0,5.7C99.4,165.9,98.4,166.3,97.3,166.3z"/>
</g>
<g>
	<path d="M80.4,178.8c-1,0-2-0.4-2.8-1.2c-14.8-14.8-14.8-38.8,0-53.6c1.6-1.6,4.1-1.6,5.7,0c1.6,1.6,1.6,4.1,0,5.7
		c-11.7,11.7-11.7,30.6,0,42.3c1.6,1.6,1.6,4.1,0,5.7C82.4,178.4,81.4,178.8,80.4,178.8z"/>
</g>
</svg>
