<?xml version="1.0" encoding="utf-8"?>
<!-- Generator: Adobe Illustrator 21.0.0, SVG Export Plug-In . SVG Version: 6.00 Build 0)  -->
<svg version="1.1" id="Layer_3" xmlns="http://www.w3.org/2000/svg" xmlns:xlink="http://www.w3.org/1999/xlink" x="0px" y="0px"
	 width="200px" height="200px" viewBox="0 0 200 200" style="enable-background:new 0 0 200 200;" xml:space="preserve">
<g>
	<path d="M172.8,15.5c-15,0-27.2,12.2-27.2,27.2c0,13.6,10,24.9,23.1,26.9v45.5c0,3.8-3.1,6.9-6.9,6.9h-6.6c-0.1,0-0.2,0-0.3,0
		v-18.3c0-8-6.5-14.5-14.5-14.5h-35.8V69.7c13.1-2,23.1-13.3,23.1-26.9c0-15-12.2-27.2-27.2-27.2c-15,0-27.2,12.2-27.2,27.2
		c0,13.6,10,24.9,23.1,26.9v19.7H60.6c-8,0-14.5,6.5-14.5,14.5v20.7c-0.4-0.2-0.9-0.2-1.4-0.2h-6.6c-3.8,0-6.9-3.1-6.9-6.9V69.7
		c13.1-2,23.1-13.3,23.1-26.9c0-15-12.2-27.2-27.2-27.2C12.2,15.5,0,27.7,0,42.7c0,13.6,10,24.9,23.1,26.9v47.8
		c0,8.3,6.8,15.1,15.1,15.1h6.6c0.5,0,0.9-0.1,1.4-0.2v20.8c0,8,6.5,14.5,14.5,14.5h25.1v8.6h-4.9c-2.3,0-4.1,1.8-4.1,4.1
		c0,2.3,1.8,4.1,4.1,4.1h39.6c2.3,0,4.1-1.8,4.1-4.1c0-2.3-1.8-4.1-4.1-4.1h-4.9v-8.6h25.1c8,0,14.5-6.5,14.5-14.5v-22.8
		c0.1,0,0.2,0,0.3,0h6.6c8.3,0,15.1-6.8,15.1-15.1V69.7c13-2,23.1-13.3,23.1-26.9C200,27.7,187.8,15.5,172.8,15.5z M27.2,61.7
		c-10.4,0-18.9-8.5-18.9-19s8.5-19,18.9-19c10.5,0,19,8.5,19,19S37.7,61.7,27.2,61.7z M81.6,42.7c0-10.5,8.5-19,19-19
		c10.4,0,19,8.5,19,19s-8.5,19-19,19C90.1,61.7,81.6,53.2,81.6,42.7z M107.2,176.2H93.9v-8.6h13.2V176.2z M146.7,153.1
		c0,3.4-2.8,6.2-6.2,6.2H60.6c-3.4,0-6.2-2.8-6.2-6.2V151h92.3V153.1z M146.7,142.8H54.4v-39c0-3.4,2.8-6.2,6.2-6.2h79.9
		c3.4,0,6.2,2.8,6.2,6.2V142.8z M172.8,61.7c-10.5,0-19-8.5-19-19s8.5-19,19-19c10.4,0,18.9,8.5,18.9,19S183.2,61.7,172.8,61.7z"/>
</g>
</svg>
