<?xml version="1.0" encoding="utf-8"?>
<!-- Generator: Adobe Illustrator 21.0.0, SVG Export Plug-In . SVG Version: 6.00 Build 0)  -->
<svg version="1.1" id="Layer_2" xmlns="http://www.w3.org/2000/svg" xmlns:xlink="http://www.w3.org/1999/xlink" x="0px" y="0px"
	 width="200px" height="200px" viewBox="0 0 200 200" style="enable-background:new 0 0 200 200;" xml:space="preserve">
<g>
	<g>
		<path d="M11.3,192.2c-1.3,0-2.7-0.7-3.4-2c-0.8-1.3-0.7-2.9,0-4.2l19.6-35.4C9.8,134.9,0.1,114.3,0.1,92.4
			C0.1,45.8,44.9,7.8,100,7.8s99.9,38,99.9,84.6c0,46.7-44.8,84.7-99.9,84.7c-14.3,0-28-2.5-40.8-7.4L13,191.8
			C12.5,192,11.9,192.2,11.3,192.2z M100,15.8c-50.7,0-91.9,34.4-91.9,76.6c0,20.5,9.6,39.7,27,54.3c1.5,1.2,1.9,3.3,0.9,5l-15,27.2
			c0,0.1,0,0.2,0.1,0.1l36.2-17.3c1-0.5,2.2-0.5,3.2-0.1c12.4,5,25.7,7.5,39.5,7.5c50.7,0,91.9-34.4,91.9-76.7
			C191.9,50.2,150.7,15.8,100,15.8z"/>
	</g>
</g>
<g>
	<path d="M45,128.9c-2.2,0-4-1.8-4-4v-65c0-2.2,1.8-4,4-4s4,1.8,4,4v65C49,127.1,47.2,128.9,45,128.9z"/>
</g>
<g>
	<path d="M73.5,128.9c-2.2,0-4-1.8-4-4v-22.5c0-2.2,1.8-4,4-4s4,1.8,4,4v22.5C77.5,127.1,75.7,128.9,73.5,128.9z"/>
</g>
<g>
	<path d="M102,128.9c-2.2,0-4-1.8-4-4V53.4c0-2.2,1.8-4,4-4s4,1.8,4,4v71.5C106,127.1,104.2,128.9,102,128.9z"/>
</g>
<g>
	<path d="M131.5,128.9c-2.2,0-4-1.8-4-4v-53c0-2.2,1.8-4,4-4s4,1.8,4,4v53C135.5,127.1,133.7,128.9,131.5,128.9z"/>
</g>
<g>
	<path d="M159,128.9c-2.2,0-4-1.8-4-4v-39c0-2.2,1.8-4,4-4s4,1.8,4,4v39C163,127.1,161.2,128.9,159,128.9z"/>
</g>
</svg>
