<?xml version="1.0" encoding="utf-8"?>
<!-- Generator: Adobe Illustrator 21.0.0, SVG Export Plug-In . SVG Version: 6.00 Build 0)  -->
<svg version="1.1" id="Layer_3" xmlns="http://www.w3.org/2000/svg" xmlns:xlink="http://www.w3.org/1999/xlink" x="0px" y="0px"
	 width="200px" height="200px" viewBox="0 0 200 200" style="enable-background:new 0 0 200 200;" xml:space="preserve">
<g>
	<g>
		<path d="M140.5,136c-2.1,0-4.7-1.5-4.7-3.4c0-19-18.4-29.1-35.8-29.3c-17.6-0.1-35.9,10.3-35.9,29.3c0,1.9-2.5,3.4-4.6,3.4
			s-3.7-1.6-3.7-3.5c0-22.8,19.9-37,44.2-37s44.2,14.1,44.2,37C144.2,134.5,142.6,136,140.5,136z"/>
	</g>
</g>
<g>
	<g>
		<path d="M100,87.9c-15.1,0-27.3-12.3-27.3-27.3S84.9,33.2,100,33.2s27.3,12.3,27.3,27.3S115.1,87.9,100,87.9z M100,41.2
			c-10.7,0-19.3,8.7-19.3,19.3s8.7,19.3,19.3,19.3s19.3-8.7,19.3-19.3S110.7,41.2,100,41.2z"/>
	</g>
</g>
<g>
	<path d="M100,180.9c-3.6,0-7.2-1.4-9.9-4.1L69,155.7H24.3c-10.5,0-19-8.5-19-19V38.1c0-10.5,8.5-19,19-19h151.3
		c10.5,0,19,8.5,19,19v98.7c0,10.5-8.5,19-19,19H131l-21.1,21.1C107.2,179.6,103.6,180.9,100,180.9z M24.3,27.1c-6.1,0-11,4.9-11,11
		v98.7c0,6.1,4.9,11,11,11h48l23.4,23.4c2.3,2.3,6.1,2.3,8.5,0l23.4-23.4h48c6.1,0,11-4.9,11-11V38.1c0-6.1-4.9-11-11-11H24.3z"/>
</g>
</svg>
