<?xml version="1.0" encoding="utf-8"?>
<!-- Generator: Adobe Illustrator 21.0.0, SVG Export Plug-In . SVG Version: 6.00 Build 0)  -->
<svg version="1.1" id="Layer_2" xmlns="http://www.w3.org/2000/svg" xmlns:xlink="http://www.w3.org/1999/xlink" x="0px" y="0px"
	 width="200px" height="200px" viewBox="0 0 200 200" style="enable-background:new 0 0 200 200;" xml:space="preserve">
<g>
	<path d="M139.3,137.5l-31.8-33.6l-0.4-0.4c0.6-0.9,1.1-2.4,1.1-3.5c0-3.1-1.7-5.8-4.2-7.2V30c0-2.2-1.8-4-4-4c-2.2,0-4,1.8-4,4
		v62.8c-2.5,1.4-4.2,4.1-4.2,7.1c0,4.5,3.7,8.2,8.2,8.2c0.9,0,2.1-0.4,2.9-0.7l0.4,0.4l31.8,33.6c0.7,0.7,1.6,1.1,2.5,1.1
		c0.9,0,1.3-0.4,2-1C140.9,140.3,140.6,138.9,139.3,137.5z M100.8,100.9c-0.2,0.2-0.5,0.3-0.8,0.3c-0.7,0-1.2-0.5-1.2-1.2
		c0-0.3,0.1-0.6,0.3-0.8c0.2-0.3,0.5-0.4,0.9-0.4c0.3,0,0.7,0.2,0.9,0.4c0.2,0.2,0.3,0.5,0.3,0.8C101.2,100.5,101,100.7,100.8,100.9
		z"/>
</g>
<g>
	<path d="M100,0.1C44.9,0.1,0,44.9,0,100C0,155.1,44.9,200,100,200s100-44.8,100-99.9C200,44.9,155.1,0.1,100,0.1z M104,191.9v-2.7
		c0-2.2-1.8-4-4-4c-2.2,0-4,1.8-4,4v2.7c-47.5-2-85.8-40.3-87.9-87.9h2.8c2.2,0,4-1.8,4-4c0-2.2-1.8-4-4-4H8.1
		c2-47.5,40.4-85.8,87.9-87.9v2.7c0,2.2,1.8,4,4,4c2.2,0,4-1.8,4-4V8.2c47.5,2,85.9,40.3,87.9,87.9h-2.8c-2.2,0-4,1.8-4,4
		c0,2.2,1.8,4,4,4h2.8C189.8,151.5,151.5,189.8,104,191.9z"/>
</g>
</svg>
