<?xml version="1.0" encoding="utf-8"?>
<!-- Generator: Adobe Illustrator 21.0.0, SVG Export Plug-In . SVG Version: 6.00 Build 0)  -->
<svg version="1.1" id="Layer_2" xmlns="http://www.w3.org/2000/svg" xmlns:xlink="http://www.w3.org/1999/xlink" x="0px" y="0px"
	 width="200px" height="200px" viewBox="0 0 200 200" style="enable-background:new 0 0 200 200;" xml:space="preserve">
<g>
	<path d="M100,182.8c-1.6,0-3.3-0.6-4.6-1.7l-71.3-61.7c-0.1-0.1-0.2-0.2-0.3-0.3l-7.6-7.6C5.6,101-0.2,87-0.2,72
		c0-15,5.8-29,16.3-39.5C26.6,22,40.7,16.2,55.7,16.2c15,0,29,5.8,39.5,16.3l4.8,4.8l4.8-4.8c10.5-10.5,24.5-16.3,39.5-16.3
		c15,0,29,5.8,39.5,16.3C194.4,43,200.2,57,200.2,72c0,15-5.8,29-16.3,39.5l-7.5,7.6c-0.1,0.1-0.2,0.2-0.4,0.4l-71.4,61.7
		C103.3,182.3,101.6,182.8,100,182.8z M55.7,24.2c-12.9,0-24.9,5-33.8,14c-9,9-14,21-14,33.9c0,12.8,5,24.9,14,33.9l7.6,7.6l70.6,61
		l70.7-61.1l7.5-7.5c9-9,14-21,14-33.9c0-12.9-5-24.9-14-33.8c-9-9-21.1-14-33.9-14c-12.8,0-24.9,5-33.9,14l-5.5,5.5
		c-1.3,1.3-3.1,2.1-5,2.1c0,0,0,0,0,0c-1.9,0-3.6-0.7-4.9-2l-5.5-5.5C80.6,29.2,68.5,24.2,55.7,24.2z"/>
</g>
</svg>
