<?xml version="1.0" encoding="utf-8"?>
<!-- Generator: Adobe Illustrator 21.0.0, SVG Export Plug-In . SVG Version: 6.00 Build 0)  -->
<svg version="1.1" id="Layer_3" xmlns="http://www.w3.org/2000/svg" xmlns:xlink="http://www.w3.org/1999/xlink" x="0px" y="0px"
	 width="200px" height="200px" viewBox="0 0 200 200" style="enable-background:new 0 0 200 200;" xml:space="preserve">
<g>
	<path d="M55.7,105.1c-1,0-2-0.4-2.8-1.1c-1.6-1.5-1.6-4.1-0.1-5.7l37-38c2.7-2.7,6.2-4.2,10-4.2c0,0,0,0,0.1,0
		c3.8,0,7.4,1.5,10,4.3c13.7,14.3,37,37.7,37.2,37.9c1.6,1.6,1.6,4.1,0,5.7c-1.6,1.6-4.1,1.6-5.7,0c-0.2-0.2-23.6-23.7-37.3-38
		c-1.1-1.2-2.7-1.8-4.3-1.8c-1.6,0-3.2,0.6-4.3,1.8l-37,38C57.8,104.7,56.7,105.1,55.7,105.1z"/>
</g>
</svg>
