<?xml version="1.0" encoding="utf-8"?>
<!-- Generator: Adobe Illustrator 21.0.0, SVG Export Plug-In . SVG Version: 6.00 Build 0)  -->
<svg version="1.1" id="Layer_2" xmlns="http://www.w3.org/2000/svg" xmlns:xlink="http://www.w3.org/1999/xlink" x="0px" y="0px"
	 width="200px" height="200px" viewBox="0 0 200 200" style="enable-background:new 0 0 200 200;" xml:space="preserve">
<g>
	<g>
		<path d="M85.2,126.7c-0.6,0-1.3-0.1-1.9-0.4c-1.4-0.7-2.4-2.2-2.4-3.8v-45c0-1.6,1-3.1,2.4-3.8c1.5-0.7,3.2-0.5,4.5,0.6l33.5,23.5
			c1,0.8,1.5,2,1.5,3.3c0,1.3-0.6,2.5-1.6,3.2l-33.5,21.6C87.1,126.4,86.1,126.7,85.2,126.7z M89.4,86.6v27.3l21.3-13.5L89.4,86.6z"
			/>
	</g>
</g>
<g>
	<path d="M175.1,4.9H24.9c-11,0-20,9-20,20v150.2c0,11,9,20,20,20h150.2c11,0,20-9,20-20V24.9C195.1,13.9,186.1,4.9,175.1,4.9z
		 M186.7,24.9v11.8h-22.9V13.3h11.3C181.5,13.3,186.7,18.5,186.7,24.9z M36.4,186.7H24.9c-6.4,0-11.6-5.2-11.6-11.6v-11.6h23.1
		V186.7z M36.4,155.1H13.3v-21.4h23.1V155.1z M36.4,125.2H13.3v-21h23.1V125.2z M36.4,95.8H13.3V75h23.1V95.8z M36.4,66.5H13.3V45.1
		h23.1V66.5z M36.4,36.7H13.3V24.9c0-6.4,5.2-11.6,11.6-11.6h11.5V36.7z M155.3,186.7H44.8V13.3h110.5V186.7z M186.7,175.1
		c0,6.4-5.2,11.6-11.6,11.6h-11.3v-23.2h22.9V175.1z M186.7,155.1h-22.9v-21.4h22.9V155.1z M186.7,125.2h-22.9v-21h22.9V125.2z
		 M186.7,95.8h-22.9V75h22.9V95.8z M186.7,66.5h-22.9V45.1h22.9V66.5z"/>
</g>
</svg>
